<?xml version="1.0" encoding="utf-8"?>
<Project name="common cold" themeId="0" version="65538" templateID="SimpleProjectTemplate">
  <MediaItems>
    <MediaItem id="521" filePath="C:\Users\ChrisWhong\Desktop\SickWeather\GeoTrails2\commoncold\frames0521.tiff" arWidth="1280" arHeight="720" duration="0" songTitle="" songArtist="" songAlbum="" />
    <MediaItem id="522" filePath="C:\Users\ChrisWhong\Desktop\SickWeather\GeoTrails2\commoncold\frames0522.tiff" arWidth="1280" arHeight="720" duration="0" songTitle="" songArtist="" songAlbum="" />
    <MediaItem id="1" filePath="C:\Users\ChrisWhong\Desktop\SickWeather\GeoTrails2\commoncold\frames0001.tiff" arWidth="1280" arHeight="720" duration="0" songTitle="" songArtist="" songAlbum="" />
    <MediaItem id="523" filePath="C:\Users\ChrisWhong\Desktop\SickWeather\GeoTrails2\commoncold\frames0523.tiff" arWidth="1280" arHeight="720" duration="0" songTitle="" songArtist="" songAlbum="" />
    <MediaItem id="2" filePath="C:\Users\ChrisWhong\Desktop\SickWeather\GeoTrails2\commoncold\frames0002.tiff" arWidth="96" arHeight="54" duration="0" songTitle="" songArtist="" songAlbum="" />
    <MediaItem id="524" filePath="C:\Users\ChrisWhong\Desktop\SickWeather\GeoTrails2\commoncold\frames0524.tiff" arWidth="1280" arHeight="720" duration="0" songTitle="" songArtist="" songAlbum="" />
    <MediaItem id="3" filePath="C:\Users\ChrisWhong\Desktop\SickWeather\GeoTrails2\commoncold\frames0003.tiff" arWidth="96" arHeight="54" duration="0" songTitle="" songArtist="" songAlbum="" />
    <MediaItem id="525" filePath="C:\Users\ChrisWhong\Desktop\SickWeather\GeoTrails2\commoncold\frames0525.tiff" arWidth="1280" arHeight="720" duration="0" songTitle="" songArtist="" songAlbum="" />
    <MediaItem id="4" filePath="C:\Users\ChrisWhong\Desktop\SickWeather\GeoTrails2\commoncold\frames0004.tiff" arWidth="96" arHeight="54" duration="0" songTitle="" songArtist="" songAlbum="" />
    <MediaItem id="526" filePath="C:\Users\ChrisWhong\Desktop\SickWeather\GeoTrails2\commoncold\frames0526.tiff" arWidth="1280" arHeight="720" duration="0" songTitle="" songArtist="" songAlbum="" />
    <MediaItem id="5" filePath="C:\Users\ChrisWhong\Desktop\SickWeather\GeoTrails2\commoncold\frames0005.tiff" arWidth="96" arHeight="54" duration="0" songTitle="" songArtist="" songAlbum="" />
    <MediaItem id="527" filePath="C:\Users\ChrisWhong\Desktop\SickWeather\GeoTrails2\commoncold\frames0527.tiff" arWidth="1280" arHeight="720" duration="0" songTitle="" songArtist="" songAlbum="" />
    <MediaItem id="6" filePath="C:\Users\ChrisWhong\Desktop\SickWeather\GeoTrails2\commoncold\frames0006.tiff" arWidth="96" arHeight="54" duration="0" songTitle="" songArtist="" songAlbum="" />
    <MediaItem id="528" filePath="C:\Users\ChrisWhong\Desktop\SickWeather\GeoTrails2\commoncold\frames0528.tiff" arWidth="1280" arHeight="720" duration="0" songTitle="" songArtist="" songAlbum="" />
    <MediaItem id="7" filePath="C:\Users\ChrisWhong\Desktop\SickWeather\GeoTrails2\commoncold\frames0007.tiff" arWidth="96" arHeight="54" duration="0" songTitle="" songArtist="" songAlbum="" />
    <MediaItem id="529" filePath="C:\Users\ChrisWhong\Desktop\SickWeather\GeoTrails2\commoncold\frames0529.tiff" arWidth="1280" arHeight="720" duration="0" songTitle="" songArtist="" songAlbum="" />
    <MediaItem id="8" filePath="C:\Users\ChrisWhong\Desktop\SickWeather\GeoTrails2\commoncold\frames0008.tiff" arWidth="96" arHeight="54" duration="0" songTitle="" songArtist="" songAlbum="" />
    <MediaItem id="530" filePath="C:\Users\ChrisWhong\Desktop\SickWeather\GeoTrails2\commoncold\frames0530.tiff" arWidth="1280" arHeight="720" duration="0" songTitle="" songArtist="" songAlbum="" />
    <MediaItem id="9" filePath="C:\Users\ChrisWhong\Desktop\SickWeather\GeoTrails2\commoncold\frames0009.tiff" arWidth="96" arHeight="54" duration="0" songTitle="" songArtist="" songAlbum="" />
    <MediaItem id="531" filePath="C:\Users\ChrisWhong\Desktop\SickWeather\GeoTrails2\commoncold\frames0531.tiff" arWidth="1280" arHeight="720" duration="0" songTitle="" songArtist="" songAlbum="" />
    <MediaItem id="10" filePath="C:\Users\ChrisWhong\Desktop\SickWeather\GeoTrails2\commoncold\frames0010.tiff" arWidth="96" arHeight="54" duration="0" songTitle="" songArtist="" songAlbum="" />
    <MediaItem id="532" filePath="C:\Users\ChrisWhong\Desktop\SickWeather\GeoTrails2\commoncold\frames0532.tiff" arWidth="1280" arHeight="720" duration="0" songTitle="" songArtist="" songAlbum="" />
    <MediaItem id="11" filePath="C:\Users\ChrisWhong\Desktop\SickWeather\GeoTrails2\commoncold\frames0011.tiff" arWidth="96" arHeight="54" duration="0" songTitle="" songArtist="" songAlbum="" />
    <MediaItem id="533" filePath="C:\Users\ChrisWhong\Desktop\SickWeather\GeoTrails2\commoncold\frames0533.tiff" arWidth="1280" arHeight="720" duration="0" songTitle="" songArtist="" songAlbum="" />
    <MediaItem id="12" filePath="C:\Users\ChrisWhong\Desktop\SickWeather\GeoTrails2\commoncold\frames0012.tiff" arWidth="96" arHeight="54" duration="0" songTitle="" songArtist="" songAlbum="" />
    <MediaItem id="534" filePath="C:\Users\ChrisWhong\Desktop\SickWeather\GeoTrails2\commoncold\frames0534.tiff" arWidth="1280" arHeight="720" duration="0" songTitle="" songArtist="" songAlbum="" />
    <MediaItem id="13" filePath="C:\Users\ChrisWhong\Desktop\SickWeather\GeoTrails2\commoncold\frames0013.tiff" arWidth="96" arHeight="54" duration="0" songTitle="" songArtist="" songAlbum="" />
    <MediaItem id="535" filePath="C:\Users\ChrisWhong\Desktop\SickWeather\GeoTrails2\commoncold\frames0535.tiff" arWidth="1280" arHeight="720" duration="0" songTitle="" songArtist="" songAlbum="" />
    <MediaItem id="14" filePath="C:\Users\ChrisWhong\Desktop\SickWeather\GeoTrails2\commoncold\frames0014.tiff" arWidth="96" arHeight="54" duration="0" songTitle="" songArtist="" songAlbum="" />
    <MediaItem id="536" filePath="C:\Users\ChrisWhong\Desktop\SickWeather\GeoTrails2\commoncold\frames0536.tiff" arWidth="1280" arHeight="720" duration="0" songTitle="" songArtist="" songAlbum="" />
    <MediaItem id="15" filePath="C:\Users\ChrisWhong\Desktop\SickWeather\GeoTrails2\commoncold\frames0015.tiff" arWidth="96" arHeight="54" duration="0" songTitle="" songArtist="" songAlbum="" />
    <MediaItem id="537" filePath="C:\Users\ChrisWhong\Desktop\SickWeather\GeoTrails2\commoncold\frames0537.tiff" arWidth="1280" arHeight="720" duration="0" songTitle="" songArtist="" songAlbum="" />
    <MediaItem id="16" filePath="C:\Users\ChrisWhong\Desktop\SickWeather\GeoTrails2\commoncold\frames0016.tiff" arWidth="96" arHeight="54" duration="0" songTitle="" songArtist="" songAlbum="" />
    <MediaItem id="538" filePath="C:\Users\ChrisWhong\Desktop\SickWeather\GeoTrails2\commoncold\frames0538.tiff" arWidth="1280" arHeight="720" duration="0" songTitle="" songArtist="" songAlbum="" />
    <MediaItem id="17" filePath="C:\Users\ChrisWhong\Desktop\SickWeather\GeoTrails2\commoncold\frames0017.tiff" arWidth="96" arHeight="54" duration="0" songTitle="" songArtist="" songAlbum="" />
    <MediaItem id="539" filePath="C:\Users\ChrisWhong\Desktop\SickWeather\GeoTrails2\commoncold\frames0539.tiff" arWidth="1280" arHeight="720" duration="0" songTitle="" songArtist="" songAlbum="" />
    <MediaItem id="18" filePath="C:\Users\ChrisWhong\Desktop\SickWeather\GeoTrails2\commoncold\frames0018.tiff" arWidth="96" arHeight="54" duration="0" songTitle="" songArtist="" songAlbum="" />
    <MediaItem id="540" filePath="C:\Users\ChrisWhong\Desktop\SickWeather\GeoTrails2\commoncold\frames0540.tiff" arWidth="1280" arHeight="720" duration="0" songTitle="" songArtist="" songAlbum="" />
    <MediaItem id="19" filePath="C:\Users\ChrisWhong\Desktop\SickWeather\GeoTrails2\commoncold\frames0019.tiff" arWidth="96" arHeight="54" duration="0" songTitle="" songArtist="" songAlbum="" />
    <MediaItem id="541" filePath="C:\Users\ChrisWhong\Desktop\SickWeather\GeoTrails2\commoncold\frames0541.tiff" arWidth="1280" arHeight="720" duration="0" songTitle="" songArtist="" songAlbum="" />
    <MediaItem id="20" filePath="C:\Users\ChrisWhong\Desktop\SickWeather\GeoTrails2\commoncold\frames0020.tiff" arWidth="96" arHeight="54" duration="0" songTitle="" songArtist="" songAlbum="" />
    <MediaItem id="21" filePath="C:\Users\ChrisWhong\Desktop\SickWeather\GeoTrails2\commoncold\frames0021.tiff" arWidth="96" arHeight="54" duration="0" songTitle="" songArtist="" songAlbum="" />
    <MediaItem id="22" filePath="C:\Users\ChrisWhong\Desktop\SickWeather\GeoTrails2\commoncold\frames0022.tiff" arWidth="96" arHeight="54" duration="0" songTitle="" songArtist="" songAlbum="" />
    <MediaItem id="23" filePath="C:\Users\ChrisWhong\Desktop\SickWeather\GeoTrails2\commoncold\frames0023.tiff" arWidth="96" arHeight="54" duration="0" songTitle="" songArtist="" songAlbum="" />
    <MediaItem id="24" filePath="C:\Users\ChrisWhong\Desktop\SickWeather\GeoTrails2\commoncold\frames0024.tiff" arWidth="96" arHeight="54" duration="0" songTitle="" songArtist="" songAlbum="" />
    <MediaItem id="25" filePath="C:\Users\ChrisWhong\Desktop\SickWeather\GeoTrails2\commoncold\frames0025.tiff" arWidth="96" arHeight="54" duration="0" songTitle="" songArtist="" songAlbum="" />
    <MediaItem id="26" filePath="C:\Users\ChrisWhong\Desktop\SickWeather\GeoTrails2\commoncold\frames0026.tiff" arWidth="96" arHeight="54" duration="0" songTitle="" songArtist="" songAlbum="" />
    <MediaItem id="27" filePath="C:\Users\ChrisWhong\Desktop\SickWeather\GeoTrails2\commoncold\frames0027.tiff" arWidth="1024" arHeight="576" duration="0" songTitle="" songArtist="" songAlbum="" />
    <MediaItem id="28" filePath="C:\Users\ChrisWhong\Desktop\SickWeather\GeoTrails2\commoncold\frames0028.tiff" arWidth="1024" arHeight="576" duration="0" songTitle="" songArtist="" songAlbum="" />
    <MediaItem id="29" filePath="C:\Users\ChrisWhong\Desktop\SickWeather\GeoTrails2\commoncold\frames0029.tiff" arWidth="1024" arHeight="576" duration="0" songTitle="" songArtist="" songAlbum="" />
    <MediaItem id="30" filePath="C:\Users\ChrisWhong\Desktop\SickWeather\GeoTrails2\commoncold\frames0030.tiff" arWidth="1024" arHeight="576" duration="0" songTitle="" songArtist="" songAlbum="" />
    <MediaItem id="31" filePath="C:\Users\ChrisWhong\Desktop\SickWeather\GeoTrails2\commoncold\frames0031.tiff" arWidth="256" arHeight="144" duration="0" songTitle="" songArtist="" songAlbum="" />
    <MediaItem id="32" filePath="C:\Users\ChrisWhong\Desktop\SickWeather\GeoTrails2\commoncold\frames0032.tiff" arWidth="1024" arHeight="576" duration="0" songTitle="" songArtist="" songAlbum="" />
    <MediaItem id="33" filePath="C:\Users\ChrisWhong\Desktop\SickWeather\GeoTrails2\commoncold\frames0033.tiff" arWidth="1024" arHeight="576" duration="0" songTitle="" songArtist="" songAlbum="" />
    <MediaItem id="34" filePath="C:\Users\ChrisWhong\Desktop\SickWeather\GeoTrails2\commoncold\frames0034.tiff" arWidth="1024" arHeight="576" duration="0" songTitle="" songArtist="" songAlbum="" />
    <MediaItem id="35" filePath="C:\Users\ChrisWhong\Desktop\SickWeather\GeoTrails2\commoncold\frames0035.tiff" arWidth="1024" arHeight="576" duration="0" songTitle="" songArtist="" songAlbum="" />
    <MediaItem id="36" filePath="C:\Users\ChrisWhong\Desktop\SickWeather\GeoTrails2\commoncold\frames0036.tiff" arWidth="1024" arHeight="576" duration="0" songTitle="" songArtist="" songAlbum="" />
    <MediaItem id="37" filePath="C:\Users\ChrisWhong\Desktop\SickWeather\GeoTrails2\commoncold\frames0037.tiff" arWidth="1024" arHeight="576" duration="0" songTitle="" songArtist="" songAlbum="" />
    <MediaItem id="38" filePath="C:\Users\ChrisWhong\Desktop\SickWeather\GeoTrails2\commoncold\frames0038.tiff" arWidth="1024" arHeight="576" duration="0" songTitle="" songArtist="" songAlbum="" />
    <MediaItem id="39" filePath="C:\Users\ChrisWhong\Desktop\SickWeather\GeoTrails2\commoncold\frames0039.tiff" arWidth="1024" arHeight="576" duration="0" songTitle="" songArtist="" songAlbum="" />
    <MediaItem id="40" filePath="C:\Users\ChrisWhong\Desktop\SickWeather\GeoTrails2\commoncold\frames0040.tiff" arWidth="256" arHeight="144" duration="0" songTitle="" songArtist="" songAlbum="" />
    <MediaItem id="41" filePath="C:\Users\ChrisWhong\Desktop\SickWeather\GeoTrails2\commoncold\frames0041.tiff" arWidth="1024" arHeight="576" duration="0" songTitle="" songArtist="" songAlbum="" />
    <MediaItem id="42" filePath="C:\Users\ChrisWhong\Desktop\SickWeather\GeoTrails2\commoncold\frames0042.tiff" arWidth="256" arHeight="144" duration="0" songTitle="" songArtist="" songAlbum="" />
    <MediaItem id="43" filePath="C:\Users\ChrisWhong\Desktop\SickWeather\GeoTrails2\commoncold\frames0043.tiff" arWidth="1024" arHeight="576" duration="0" songTitle="" songArtist="" songAlbum="" />
    <MediaItem id="44" filePath="C:\Users\ChrisWhong\Desktop\SickWeather\GeoTrails2\commoncold\frames0044.tiff" arWidth="1024" arHeight="576" duration="0" songTitle="" songArtist="" songAlbum="" />
    <MediaItem id="45" filePath="C:\Users\ChrisWhong\Desktop\SickWeather\GeoTrails2\commoncold\frames0045.tiff" arWidth="1024" arHeight="576" duration="0" songTitle="" songArtist="" songAlbum="" />
    <MediaItem id="46" filePath="C:\Users\ChrisWhong\Desktop\SickWeather\GeoTrails2\commoncold\frames0046.tiff" arWidth="1024" arHeight="576" duration="0" songTitle="" songArtist="" songAlbum="" />
    <MediaItem id="47" filePath="C:\Users\ChrisWhong\Desktop\SickWeather\GeoTrails2\commoncold\frames0047.tiff" arWidth="1024" arHeight="576" duration="0" songTitle="" songArtist="" songAlbum="" />
    <MediaItem id="48" filePath="C:\Users\ChrisWhong\Desktop\SickWeather\GeoTrails2\commoncold\frames0048.tiff" arWidth="1024" arHeight="576" duration="0" songTitle="" songArtist="" songAlbum="" />
    <MediaItem id="49" filePath="C:\Users\ChrisWhong\Desktop\SickWeather\GeoTrails2\commoncold\frames0049.tiff" arWidth="1024" arHeight="576" duration="0" songTitle="" songArtist="" songAlbum="" />
    <MediaItem id="50" filePath="C:\Users\ChrisWhong\Desktop\SickWeather\GeoTrails2\commoncold\frames0050.tiff" arWidth="1024" arHeight="576" duration="0" songTitle="" songArtist="" songAlbum="" />
    <MediaItem id="51" filePath="C:\Users\ChrisWhong\Desktop\SickWeather\GeoTrails2\commoncold\frames0051.tiff" arWidth="1024" arHeight="576" duration="0" songTitle="" songArtist="" songAlbum="" />
    <MediaItem id="52" filePath="C:\Users\ChrisWhong\Desktop\SickWeather\GeoTrails2\commoncold\frames0052.tiff" arWidth="1024" arHeight="576" duration="0" songTitle="" songArtist="" songAlbum="" />
    <MediaItem id="53" filePath="C:\Users\ChrisWhong\Desktop\SickWeather\GeoTrails2\commoncold\frames0053.tiff" arWidth="1024" arHeight="576" duration="0" songTitle="" songArtist="" songAlbum="" />
    <MediaItem id="54" filePath="C:\Users\ChrisWhong\Desktop\SickWeather\GeoTrails2\commoncold\frames0054.tiff" arWidth="1024" arHeight="576" duration="0" songTitle="" songArtist="" songAlbum="" />
    <MediaItem id="55" filePath="C:\Users\ChrisWhong\Desktop\SickWeather\GeoTrails2\commoncold\frames0055.tiff" arWidth="1024" arHeight="576" duration="0" songTitle="" songArtist="" songAlbum="" />
    <MediaItem id="56" filePath="C:\Users\ChrisWhong\Desktop\SickWeather\GeoTrails2\commoncold\frames0056.tiff" arWidth="1024" arHeight="576" duration="0" songTitle="" songArtist="" songAlbum="" />
    <MediaItem id="57" filePath="C:\Users\ChrisWhong\Desktop\SickWeather\GeoTrails2\commoncold\frames0057.tiff" arWidth="1024" arHeight="576" duration="0" songTitle="" songArtist="" songAlbum="" />
    <MediaItem id="58" filePath="C:\Users\ChrisWhong\Desktop\SickWeather\GeoTrails2\commoncold\frames0058.tiff" arWidth="1024" arHeight="576" duration="0" songTitle="" songArtist="" songAlbum="" />
    <MediaItem id="59" filePath="C:\Users\ChrisWhong\Desktop\SickWeather\GeoTrails2\commoncold\frames0059.tiff" arWidth="1024" arHeight="576" duration="0" songTitle="" songArtist="" songAlbum="" />
    <MediaItem id="60" filePath="C:\Users\ChrisWhong\Desktop\SickWeather\GeoTrails2\commoncold\frames0060.tiff" arWidth="1024" arHeight="576" duration="0" songTitle="" songArtist="" songAlbum="" />
    <MediaItem id="61" filePath="C:\Users\ChrisWhong\Desktop\SickWeather\GeoTrails2\commoncold\frames0061.tiff" arWidth="1024" arHeight="576" duration="0" songTitle="" songArtist="" songAlbum="" />
    <MediaItem id="62" filePath="C:\Users\ChrisWhong\Desktop\SickWeather\GeoTrails2\commoncold\frames0062.tiff" arWidth="1024" arHeight="576" duration="0" songTitle="" songArtist="" songAlbum="" />
    <MediaItem id="63" filePath="C:\Users\ChrisWhong\Desktop\SickWeather\GeoTrails2\commoncold\frames0063.tiff" arWidth="1024" arHeight="576" duration="0" songTitle="" songArtist="" songAlbum="" />
    <MediaItem id="64" filePath="C:\Users\ChrisWhong\Desktop\SickWeather\GeoTrails2\commoncold\frames0064.tiff" arWidth="1024" arHeight="576" duration="0" songTitle="" songArtist="" songAlbum="" />
    <MediaItem id="65" filePath="C:\Users\ChrisWhong\Desktop\SickWeather\GeoTrails2\commoncold\frames0065.tiff" arWidth="1024" arHeight="576" duration="0" songTitle="" songArtist="" songAlbum="" />
    <MediaItem id="66" filePath="C:\Users\ChrisWhong\Desktop\SickWeather\GeoTrails2\commoncold\frames0066.tiff" arWidth="1024" arHeight="576" duration="0" songTitle="" songArtist="" songAlbum="" />
    <MediaItem id="67" filePath="C:\Users\ChrisWhong\Desktop\SickWeather\GeoTrails2\commoncold\frames0067.tiff" arWidth="1024" arHeight="576" duration="0" songTitle="" songArtist="" songAlbum="" />
    <MediaItem id="68" filePath="C:\Users\ChrisWhong\Desktop\SickWeather\GeoTrails2\commoncold\frames0068.tiff" arWidth="1024" arHeight="576" duration="0" songTitle="" songArtist="" songAlbum="" />
    <MediaItem id="69" filePath="C:\Users\ChrisWhong\Desktop\SickWeather\GeoTrails2\commoncold\frames0069.tiff" arWidth="1024" arHeight="576" duration="0" songTitle="" songArtist="" songAlbum="" />
    <MediaItem id="70" filePath="C:\Users\ChrisWhong\Desktop\SickWeather\GeoTrails2\commoncold\frames0070.tiff" arWidth="1024" arHeight="576" duration="0" songTitle="" songArtist="" songAlbum="" />
    <MediaItem id="71" filePath="C:\Users\ChrisWhong\Desktop\SickWeather\GeoTrails2\commoncold\frames0071.tiff" arWidth="1024" arHeight="576" duration="0" songTitle="" songArtist="" songAlbum="" />
    <MediaItem id="72" filePath="C:\Users\ChrisWhong\Desktop\SickWeather\GeoTrails2\commoncold\frames0072.tiff" arWidth="1024" arHeight="576" duration="0" songTitle="" songArtist="" songAlbum="" />
    <MediaItem id="73" filePath="C:\Users\ChrisWhong\Desktop\SickWeather\GeoTrails2\commoncold\frames0073.tiff" arWidth="1024" arHeight="576" duration="0" songTitle="" songArtist="" songAlbum="" />
    <MediaItem id="74" filePath="C:\Users\ChrisWhong\Desktop\SickWeather\GeoTrails2\commoncold\frames0074.tiff" arWidth="256" arHeight="144" duration="0" songTitle="" songArtist="" songAlbum="" />
    <MediaItem id="75" filePath="C:\Users\ChrisWhong\Desktop\SickWeather\GeoTrails2\commoncold\frames0075.tiff" arWidth="1024" arHeight="576" duration="0" songTitle="" songArtist="" songAlbum="" />
    <MediaItem id="76" filePath="C:\Users\ChrisWhong\Desktop\SickWeather\GeoTrails2\commoncold\frames0076.tiff" arWidth="1024" arHeight="576" duration="0" songTitle="" songArtist="" songAlbum="" />
    <MediaItem id="77" filePath="C:\Users\ChrisWhong\Desktop\SickWeather\GeoTrails2\commoncold\frames0077.tiff" arWidth="256" arHeight="144" duration="0" songTitle="" songArtist="" songAlbum="" />
    <MediaItem id="78" filePath="C:\Users\ChrisWhong\Desktop\SickWeather\GeoTrails2\commoncold\frames0078.tiff" arWidth="256" arHeight="144" duration="0" songTitle="" songArtist="" songAlbum="" />
    <MediaItem id="79" filePath="C:\Users\ChrisWhong\Desktop\SickWeather\GeoTrails2\commoncold\frames0079.tiff" arWidth="256" arHeight="144" duration="0" songTitle="" songArtist="" songAlbum="" />
    <MediaItem id="80" filePath="C:\Users\ChrisWhong\Desktop\SickWeather\GeoTrails2\commoncold\frames0080.tiff" arWidth="256" arHeight="144" duration="0" songTitle="" songArtist="" songAlbum="" />
    <MediaItem id="81" filePath="C:\Users\ChrisWhong\Desktop\SickWeather\GeoTrails2\commoncold\frames0081.tiff" arWidth="256" arHeight="144" duration="0" songTitle="" songArtist="" songAlbum="" />
    <MediaItem id="82" filePath="C:\Users\ChrisWhong\Desktop\SickWeather\GeoTrails2\commoncold\frames0082.tiff" arWidth="256" arHeight="144" duration="0" songTitle="" songArtist="" songAlbum="" />
    <MediaItem id="83" filePath="C:\Users\ChrisWhong\Desktop\SickWeather\GeoTrails2\commoncold\frames0083.tiff" arWidth="256" arHeight="144" duration="0" songTitle="" songArtist="" songAlbum="" />
    <MediaItem id="84" filePath="C:\Users\ChrisWhong\Desktop\SickWeather\GeoTrails2\commoncold\frames0084.tiff" arWidth="256" arHeight="144" duration="0" songTitle="" songArtist="" songAlbum="" />
    <MediaItem id="85" filePath="C:\Users\ChrisWhong\Desktop\SickWeather\GeoTrails2\commoncold\frames0085.tiff" arWidth="256" arHeight="144" duration="0" songTitle="" songArtist="" songAlbum="" />
    <MediaItem id="86" filePath="C:\Users\ChrisWhong\Desktop\SickWeather\GeoTrails2\commoncold\frames0086.tiff" arWidth="256" arHeight="144" duration="0" songTitle="" songArtist="" songAlbum="" />
    <MediaItem id="87" filePath="C:\Users\ChrisWhong\Desktop\SickWeather\GeoTrails2\commoncold\frames0087.tiff" arWidth="256" arHeight="144" duration="0" songTitle="" songArtist="" songAlbum="" />
    <MediaItem id="88" filePath="C:\Users\ChrisWhong\Desktop\SickWeather\GeoTrails2\commoncold\frames0088.tiff" arWidth="1024" arHeight="576" duration="0" songTitle="" songArtist="" songAlbum="" />
    <MediaItem id="89" filePath="C:\Users\ChrisWhong\Desktop\SickWeather\GeoTrails2\commoncold\frames0089.tiff" arWidth="256" arHeight="144" duration="0" songTitle="" songArtist="" songAlbum="" />
    <MediaItem id="90" filePath="C:\Users\ChrisWhong\Desktop\SickWeather\GeoTrails2\commoncold\frames0090.tiff" arWidth="256" arHeight="144" duration="0" songTitle="" songArtist="" songAlbum="" />
    <MediaItem id="91" filePath="C:\Users\ChrisWhong\Desktop\SickWeather\GeoTrails2\commoncold\frames0091.tiff" arWidth="256" arHeight="144" duration="0" songTitle="" songArtist="" songAlbum="" />
    <MediaItem id="92" filePath="C:\Users\ChrisWhong\Desktop\SickWeather\GeoTrails2\commoncold\frames0092.tiff" arWidth="256" arHeight="144" duration="0" songTitle="" songArtist="" songAlbum="" />
    <MediaItem id="93" filePath="C:\Users\ChrisWhong\Desktop\SickWeather\GeoTrails2\commoncold\frames0093.tiff" arWidth="256" arHeight="144" duration="0" songTitle="" songArtist="" songAlbum="" />
    <MediaItem id="94" filePath="C:\Users\ChrisWhong\Desktop\SickWeather\GeoTrails2\commoncold\frames0094.tiff" arWidth="256" arHeight="144" duration="0" songTitle="" songArtist="" songAlbum="" />
    <MediaItem id="95" filePath="C:\Users\ChrisWhong\Desktop\SickWeather\GeoTrails2\commoncold\frames0095.tiff" arWidth="256" arHeight="144" duration="0" songTitle="" songArtist="" songAlbum="" />
    <MediaItem id="96" filePath="C:\Users\ChrisWhong\Desktop\SickWeather\GeoTrails2\commoncold\frames0096.tiff" arWidth="256" arHeight="144" duration="0" songTitle="" songArtist="" songAlbum="" />
    <MediaItem id="97" filePath="C:\Users\ChrisWhong\Desktop\SickWeather\GeoTrails2\commoncold\frames0097.tiff" arWidth="256" arHeight="144" duration="0" songTitle="" songArtist="" songAlbum="" />
    <MediaItem id="98" filePath="C:\Users\ChrisWhong\Desktop\SickWeather\GeoTrails2\commoncold\frames0098.tiff" arWidth="256" arHeight="144" duration="0" songTitle="" songArtist="" songAlbum="" />
    <MediaItem id="99" filePath="C:\Users\ChrisWhong\Desktop\SickWeather\GeoTrails2\commoncold\frames0099.tiff" arWidth="256" arHeight="144" duration="0" songTitle="" songArtist="" songAlbum="" />
    <MediaItem id="100" filePath="C:\Users\ChrisWhong\Desktop\SickWeather\GeoTrails2\commoncold\frames0100.tiff" arWidth="256" arHeight="144" duration="0" songTitle="" songArtist="" songAlbum="" />
    <MediaItem id="101" filePath="C:\Users\ChrisWhong\Desktop\SickWeather\GeoTrails2\commoncold\frames0101.tiff" arWidth="256" arHeight="144" duration="0" songTitle="" songArtist="" songAlbum="" />
    <MediaItem id="102" filePath="C:\Users\ChrisWhong\Desktop\SickWeather\GeoTrails2\commoncold\frames0102.tiff" arWidth="256" arHeight="144" duration="0" songTitle="" songArtist="" songAlbum="" />
    <MediaItem id="103" filePath="C:\Users\ChrisWhong\Desktop\SickWeather\GeoTrails2\commoncold\frames0103.tiff" arWidth="256" arHeight="144" duration="0" songTitle="" songArtist="" songAlbum="" />
    <MediaItem id="104" filePath="C:\Users\ChrisWhong\Desktop\SickWeather\GeoTrails2\commoncold\frames0104.tiff" arWidth="256" arHeight="144" duration="0" songTitle="" songArtist="" songAlbum="" />
    <MediaItem id="105" filePath="C:\Users\ChrisWhong\Desktop\SickWeather\GeoTrails2\commoncold\frames0105.tiff" arWidth="256" arHeight="144" duration="0" songTitle="" songArtist="" songAlbum="" />
    <MediaItem id="106" filePath="C:\Users\ChrisWhong\Desktop\SickWeather\GeoTrails2\commoncold\frames0106.tiff" arWidth="256" arHeight="144" duration="0" songTitle="" songArtist="" songAlbum="" />
    <MediaItem id="107" filePath="C:\Users\ChrisWhong\Desktop\SickWeather\GeoTrails2\commoncold\frames0107.tiff" arWidth="256" arHeight="144" duration="0" songTitle="" songArtist="" songAlbum="" />
    <MediaItem id="108" filePath="C:\Users\ChrisWhong\Desktop\SickWeather\GeoTrails2\commoncold\frames0108.tiff" arWidth="256" arHeight="144" duration="0" songTitle="" songArtist="" songAlbum="" />
    <MediaItem id="109" filePath="C:\Users\ChrisWhong\Desktop\SickWeather\GeoTrails2\commoncold\frames0109.tiff" arWidth="256" arHeight="144" duration="0" songTitle="" songArtist="" songAlbum="" />
    <MediaItem id="110" filePath="C:\Users\ChrisWhong\Desktop\SickWeather\GeoTrails2\commoncold\frames0110.tiff" arWidth="256" arHeight="144" duration="0" songTitle="" songArtist="" songAlbum="" />
    <MediaItem id="111" filePath="C:\Users\ChrisWhong\Desktop\SickWeather\GeoTrails2\commoncold\frames0111.tiff" arWidth="256" arHeight="144" duration="0" songTitle="" songArtist="" songAlbum="" />
    <MediaItem id="112" filePath="C:\Users\ChrisWhong\Desktop\SickWeather\GeoTrails2\commoncold\frames0112.tiff" arWidth="256" arHeight="144" duration="0" songTitle="" songArtist="" songAlbum="" />
    <MediaItem id="113" filePath="C:\Users\ChrisWhong\Desktop\SickWeather\GeoTrails2\commoncold\frames0113.tiff" arWidth="256" arHeight="144" duration="0" songTitle="" songArtist="" songAlbum="" />
    <MediaItem id="114" filePath="C:\Users\ChrisWhong\Desktop\SickWeather\GeoTrails2\commoncold\frames0114.tiff" arWidth="256" arHeight="144" duration="0" songTitle="" songArtist="" songAlbum="" />
    <MediaItem id="115" filePath="C:\Users\ChrisWhong\Desktop\SickWeather\GeoTrails2\commoncold\frames0115.tiff" arWidth="256" arHeight="144" duration="0" songTitle="" songArtist="" songAlbum="" />
    <MediaItem id="116" filePath="C:\Users\ChrisWhong\Desktop\SickWeather\GeoTrails2\commoncold\frames0116.tiff" arWidth="256" arHeight="144" duration="0" songTitle="" songArtist="" songAlbum="" />
    <MediaItem id="117" filePath="C:\Users\ChrisWhong\Desktop\SickWeather\GeoTrails2\commoncold\frames0117.tiff" arWidth="256" arHeight="144" duration="0" songTitle="" songArtist="" songAlbum="" />
    <MediaItem id="118" filePath="C:\Users\ChrisWhong\Desktop\SickWeather\GeoTrails2\commoncold\frames0118.tiff" arWidth="256" arHeight="144" duration="0" songTitle="" songArtist="" songAlbum="" />
    <MediaItem id="119" filePath="C:\Users\ChrisWhong\Desktop\SickWeather\GeoTrails2\commoncold\frames0119.tiff" arWidth="256" arHeight="144" duration="0" songTitle="" songArtist="" songAlbum="" />
    <MediaItem id="120" filePath="C:\Users\ChrisWhong\Desktop\SickWeather\GeoTrails2\commoncold\frames0120.tiff" arWidth="256" arHeight="144" duration="0" songTitle="" songArtist="" songAlbum="" />
    <MediaItem id="121" filePath="C:\Users\ChrisWhong\Desktop\SickWeather\GeoTrails2\commoncold\frames0121.tiff" arWidth="256" arHeight="144" duration="0" songTitle="" songArtist="" songAlbum="" />
    <MediaItem id="122" filePath="C:\Users\ChrisWhong\Desktop\SickWeather\GeoTrails2\commoncold\frames0122.tiff" arWidth="256" arHeight="144" duration="0" songTitle="" songArtist="" songAlbum="" />
    <MediaItem id="123" filePath="C:\Users\ChrisWhong\Desktop\SickWeather\GeoTrails2\commoncold\frames0123.tiff" arWidth="256" arHeight="144" duration="0" songTitle="" songArtist="" songAlbum="" />
    <MediaItem id="124" filePath="C:\Users\ChrisWhong\Desktop\SickWeather\GeoTrails2\commoncold\frames0124.tiff" arWidth="256" arHeight="144" duration="0" songTitle="" songArtist="" songAlbum="" />
    <MediaItem id="125" filePath="C:\Users\ChrisWhong\Desktop\SickWeather\GeoTrails2\commoncold\frames0125.tiff" arWidth="256" arHeight="144" duration="0" songTitle="" songArtist="" songAlbum="" />
    <MediaItem id="126" filePath="C:\Users\ChrisWhong\Desktop\SickWeather\GeoTrails2\commoncold\frames0126.tiff" arWidth="256" arHeight="144" duration="0" songTitle="" songArtist="" songAlbum="" />
    <MediaItem id="127" filePath="C:\Users\ChrisWhong\Desktop\SickWeather\GeoTrails2\commoncold\frames0127.tiff" arWidth="256" arHeight="144" duration="0" songTitle="" songArtist="" songAlbum="" />
    <MediaItem id="128" filePath="C:\Users\ChrisWhong\Desktop\SickWeather\GeoTrails2\commoncold\frames0128.tiff" arWidth="256" arHeight="144" duration="0" songTitle="" songArtist="" songAlbum="" />
    <MediaItem id="129" filePath="C:\Users\ChrisWhong\Desktop\SickWeather\GeoTrails2\commoncold\frames0129.tiff" arWidth="256" arHeight="144" duration="0" songTitle="" songArtist="" songAlbum="" />
    <MediaItem id="130" filePath="C:\Users\ChrisWhong\Desktop\SickWeather\GeoTrails2\commoncold\frames0130.tiff" arWidth="256" arHeight="144" duration="0" songTitle="" songArtist="" songAlbum="" />
    <MediaItem id="131" filePath="C:\Users\ChrisWhong\Desktop\SickWeather\GeoTrails2\commoncold\frames0131.tiff" arWidth="256" arHeight="144" duration="0" songTitle="" songArtist="" songAlbum="" />
    <MediaItem id="132" filePath="C:\Users\ChrisWhong\Desktop\SickWeather\GeoTrails2\commoncold\frames0132.tiff" arWidth="256" arHeight="144" duration="0" songTitle="" songArtist="" songAlbum="" />
    <MediaItem id="133" filePath="C:\Users\ChrisWhong\Desktop\SickWeather\GeoTrails2\commoncold\frames0133.tiff" arWidth="256" arHeight="144" duration="0" songTitle="" songArtist="" songAlbum="" />
    <MediaItem id="134" filePath="C:\Users\ChrisWhong\Desktop\SickWeather\GeoTrails2\commoncold\frames0134.tiff" arWidth="256" arHeight="144" duration="0" songTitle="" songArtist="" songAlbum="" />
    <MediaItem id="135" filePath="C:\Users\ChrisWhong\Desktop\SickWeather\GeoTrails2\commoncold\frames0135.tiff" arWidth="256" arHeight="144" duration="0" songTitle="" songArtist="" songAlbum="" />
    <MediaItem id="136" filePath="C:\Users\ChrisWhong\Desktop\SickWeather\GeoTrails2\commoncold\frames0136.tiff" arWidth="256" arHeight="144" duration="0" songTitle="" songArtist="" songAlbum="" />
    <MediaItem id="137" filePath="C:\Users\ChrisWhong\Desktop\SickWeather\GeoTrails2\commoncold\frames0137.tiff" arWidth="256" arHeight="144" duration="0" songTitle="" songArtist="" songAlbum="" />
    <MediaItem id="138" filePath="C:\Users\ChrisWhong\Desktop\SickWeather\GeoTrails2\commoncold\frames0138.tiff" arWidth="256" arHeight="144" duration="0" songTitle="" songArtist="" songAlbum="" />
    <MediaItem id="139" filePath="C:\Users\ChrisWhong\Desktop\SickWeather\GeoTrails2\commoncold\frames0139.tiff" arWidth="256" arHeight="144" duration="0" songTitle="" songArtist="" songAlbum="" />
    <MediaItem id="140" filePath="C:\Users\ChrisWhong\Desktop\SickWeather\GeoTrails2\commoncold\frames0140.tiff" arWidth="256" arHeight="144" duration="0" songTitle="" songArtist="" songAlbum="" />
    <MediaItem id="141" filePath="C:\Users\ChrisWhong\Desktop\SickWeather\GeoTrails2\commoncold\frames0141.tiff" arWidth="256" arHeight="144" duration="0" songTitle="" songArtist="" songAlbum="" />
    <MediaItem id="142" filePath="C:\Users\ChrisWhong\Desktop\SickWeather\GeoTrails2\commoncold\frames0142.tiff" arWidth="256" arHeight="144" duration="0" songTitle="" songArtist="" songAlbum="" />
    <MediaItem id="143" filePath="C:\Users\ChrisWhong\Desktop\SickWeather\GeoTrails2\commoncold\frames0143.tiff" arWidth="256" arHeight="144" duration="0" songTitle="" songArtist="" songAlbum="" />
    <MediaItem id="144" filePath="C:\Users\ChrisWhong\Desktop\SickWeather\GeoTrails2\commoncold\frames0144.tiff" arWidth="256" arHeight="144" duration="0" songTitle="" songArtist="" songAlbum="" />
    <MediaItem id="145" filePath="C:\Users\ChrisWhong\Desktop\SickWeather\GeoTrails2\commoncold\frames0145.tiff" arWidth="256" arHeight="144" duration="0" songTitle="" songArtist="" songAlbum="" />
    <MediaItem id="146" filePath="C:\Users\ChrisWhong\Desktop\SickWeather\GeoTrails2\commoncold\frames0146.tiff" arWidth="256" arHeight="144" duration="0" songTitle="" songArtist="" songAlbum="" />
    <MediaItem id="147" filePath="C:\Users\ChrisWhong\Desktop\SickWeather\GeoTrails2\commoncold\frames0147.tiff" arWidth="256" arHeight="144" duration="0" songTitle="" songArtist="" songAlbum="" />
    <MediaItem id="148" filePath="C:\Users\ChrisWhong\Desktop\SickWeather\GeoTrails2\commoncold\frames0148.tiff" arWidth="256" arHeight="144" duration="0" songTitle="" songArtist="" songAlbum="" />
    <MediaItem id="149" filePath="C:\Users\ChrisWhong\Desktop\SickWeather\GeoTrails2\commoncold\frames0149.tiff" arWidth="256" arHeight="144" duration="0" songTitle="" songArtist="" songAlbum="" />
    <MediaItem id="150" filePath="C:\Users\ChrisWhong\Desktop\SickWeather\GeoTrails2\commoncold\frames0150.tiff" arWidth="256" arHeight="144" duration="0" songTitle="" songArtist="" songAlbum="" />
    <MediaItem id="151" filePath="C:\Users\ChrisWhong\Desktop\SickWeather\GeoTrails2\commoncold\frames0151.tiff" arWidth="256" arHeight="144" duration="0" songTitle="" songArtist="" songAlbum="" />
    <MediaItem id="152" filePath="C:\Users\ChrisWhong\Desktop\SickWeather\GeoTrails2\commoncold\frames0152.tiff" arWidth="256" arHeight="144" duration="0" songTitle="" songArtist="" songAlbum="" />
    <MediaItem id="153" filePath="C:\Users\ChrisWhong\Desktop\SickWeather\GeoTrails2\commoncold\frames0153.tiff" arWidth="256" arHeight="144" duration="0" songTitle="" songArtist="" songAlbum="" />
    <MediaItem id="154" filePath="C:\Users\ChrisWhong\Desktop\SickWeather\GeoTrails2\commoncold\frames0154.tiff" arWidth="256" arHeight="144" duration="0" songTitle="" songArtist="" songAlbum="" />
    <MediaItem id="155" filePath="C:\Users\ChrisWhong\Desktop\SickWeather\GeoTrails2\commoncold\frames0155.tiff" arWidth="256" arHeight="144" duration="0" songTitle="" songArtist="" songAlbum="" />
    <MediaItem id="156" filePath="C:\Users\ChrisWhong\Desktop\SickWeather\GeoTrails2\commoncold\frames0156.tiff" arWidth="256" arHeight="144" duration="0" songTitle="" songArtist="" songAlbum="" />
    <MediaItem id="157" filePath="C:\Users\ChrisWhong\Desktop\SickWeather\GeoTrails2\commoncold\frames0157.tiff" arWidth="256" arHeight="144" duration="0" songTitle="" songArtist="" songAlbum="" />
    <MediaItem id="158" filePath="C:\Users\ChrisWhong\Desktop\SickWeather\GeoTrails2\commoncold\frames0158.tiff" arWidth="256" arHeight="144" duration="0" songTitle="" songArtist="" songAlbum="" />
    <MediaItem id="159" filePath="C:\Users\ChrisWhong\Desktop\SickWeather\GeoTrails2\commoncold\frames0159.tiff" arWidth="256" arHeight="144" duration="0" songTitle="" songArtist="" songAlbum="" />
    <MediaItem id="160" filePath="C:\Users\ChrisWhong\Desktop\SickWeather\GeoTrails2\commoncold\frames0160.tiff" arWidth="256" arHeight="144" duration="0" songTitle="" songArtist="" songAlbum="" />
    <MediaItem id="161" filePath="C:\Users\ChrisWhong\Desktop\SickWeather\GeoTrails2\commoncold\frames0161.tiff" arWidth="256" arHeight="144" duration="0" songTitle="" songArtist="" songAlbum="" />
    <MediaItem id="162" filePath="C:\Users\ChrisWhong\Desktop\SickWeather\GeoTrails2\commoncold\frames0162.tiff" arWidth="256" arHeight="144" duration="0" songTitle="" songArtist="" songAlbum="" />
    <MediaItem id="163" filePath="C:\Users\ChrisWhong\Desktop\SickWeather\GeoTrails2\commoncold\frames0163.tiff" arWidth="256" arHeight="144" duration="0" songTitle="" songArtist="" songAlbum="" />
    <MediaItem id="164" filePath="C:\Users\ChrisWhong\Desktop\SickWeather\GeoTrails2\commoncold\frames0164.tiff" arWidth="256" arHeight="144" duration="0" songTitle="" songArtist="" songAlbum="" />
    <MediaItem id="165" filePath="C:\Users\ChrisWhong\Desktop\SickWeather\GeoTrails2\commoncold\frames0165.tiff" arWidth="256" arHeight="144" duration="0" songTitle="" songArtist="" songAlbum="" />
    <MediaItem id="166" filePath="C:\Users\ChrisWhong\Desktop\SickWeather\GeoTrails2\commoncold\frames0166.tiff" arWidth="256" arHeight="144" duration="0" songTitle="" songArtist="" songAlbum="" />
    <MediaItem id="167" filePath="C:\Users\ChrisWhong\Desktop\SickWeather\GeoTrails2\commoncold\frames0167.tiff" arWidth="256" arHeight="144" duration="0" songTitle="" songArtist="" songAlbum="" />
    <MediaItem id="168" filePath="C:\Users\ChrisWhong\Desktop\SickWeather\GeoTrails2\commoncold\frames0168.tiff" arWidth="1024" arHeight="576" duration="0" songTitle="" songArtist="" songAlbum="" />
    <MediaItem id="169" filePath="C:\Users\ChrisWhong\Desktop\SickWeather\GeoTrails2\commoncold\frames0169.tiff" arWidth="1024" arHeight="576" duration="0" songTitle="" songArtist="" songAlbum="" />
    <MediaItem id="170" filePath="C:\Users\ChrisWhong\Desktop\SickWeather\GeoTrails2\commoncold\frames0170.tiff" arWidth="1024" arHeight="576" duration="0" songTitle="" songArtist="" songAlbum="" />
    <MediaItem id="171" filePath="C:\Users\ChrisWhong\Desktop\SickWeather\GeoTrails2\commoncold\frames0171.tiff" arWidth="1024" arHeight="576" duration="0" songTitle="" songArtist="" songAlbum="" />
    <MediaItem id="172" filePath="C:\Users\ChrisWhong\Desktop\SickWeather\GeoTrails2\commoncold\frames0172.tiff" arWidth="1024" arHeight="576" duration="0" songTitle="" songArtist="" songAlbum="" />
    <MediaItem id="173" filePath="C:\Users\ChrisWhong\Desktop\SickWeather\GeoTrails2\commoncold\frames0173.tiff" arWidth="1024" arHeight="576" duration="0" songTitle="" songArtist="" songAlbum="" />
    <MediaItem id="174" filePath="C:\Users\ChrisWhong\Desktop\SickWeather\GeoTrails2\commoncold\frames0174.tiff" arWidth="1024" arHeight="576" duration="0" songTitle="" songArtist="" songAlbum="" />
    <MediaItem id="175" filePath="C:\Users\ChrisWhong\Desktop\SickWeather\GeoTrails2\commoncold\frames0175.tiff" arWidth="1024" arHeight="576" duration="0" songTitle="" songArtist="" songAlbum="" />
    <MediaItem id="176" filePath="C:\Users\ChrisWhong\Desktop\SickWeather\GeoTrails2\commoncold\frames0176.tiff" arWidth="1024" arHeight="576" duration="0" songTitle="" songArtist="" songAlbum="" />
    <MediaItem id="177" filePath="C:\Users\ChrisWhong\Desktop\SickWeather\GeoTrails2\commoncold\frames0177.tiff" arWidth="1024" arHeight="576" duration="0" songTitle="" songArtist="" songAlbum="" />
    <MediaItem id="178" filePath="C:\Users\ChrisWhong\Desktop\SickWeather\GeoTrails2\commoncold\frames0178.tiff" arWidth="1024" arHeight="576" duration="0" songTitle="" songArtist="" songAlbum="" />
    <MediaItem id="179" filePath="C:\Users\ChrisWhong\Desktop\SickWeather\GeoTrails2\commoncold\frames0179.tiff" arWidth="1024" arHeight="576" duration="0" songTitle="" songArtist="" songAlbum="" />
    <MediaItem id="180" filePath="C:\Users\ChrisWhong\Desktop\SickWeather\GeoTrails2\commoncold\frames0180.tiff" arWidth="256" arHeight="144" duration="0" songTitle="" songArtist="" songAlbum="" />
    <MediaItem id="181" filePath="C:\Users\ChrisWhong\Desktop\SickWeather\GeoTrails2\commoncold\frames0181.tiff" arWidth="1024" arHeight="576" duration="0" songTitle="" songArtist="" songAlbum="" />
    <MediaItem id="182" filePath="C:\Users\ChrisWhong\Desktop\SickWeather\GeoTrails2\commoncold\frames0182.tiff" arWidth="1024" arHeight="576" duration="0" songTitle="" songArtist="" songAlbum="" />
    <MediaItem id="183" filePath="C:\Users\ChrisWhong\Desktop\SickWeather\GeoTrails2\commoncold\frames0183.tiff" arWidth="1024" arHeight="576" duration="0" songTitle="" songArtist="" songAlbum="" />
    <MediaItem id="184" filePath="C:\Users\ChrisWhong\Desktop\SickWeather\GeoTrails2\commoncold\frames0184.tiff" arWidth="256" arHeight="144" duration="0" songTitle="" songArtist="" songAlbum="" />
    <MediaItem id="185" filePath="C:\Users\ChrisWhong\Desktop\SickWeather\GeoTrails2\commoncold\frames0185.tiff" arWidth="1024" arHeight="576" duration="0" songTitle="" songArtist="" songAlbum="" />
    <MediaItem id="186" filePath="C:\Users\ChrisWhong\Desktop\SickWeather\GeoTrails2\commoncold\frames0186.tiff" arWidth="1024" arHeight="576" duration="0" songTitle="" songArtist="" songAlbum="" />
    <MediaItem id="187" filePath="C:\Users\ChrisWhong\Desktop\SickWeather\GeoTrails2\commoncold\frames0187.tiff" arWidth="256" arHeight="144" duration="0" songTitle="" songArtist="" songAlbum="" />
    <MediaItem id="188" filePath="C:\Users\ChrisWhong\Desktop\SickWeather\GeoTrails2\commoncold\frames0188.tiff" arWidth="1024" arHeight="576" duration="0" songTitle="" songArtist="" songAlbum="" />
    <MediaItem id="189" filePath="C:\Users\ChrisWhong\Desktop\SickWeather\GeoTrails2\commoncold\frames0189.tiff" arWidth="256" arHeight="144" duration="0" songTitle="" songArtist="" songAlbum="" />
    <MediaItem id="190" filePath="C:\Users\ChrisWhong\Desktop\SickWeather\GeoTrails2\commoncold\frames0190.tiff" arWidth="256" arHeight="144" duration="0" songTitle="" songArtist="" songAlbum="" />
    <MediaItem id="191" filePath="C:\Users\ChrisWhong\Desktop\SickWeather\GeoTrails2\commoncold\frames0191.tiff" arWidth="1024" arHeight="576" duration="0" songTitle="" songArtist="" songAlbum="" />
    <MediaItem id="192" filePath="C:\Users\ChrisWhong\Desktop\SickWeather\GeoTrails2\commoncold\frames0192.tiff" arWidth="1024" arHeight="576" duration="0" songTitle="" songArtist="" songAlbum="" />
    <MediaItem id="193" filePath="C:\Users\ChrisWhong\Desktop\SickWeather\GeoTrails2\commoncold\frames0193.tiff" arWidth="1024" arHeight="576" duration="0" songTitle="" songArtist="" songAlbum="" />
    <MediaItem id="194" filePath="C:\Users\ChrisWhong\Desktop\SickWeather\GeoTrails2\commoncold\frames0194.tiff" arWidth="256" arHeight="144" duration="0" songTitle="" songArtist="" songAlbum="" />
    <MediaItem id="195" filePath="C:\Users\ChrisWhong\Desktop\SickWeather\GeoTrails2\commoncold\frames0195.tiff" arWidth="256" arHeight="144" duration="0" songTitle="" songArtist="" songAlbum="" />
    <MediaItem id="196" filePath="C:\Users\ChrisWhong\Desktop\SickWeather\GeoTrails2\commoncold\frames0196.tiff" arWidth="256" arHeight="144" duration="0" songTitle="" songArtist="" songAlbum="" />
    <MediaItem id="197" filePath="C:\Users\ChrisWhong\Desktop\SickWeather\GeoTrails2\commoncold\frames0197.tiff" arWidth="256" arHeight="144" duration="0" songTitle="" songArtist="" songAlbum="" />
    <MediaItem id="198" filePath="C:\Users\ChrisWhong\Desktop\SickWeather\GeoTrails2\commoncold\frames0198.tiff" arWidth="256" arHeight="144" duration="0" songTitle="" songArtist="" songAlbum="" />
    <MediaItem id="199" filePath="C:\Users\ChrisWhong\Desktop\SickWeather\GeoTrails2\commoncold\frames0199.tiff" arWidth="256" arHeight="144" duration="0" songTitle="" songArtist="" songAlbum="" />
    <MediaItem id="200" filePath="C:\Users\ChrisWhong\Desktop\SickWeather\GeoTrails2\commoncold\frames0200.tiff" arWidth="256" arHeight="144" duration="0" songTitle="" songArtist="" songAlbum="" />
    <MediaItem id="201" filePath="C:\Users\ChrisWhong\Desktop\SickWeather\GeoTrails2\commoncold\frames0201.tiff" arWidth="256" arHeight="144" duration="0" songTitle="" songArtist="" songAlbum="" />
    <MediaItem id="202" filePath="C:\Users\ChrisWhong\Desktop\SickWeather\GeoTrails2\commoncold\frames0202.tiff" arWidth="256" arHeight="144" duration="0" songTitle="" songArtist="" songAlbum="" />
    <MediaItem id="203" filePath="C:\Users\ChrisWhong\Desktop\SickWeather\GeoTrails2\commoncold\frames0203.tiff" arWidth="256" arHeight="144" duration="0" songTitle="" songArtist="" songAlbum="" />
    <MediaItem id="204" filePath="C:\Users\ChrisWhong\Desktop\SickWeather\GeoTrails2\commoncold\frames0204.tiff" arWidth="1280" arHeight="720" duration="0" songTitle="" songArtist="" songAlbum="" />
    <MediaItem id="205" filePath="C:\Users\ChrisWhong\Desktop\SickWeather\GeoTrails2\commoncold\frames0205.tiff" arWidth="1280" arHeight="720" duration="0" songTitle="" songArtist="" songAlbum="" />
    <MediaItem id="206" filePath="C:\Users\ChrisWhong\Desktop\SickWeather\GeoTrails2\commoncold\frames0206.tiff" arWidth="1280" arHeight="720" duration="0" songTitle="" songArtist="" songAlbum="" />
    <MediaItem id="207" filePath="C:\Users\ChrisWhong\Desktop\SickWeather\GeoTrails2\commoncold\frames0207.tiff" arWidth="1280" arHeight="720" duration="0" songTitle="" songArtist="" songAlbum="" />
    <MediaItem id="208" filePath="C:\Users\ChrisWhong\Desktop\SickWeather\GeoTrails2\commoncold\frames0208.tiff" arWidth="1280" arHeight="720" duration="0" songTitle="" songArtist="" songAlbum="" />
    <MediaItem id="209" filePath="C:\Users\ChrisWhong\Desktop\SickWeather\GeoTrails2\commoncold\frames0209.tiff" arWidth="1280" arHeight="720" duration="0" songTitle="" songArtist="" songAlbum="" />
    <MediaItem id="210" filePath="C:\Users\ChrisWhong\Desktop\SickWeather\GeoTrails2\commoncold\frames0210.tiff" arWidth="1280" arHeight="720" duration="0" songTitle="" songArtist="" songAlbum="" />
    <MediaItem id="211" filePath="C:\Users\ChrisWhong\Desktop\SickWeather\GeoTrails2\commoncold\frames0211.tiff" arWidth="1280" arHeight="720" duration="0" songTitle="" songArtist="" songAlbum="" />
    <MediaItem id="212" filePath="C:\Users\ChrisWhong\Desktop\SickWeather\GeoTrails2\commoncold\frames0212.tiff" arWidth="1280" arHeight="720" duration="0" songTitle="" songArtist="" songAlbum="" />
    <MediaItem id="213" filePath="C:\Users\ChrisWhong\Desktop\SickWeather\GeoTrails2\commoncold\frames0213.tiff" arWidth="1280" arHeight="720" duration="0" songTitle="" songArtist="" songAlbum="" />
    <MediaItem id="214" filePath="C:\Users\ChrisWhong\Desktop\SickWeather\GeoTrails2\commoncold\frames0214.tiff" arWidth="1280" arHeight="720" duration="0" songTitle="" songArtist="" songAlbum="" />
    <MediaItem id="215" filePath="C:\Users\ChrisWhong\Desktop\SickWeather\GeoTrails2\commoncold\frames0215.tiff" arWidth="1280" arHeight="720" duration="0" songTitle="" songArtist="" songAlbum="" />
    <MediaItem id="216" filePath="C:\Users\ChrisWhong\Desktop\SickWeather\GeoTrails2\commoncold\frames0216.tiff" arWidth="1280" arHeight="720" duration="0" songTitle="" songArtist="" songAlbum="" />
    <MediaItem id="217" filePath="C:\Users\ChrisWhong\Desktop\SickWeather\GeoTrails2\commoncold\frames0217.tiff" arWidth="1280" arHeight="720" duration="0" songTitle="" songArtist="" songAlbum="" />
    <MediaItem id="218" filePath="C:\Users\ChrisWhong\Desktop\SickWeather\GeoTrails2\commoncold\frames0218.tiff" arWidth="1280" arHeight="720" duration="0" songTitle="" songArtist="" songAlbum="" />
    <MediaItem id="219" filePath="C:\Users\ChrisWhong\Desktop\SickWeather\GeoTrails2\commoncold\frames0219.tiff" arWidth="1280" arHeight="720" duration="0" songTitle="" songArtist="" songAlbum="" />
    <MediaItem id="220" filePath="C:\Users\ChrisWhong\Desktop\SickWeather\GeoTrails2\commoncold\frames0220.tiff" arWidth="1280" arHeight="720" duration="0" songTitle="" songArtist="" songAlbum="" />
    <MediaItem id="221" filePath="C:\Users\ChrisWhong\Desktop\SickWeather\GeoTrails2\commoncold\frames0221.tiff" arWidth="1280" arHeight="720" duration="0" songTitle="" songArtist="" songAlbum="" />
    <MediaItem id="222" filePath="C:\Users\ChrisWhong\Desktop\SickWeather\GeoTrails2\commoncold\frames0222.tiff" arWidth="1280" arHeight="720" duration="0" songTitle="" songArtist="" songAlbum="" />
    <MediaItem id="223" filePath="C:\Users\ChrisWhong\Desktop\SickWeather\GeoTrails2\commoncold\frames0223.tiff" arWidth="1280" arHeight="720" duration="0" songTitle="" songArtist="" songAlbum="" />
    <MediaItem id="224" filePath="C:\Users\ChrisWhong\Desktop\SickWeather\GeoTrails2\commoncold\frames0224.tiff" arWidth="1280" arHeight="720" duration="0" songTitle="" songArtist="" songAlbum="" />
    <MediaItem id="225" filePath="C:\Users\ChrisWhong\Desktop\SickWeather\GeoTrails2\commoncold\frames0225.tiff" arWidth="1280" arHeight="720" duration="0" songTitle="" songArtist="" songAlbum="" />
    <MediaItem id="226" filePath="C:\Users\ChrisWhong\Desktop\SickWeather\GeoTrails2\commoncold\frames0226.tiff" arWidth="1280" arHeight="720" duration="0" songTitle="" songArtist="" songAlbum="" />
    <MediaItem id="227" filePath="C:\Users\ChrisWhong\Desktop\SickWeather\GeoTrails2\commoncold\frames0227.tiff" arWidth="1280" arHeight="720" duration="0" songTitle="" songArtist="" songAlbum="" />
    <MediaItem id="228" filePath="C:\Users\ChrisWhong\Desktop\SickWeather\GeoTrails2\commoncold\frames0228.tiff" arWidth="1280" arHeight="720" duration="0" songTitle="" songArtist="" songAlbum="" />
    <MediaItem id="229" filePath="C:\Users\ChrisWhong\Desktop\SickWeather\GeoTrails2\commoncold\frames0229.tiff" arWidth="1280" arHeight="720" duration="0" songTitle="" songArtist="" songAlbum="" />
    <MediaItem id="230" filePath="C:\Users\ChrisWhong\Desktop\SickWeather\GeoTrails2\commoncold\frames0230.tiff" arWidth="1280" arHeight="720" duration="0" songTitle="" songArtist="" songAlbum="" />
    <MediaItem id="231" filePath="C:\Users\ChrisWhong\Desktop\SickWeather\GeoTrails2\commoncold\frames0231.tiff" arWidth="1280" arHeight="720" duration="0" songTitle="" songArtist="" songAlbum="" />
    <MediaItem id="232" filePath="C:\Users\ChrisWhong\Desktop\SickWeather\GeoTrails2\commoncold\frames0232.tiff" arWidth="1280" arHeight="720" duration="0" songTitle="" songArtist="" songAlbum="" />
    <MediaItem id="233" filePath="C:\Users\ChrisWhong\Desktop\SickWeather\GeoTrails2\commoncold\frames0233.tiff" arWidth="1280" arHeight="720" duration="0" songTitle="" songArtist="" songAlbum="" />
    <MediaItem id="234" filePath="C:\Users\ChrisWhong\Desktop\SickWeather\GeoTrails2\commoncold\frames0234.tiff" arWidth="1280" arHeight="720" duration="0" songTitle="" songArtist="" songAlbum="" />
    <MediaItem id="235" filePath="C:\Users\ChrisWhong\Desktop\SickWeather\GeoTrails2\commoncold\frames0235.tiff" arWidth="1280" arHeight="720" duration="0" songTitle="" songArtist="" songAlbum="" />
    <MediaItem id="236" filePath="C:\Users\ChrisWhong\Desktop\SickWeather\GeoTrails2\commoncold\frames0236.tiff" arWidth="1280" arHeight="720" duration="0" songTitle="" songArtist="" songAlbum="" />
    <MediaItem id="237" filePath="C:\Users\ChrisWhong\Desktop\SickWeather\GeoTrails2\commoncold\frames0237.tiff" arWidth="1280" arHeight="720" duration="0" songTitle="" songArtist="" songAlbum="" />
    <MediaItem id="238" filePath="C:\Users\ChrisWhong\Desktop\SickWeather\GeoTrails2\commoncold\frames0238.tiff" arWidth="1280" arHeight="720" duration="0" songTitle="" songArtist="" songAlbum="" />
    <MediaItem id="239" filePath="C:\Users\ChrisWhong\Desktop\SickWeather\GeoTrails2\commoncold\frames0239.tiff" arWidth="1280" arHeight="720" duration="0" songTitle="" songArtist="" songAlbum="" />
    <MediaItem id="240" filePath="C:\Users\ChrisWhong\Desktop\SickWeather\GeoTrails2\commoncold\frames0240.tiff" arWidth="1280" arHeight="720" duration="0" songTitle="" songArtist="" songAlbum="" />
    <MediaItem id="241" filePath="C:\Users\ChrisWhong\Desktop\SickWeather\GeoTrails2\commoncold\frames0241.tiff" arWidth="1280" arHeight="720" duration="0" songTitle="" songArtist="" songAlbum="" />
    <MediaItem id="242" filePath="C:\Users\ChrisWhong\Desktop\SickWeather\GeoTrails2\commoncold\frames0242.tiff" arWidth="1280" arHeight="720" duration="0" songTitle="" songArtist="" songAlbum="" />
    <MediaItem id="243" filePath="C:\Users\ChrisWhong\Desktop\SickWeather\GeoTrails2\commoncold\frames0243.tiff" arWidth="1280" arHeight="720" duration="0" songTitle="" songArtist="" songAlbum="" />
    <MediaItem id="244" filePath="C:\Users\ChrisWhong\Desktop\SickWeather\GeoTrails2\commoncold\frames0244.tiff" arWidth="1280" arHeight="720" duration="0" songTitle="" songArtist="" songAlbum="" />
    <MediaItem id="245" filePath="C:\Users\ChrisWhong\Desktop\SickWeather\GeoTrails2\commoncold\frames0245.tiff" arWidth="1280" arHeight="720" duration="0" songTitle="" songArtist="" songAlbum="" />
    <MediaItem id="246" filePath="C:\Users\ChrisWhong\Desktop\SickWeather\GeoTrails2\commoncold\frames0246.tiff" arWidth="1280" arHeight="720" duration="0" songTitle="" songArtist="" songAlbum="" />
    <MediaItem id="247" filePath="C:\Users\ChrisWhong\Desktop\SickWeather\GeoTrails2\commoncold\frames0247.tiff" arWidth="1280" arHeight="720" duration="0" songTitle="" songArtist="" songAlbum="" />
    <MediaItem id="248" filePath="C:\Users\ChrisWhong\Desktop\SickWeather\GeoTrails2\commoncold\frames0248.tiff" arWidth="1280" arHeight="720" duration="0" songTitle="" songArtist="" songAlbum="" />
    <MediaItem id="249" filePath="C:\Users\ChrisWhong\Desktop\SickWeather\GeoTrails2\commoncold\frames0249.tiff" arWidth="1280" arHeight="720" duration="0" songTitle="" songArtist="" songAlbum="" />
    <MediaItem id="250" filePath="C:\Users\ChrisWhong\Desktop\SickWeather\GeoTrails2\commoncold\frames0250.tiff" arWidth="1280" arHeight="720" duration="0" songTitle="" songArtist="" songAlbum="" />
    <MediaItem id="251" filePath="C:\Users\ChrisWhong\Desktop\SickWeather\GeoTrails2\commoncold\frames0251.tiff" arWidth="1280" arHeight="720" duration="0" songTitle="" songArtist="" songAlbum="" />
    <MediaItem id="252" filePath="C:\Users\ChrisWhong\Desktop\SickWeather\GeoTrails2\commoncold\frames0252.tiff" arWidth="1280" arHeight="720" duration="0" songTitle="" songArtist="" songAlbum="" />
    <MediaItem id="253" filePath="C:\Users\ChrisWhong\Desktop\SickWeather\GeoTrails2\commoncold\frames0253.tiff" arWidth="1280" arHeight="720" duration="0" songTitle="" songArtist="" songAlbum="" />
    <MediaItem id="254" filePath="C:\Users\ChrisWhong\Desktop\SickWeather\GeoTrails2\commoncold\frames0254.tiff" arWidth="1280" arHeight="720" duration="0" songTitle="" songArtist="" songAlbum="" />
    <MediaItem id="255" filePath="C:\Users\ChrisWhong\Desktop\SickWeather\GeoTrails2\commoncold\frames0255.tiff" arWidth="1280" arHeight="720" duration="0" songTitle="" songArtist="" songAlbum="" />
    <MediaItem id="256" filePath="C:\Users\ChrisWhong\Desktop\SickWeather\GeoTrails2\commoncold\frames0256.tiff" arWidth="1280" arHeight="720" duration="0" songTitle="" songArtist="" songAlbum="" />
    <MediaItem id="257" filePath="C:\Users\ChrisWhong\Desktop\SickWeather\GeoTrails2\commoncold\frames0257.tiff" arWidth="1280" arHeight="720" duration="0" songTitle="" songArtist="" songAlbum="" />
    <MediaItem id="258" filePath="C:\Users\ChrisWhong\Desktop\SickWeather\GeoTrails2\commoncold\frames0258.tiff" arWidth="1280" arHeight="720" duration="0" songTitle="" songArtist="" songAlbum="" />
    <MediaItem id="259" filePath="C:\Users\ChrisWhong\Desktop\SickWeather\GeoTrails2\commoncold\frames0259.tiff" arWidth="1280" arHeight="720" duration="0" songTitle="" songArtist="" songAlbum="" />
    <MediaItem id="260" filePath="C:\Users\ChrisWhong\Desktop\SickWeather\GeoTrails2\commoncold\frames0260.tiff" arWidth="1280" arHeight="720" duration="0" songTitle="" songArtist="" songAlbum="" />
    <MediaItem id="261" filePath="C:\Users\ChrisWhong\Desktop\SickWeather\GeoTrails2\commoncold\frames0261.tiff" arWidth="1280" arHeight="720" duration="0" songTitle="" songArtist="" songAlbum="" />
    <MediaItem id="262" filePath="C:\Users\ChrisWhong\Desktop\SickWeather\GeoTrails2\commoncold\frames0262.tiff" arWidth="1280" arHeight="720" duration="0" songTitle="" songArtist="" songAlbum="" />
    <MediaItem id="263" filePath="C:\Users\ChrisWhong\Desktop\SickWeather\GeoTrails2\commoncold\frames0263.tiff" arWidth="1280" arHeight="720" duration="0" songTitle="" songArtist="" songAlbum="" />
    <MediaItem id="264" filePath="C:\Users\ChrisWhong\Desktop\SickWeather\GeoTrails2\commoncold\frames0264.tiff" arWidth="1280" arHeight="720" duration="0" songTitle="" songArtist="" songAlbum="" />
    <MediaItem id="265" filePath="C:\Users\ChrisWhong\Desktop\SickWeather\GeoTrails2\commoncold\frames0265.tiff" arWidth="1280" arHeight="720" duration="0" songTitle="" songArtist="" songAlbum="" />
    <MediaItem id="266" filePath="C:\Users\ChrisWhong\Desktop\SickWeather\GeoTrails2\commoncold\frames0266.tiff" arWidth="1280" arHeight="720" duration="0" songTitle="" songArtist="" songAlbum="" />
    <MediaItem id="267" filePath="C:\Users\ChrisWhong\Desktop\SickWeather\GeoTrails2\commoncold\frames0267.tiff" arWidth="1280" arHeight="720" duration="0" songTitle="" songArtist="" songAlbum="" />
    <MediaItem id="268" filePath="C:\Users\ChrisWhong\Desktop\SickWeather\GeoTrails2\commoncold\frames0268.tiff" arWidth="1280" arHeight="720" duration="0" songTitle="" songArtist="" songAlbum="" />
    <MediaItem id="269" filePath="C:\Users\ChrisWhong\Desktop\SickWeather\GeoTrails2\commoncold\frames0269.tiff" arWidth="1280" arHeight="720" duration="0" songTitle="" songArtist="" songAlbum="" />
    <MediaItem id="270" filePath="C:\Users\ChrisWhong\Desktop\SickWeather\GeoTrails2\commoncold\frames0270.tiff" arWidth="1280" arHeight="720" duration="0" songTitle="" songArtist="" songAlbum="" />
    <MediaItem id="271" filePath="C:\Users\ChrisWhong\Desktop\SickWeather\GeoTrails2\commoncold\frames0271.tiff" arWidth="1280" arHeight="720" duration="0" songTitle="" songArtist="" songAlbum="" />
    <MediaItem id="272" filePath="C:\Users\ChrisWhong\Desktop\SickWeather\GeoTrails2\commoncold\frames0272.tiff" arWidth="1280" arHeight="720" duration="0" songTitle="" songArtist="" songAlbum="" />
    <MediaItem id="273" filePath="C:\Users\ChrisWhong\Desktop\SickWeather\GeoTrails2\commoncold\frames0273.tiff" arWidth="1280" arHeight="720" duration="0" songTitle="" songArtist="" songAlbum="" />
    <MediaItem id="274" filePath="C:\Users\ChrisWhong\Desktop\SickWeather\GeoTrails2\commoncold\frames0274.tiff" arWidth="1280" arHeight="720" duration="0" songTitle="" songArtist="" songAlbum="" />
    <MediaItem id="275" filePath="C:\Users\ChrisWhong\Desktop\SickWeather\GeoTrails2\commoncold\frames0275.tiff" arWidth="1280" arHeight="720" duration="0" songTitle="" songArtist="" songAlbum="" />
    <MediaItem id="276" filePath="C:\Users\ChrisWhong\Desktop\SickWeather\GeoTrails2\commoncold\frames0276.tiff" arWidth="1280" arHeight="720" duration="0" songTitle="" songArtist="" songAlbum="" />
    <MediaItem id="277" filePath="C:\Users\ChrisWhong\Desktop\SickWeather\GeoTrails2\commoncold\frames0277.tiff" arWidth="1280" arHeight="720" duration="0" songTitle="" songArtist="" songAlbum="" />
    <MediaItem id="278" filePath="C:\Users\ChrisWhong\Desktop\SickWeather\GeoTrails2\commoncold\frames0278.tiff" arWidth="1280" arHeight="720" duration="0" songTitle="" songArtist="" songAlbum="" />
    <MediaItem id="279" filePath="C:\Users\ChrisWhong\Desktop\SickWeather\GeoTrails2\commoncold\frames0279.tiff" arWidth="1280" arHeight="720" duration="0" songTitle="" songArtist="" songAlbum="" />
    <MediaItem id="280" filePath="C:\Users\ChrisWhong\Desktop\SickWeather\GeoTrails2\commoncold\frames0280.tiff" arWidth="1280" arHeight="720" duration="0" songTitle="" songArtist="" songAlbum="" />
    <MediaItem id="281" filePath="C:\Users\ChrisWhong\Desktop\SickWeather\GeoTrails2\commoncold\frames0281.tiff" arWidth="1280" arHeight="720" duration="0" songTitle="" songArtist="" songAlbum="" />
    <MediaItem id="282" filePath="C:\Users\ChrisWhong\Desktop\SickWeather\GeoTrails2\commoncold\frames0282.tiff" arWidth="1280" arHeight="720" duration="0" songTitle="" songArtist="" songAlbum="" />
    <MediaItem id="283" filePath="C:\Users\ChrisWhong\Desktop\SickWeather\GeoTrails2\commoncold\frames0283.tiff" arWidth="1280" arHeight="720" duration="0" songTitle="" songArtist="" songAlbum="" />
    <MediaItem id="284" filePath="C:\Users\ChrisWhong\Desktop\SickWeather\GeoTrails2\commoncold\frames0284.tiff" arWidth="1280" arHeight="720" duration="0" songTitle="" songArtist="" songAlbum="" />
    <MediaItem id="285" filePath="C:\Users\ChrisWhong\Desktop\SickWeather\GeoTrails2\commoncold\frames0285.tiff" arWidth="1280" arHeight="720" duration="0" songTitle="" songArtist="" songAlbum="" />
    <MediaItem id="286" filePath="C:\Users\ChrisWhong\Desktop\SickWeather\GeoTrails2\commoncold\frames0286.tiff" arWidth="1280" arHeight="720" duration="0" songTitle="" songArtist="" songAlbum="" />
    <MediaItem id="287" filePath="C:\Users\ChrisWhong\Desktop\SickWeather\GeoTrails2\commoncold\frames0287.tiff" arWidth="1280" arHeight="720" duration="0" songTitle="" songArtist="" songAlbum="" />
    <MediaItem id="288" filePath="C:\Users\ChrisWhong\Desktop\SickWeather\GeoTrails2\commoncold\frames0288.tiff" arWidth="1280" arHeight="720" duration="0" songTitle="" songArtist="" songAlbum="" />
    <MediaItem id="289" filePath="C:\Users\ChrisWhong\Desktop\SickWeather\GeoTrails2\commoncold\frames0289.tiff" arWidth="1280" arHeight="720" duration="0" songTitle="" songArtist="" songAlbum="" />
    <MediaItem id="290" filePath="C:\Users\ChrisWhong\Desktop\SickWeather\GeoTrails2\commoncold\frames0290.tiff" arWidth="1280" arHeight="720" duration="0" songTitle="" songArtist="" songAlbum="" />
    <MediaItem id="291" filePath="C:\Users\ChrisWhong\Desktop\SickWeather\GeoTrails2\commoncold\frames0291.tiff" arWidth="1280" arHeight="720" duration="0" songTitle="" songArtist="" songAlbum="" />
    <MediaItem id="292" filePath="C:\Users\ChrisWhong\Desktop\SickWeather\GeoTrails2\commoncold\frames0292.tiff" arWidth="1280" arHeight="720" duration="0" songTitle="" songArtist="" songAlbum="" />
    <MediaItem id="293" filePath="C:\Users\ChrisWhong\Desktop\SickWeather\GeoTrails2\commoncold\frames0293.tiff" arWidth="1280" arHeight="720" duration="0" songTitle="" songArtist="" songAlbum="" />
    <MediaItem id="294" filePath="C:\Users\ChrisWhong\Desktop\SickWeather\GeoTrails2\commoncold\frames0294.tiff" arWidth="1280" arHeight="720" duration="0" songTitle="" songArtist="" songAlbum="" />
    <MediaItem id="295" filePath="C:\Users\ChrisWhong\Desktop\SickWeather\GeoTrails2\commoncold\frames0295.tiff" arWidth="1280" arHeight="720" duration="0" songTitle="" songArtist="" songAlbum="" />
    <MediaItem id="296" filePath="C:\Users\ChrisWhong\Desktop\SickWeather\GeoTrails2\commoncold\frames0296.tiff" arWidth="1280" arHeight="720" duration="0" songTitle="" songArtist="" songAlbum="" />
    <MediaItem id="297" filePath="C:\Users\ChrisWhong\Desktop\SickWeather\GeoTrails2\commoncold\frames0297.tiff" arWidth="1280" arHeight="720" duration="0" songTitle="" songArtist="" songAlbum="" />
    <MediaItem id="298" filePath="C:\Users\ChrisWhong\Desktop\SickWeather\GeoTrails2\commoncold\frames0298.tiff" arWidth="1280" arHeight="720" duration="0" songTitle="" songArtist="" songAlbum="" />
    <MediaItem id="299" filePath="C:\Users\ChrisWhong\Desktop\SickWeather\GeoTrails2\commoncold\frames0299.tiff" arWidth="1280" arHeight="720" duration="0" songTitle="" songArtist="" songAlbum="" />
    <MediaItem id="300" filePath="C:\Users\ChrisWhong\Desktop\SickWeather\GeoTrails2\commoncold\frames0300.tiff" arWidth="1280" arHeight="720" duration="0" songTitle="" songArtist="" songAlbum="" />
    <MediaItem id="301" filePath="C:\Users\ChrisWhong\Desktop\SickWeather\GeoTrails2\commoncold\frames0301.tiff" arWidth="1280" arHeight="720" duration="0" songTitle="" songArtist="" songAlbum="" />
    <MediaItem id="302" filePath="C:\Users\ChrisWhong\Desktop\SickWeather\GeoTrails2\commoncold\frames0302.tiff" arWidth="1280" arHeight="720" duration="0" songTitle="" songArtist="" songAlbum="" />
    <MediaItem id="303" filePath="C:\Users\ChrisWhong\Desktop\SickWeather\GeoTrails2\commoncold\frames0303.tiff" arWidth="1280" arHeight="720" duration="0" songTitle="" songArtist="" songAlbum="" />
    <MediaItem id="304" filePath="C:\Users\ChrisWhong\Desktop\SickWeather\GeoTrails2\commoncold\frames0304.tiff" arWidth="1280" arHeight="720" duration="0" songTitle="" songArtist="" songAlbum="" />
    <MediaItem id="305" filePath="C:\Users\ChrisWhong\Desktop\SickWeather\GeoTrails2\commoncold\frames0305.tiff" arWidth="1280" arHeight="720" duration="0" songTitle="" songArtist="" songAlbum="" />
    <MediaItem id="306" filePath="C:\Users\ChrisWhong\Desktop\SickWeather\GeoTrails2\commoncold\frames0306.tiff" arWidth="1280" arHeight="720" duration="0" songTitle="" songArtist="" songAlbum="" />
    <MediaItem id="307" filePath="C:\Users\ChrisWhong\Desktop\SickWeather\GeoTrails2\commoncold\frames0307.tiff" arWidth="1280" arHeight="720" duration="0" songTitle="" songArtist="" songAlbum="" />
    <MediaItem id="308" filePath="C:\Users\ChrisWhong\Desktop\SickWeather\GeoTrails2\commoncold\frames0308.tiff" arWidth="1280" arHeight="720" duration="0" songTitle="" songArtist="" songAlbum="" />
    <MediaItem id="309" filePath="C:\Users\ChrisWhong\Desktop\SickWeather\GeoTrails2\commoncold\frames0309.tiff" arWidth="1280" arHeight="720" duration="0" songTitle="" songArtist="" songAlbum="" />
    <MediaItem id="310" filePath="C:\Users\ChrisWhong\Desktop\SickWeather\GeoTrails2\commoncold\frames0310.tiff" arWidth="1280" arHeight="720" duration="0" songTitle="" songArtist="" songAlbum="" />
    <MediaItem id="311" filePath="C:\Users\ChrisWhong\Desktop\SickWeather\GeoTrails2\commoncold\frames0311.tiff" arWidth="1280" arHeight="720" duration="0" songTitle="" songArtist="" songAlbum="" />
    <MediaItem id="312" filePath="C:\Users\ChrisWhong\Desktop\SickWeather\GeoTrails2\commoncold\frames0312.tiff" arWidth="1280" arHeight="720" duration="0" songTitle="" songArtist="" songAlbum="" />
    <MediaItem id="313" filePath="C:\Users\ChrisWhong\Desktop\SickWeather\GeoTrails2\commoncold\frames0313.tiff" arWidth="1280" arHeight="720" duration="0" songTitle="" songArtist="" songAlbum="" />
    <MediaItem id="314" filePath="C:\Users\ChrisWhong\Desktop\SickWeather\GeoTrails2\commoncold\frames0314.tiff" arWidth="1280" arHeight="720" duration="0" songTitle="" songArtist="" songAlbum="" />
    <MediaItem id="315" filePath="C:\Users\ChrisWhong\Desktop\SickWeather\GeoTrails2\commoncold\frames0315.tiff" arWidth="1280" arHeight="720" duration="0" songTitle="" songArtist="" songAlbum="" />
    <MediaItem id="316" filePath="C:\Users\ChrisWhong\Desktop\SickWeather\GeoTrails2\commoncold\frames0316.tiff" arWidth="1280" arHeight="720" duration="0" songTitle="" songArtist="" songAlbum="" />
    <MediaItem id="317" filePath="C:\Users\ChrisWhong\Desktop\SickWeather\GeoTrails2\commoncold\frames0317.tiff" arWidth="1280" arHeight="720" duration="0" songTitle="" songArtist="" songAlbum="" />
    <MediaItem id="318" filePath="C:\Users\ChrisWhong\Desktop\SickWeather\GeoTrails2\commoncold\frames0318.tiff" arWidth="1280" arHeight="720" duration="0" songTitle="" songArtist="" songAlbum="" />
    <MediaItem id="319" filePath="C:\Users\ChrisWhong\Desktop\SickWeather\GeoTrails2\commoncold\frames0319.tiff" arWidth="1280" arHeight="720" duration="0" songTitle="" songArtist="" songAlbum="" />
    <MediaItem id="320" filePath="C:\Users\ChrisWhong\Desktop\SickWeather\GeoTrails2\commoncold\frames0320.tiff" arWidth="1280" arHeight="720" duration="0" songTitle="" songArtist="" songAlbum="" />
    <MediaItem id="321" filePath="C:\Users\ChrisWhong\Desktop\SickWeather\GeoTrails2\commoncold\frames0321.tiff" arWidth="1280" arHeight="720" duration="0" songTitle="" songArtist="" songAlbum="" />
    <MediaItem id="322" filePath="C:\Users\ChrisWhong\Desktop\SickWeather\GeoTrails2\commoncold\frames0322.tiff" arWidth="1280" arHeight="720" duration="0" songTitle="" songArtist="" songAlbum="" />
    <MediaItem id="323" filePath="C:\Users\ChrisWhong\Desktop\SickWeather\GeoTrails2\commoncold\frames0323.tiff" arWidth="1280" arHeight="720" duration="0" songTitle="" songArtist="" songAlbum="" />
    <MediaItem id="324" filePath="C:\Users\ChrisWhong\Desktop\SickWeather\GeoTrails2\commoncold\frames0324.tiff" arWidth="1280" arHeight="720" duration="0" songTitle="" songArtist="" songAlbum="" />
    <MediaItem id="325" filePath="C:\Users\ChrisWhong\Desktop\SickWeather\GeoTrails2\commoncold\frames0325.tiff" arWidth="1280" arHeight="720" duration="0" songTitle="" songArtist="" songAlbum="" />
    <MediaItem id="326" filePath="C:\Users\ChrisWhong\Desktop\SickWeather\GeoTrails2\commoncold\frames0326.tiff" arWidth="1280" arHeight="720" duration="0" songTitle="" songArtist="" songAlbum="" />
    <MediaItem id="327" filePath="C:\Users\ChrisWhong\Desktop\SickWeather\GeoTrails2\commoncold\frames0327.tiff" arWidth="1280" arHeight="720" duration="0" songTitle="" songArtist="" songAlbum="" />
    <MediaItem id="328" filePath="C:\Users\ChrisWhong\Desktop\SickWeather\GeoTrails2\commoncold\frames0328.tiff" arWidth="1280" arHeight="720" duration="0" songTitle="" songArtist="" songAlbum="" />
    <MediaItem id="329" filePath="C:\Users\ChrisWhong\Desktop\SickWeather\GeoTrails2\commoncold\frames0329.tiff" arWidth="1280" arHeight="720" duration="0" songTitle="" songArtist="" songAlbum="" />
    <MediaItem id="330" filePath="C:\Users\ChrisWhong\Desktop\SickWeather\GeoTrails2\commoncold\frames0330.tiff" arWidth="1280" arHeight="720" duration="0" songTitle="" songArtist="" songAlbum="" />
    <MediaItem id="331" filePath="C:\Users\ChrisWhong\Desktop\SickWeather\GeoTrails2\commoncold\frames0331.tiff" arWidth="1280" arHeight="720" duration="0" songTitle="" songArtist="" songAlbum="" />
    <MediaItem id="332" filePath="C:\Users\ChrisWhong\Desktop\SickWeather\GeoTrails2\commoncold\frames0332.tiff" arWidth="1280" arHeight="720" duration="0" songTitle="" songArtist="" songAlbum="" />
    <MediaItem id="333" filePath="C:\Users\ChrisWhong\Desktop\SickWeather\GeoTrails2\commoncold\frames0333.tiff" arWidth="1280" arHeight="720" duration="0" songTitle="" songArtist="" songAlbum="" />
    <MediaItem id="334" filePath="C:\Users\ChrisWhong\Desktop\SickWeather\GeoTrails2\commoncold\frames0334.tiff" arWidth="1280" arHeight="720" duration="0" songTitle="" songArtist="" songAlbum="" />
    <MediaItem id="335" filePath="C:\Users\ChrisWhong\Desktop\SickWeather\GeoTrails2\commoncold\frames0335.tiff" arWidth="1280" arHeight="720" duration="0" songTitle="" songArtist="" songAlbum="" />
    <MediaItem id="336" filePath="C:\Users\ChrisWhong\Desktop\SickWeather\GeoTrails2\commoncold\frames0336.tiff" arWidth="1280" arHeight="720" duration="0" songTitle="" songArtist="" songAlbum="" />
    <MediaItem id="337" filePath="C:\Users\ChrisWhong\Desktop\SickWeather\GeoTrails2\commoncold\frames0337.tiff" arWidth="1280" arHeight="720" duration="0" songTitle="" songArtist="" songAlbum="" />
    <MediaItem id="338" filePath="C:\Users\ChrisWhong\Desktop\SickWeather\GeoTrails2\commoncold\frames0338.tiff" arWidth="1280" arHeight="720" duration="0" songTitle="" songArtist="" songAlbum="" />
    <MediaItem id="339" filePath="C:\Users\ChrisWhong\Desktop\SickWeather\GeoTrails2\commoncold\frames0339.tiff" arWidth="1280" arHeight="720" duration="0" songTitle="" songArtist="" songAlbum="" />
    <MediaItem id="340" filePath="C:\Users\ChrisWhong\Desktop\SickWeather\GeoTrails2\commoncold\frames0340.tiff" arWidth="1280" arHeight="720" duration="0" songTitle="" songArtist="" songAlbum="" />
    <MediaItem id="341" filePath="C:\Users\ChrisWhong\Desktop\SickWeather\GeoTrails2\commoncold\frames0341.tiff" arWidth="1280" arHeight="720" duration="0" songTitle="" songArtist="" songAlbum="" />
    <MediaItem id="342" filePath="C:\Users\ChrisWhong\Desktop\SickWeather\GeoTrails2\commoncold\frames0342.tiff" arWidth="1280" arHeight="720" duration="0" songTitle="" songArtist="" songAlbum="" />
    <MediaItem id="343" filePath="C:\Users\ChrisWhong\Desktop\SickWeather\GeoTrails2\commoncold\frames0343.tiff" arWidth="1280" arHeight="720" duration="0" songTitle="" songArtist="" songAlbum="" />
    <MediaItem id="344" filePath="C:\Users\ChrisWhong\Desktop\SickWeather\GeoTrails2\commoncold\frames0344.tiff" arWidth="1280" arHeight="720" duration="0" songTitle="" songArtist="" songAlbum="" />
    <MediaItem id="345" filePath="C:\Users\ChrisWhong\Desktop\SickWeather\GeoTrails2\commoncold\frames0345.tiff" arWidth="1280" arHeight="720" duration="0" songTitle="" songArtist="" songAlbum="" />
    <MediaItem id="346" filePath="C:\Users\ChrisWhong\Desktop\SickWeather\GeoTrails2\commoncold\frames0346.tiff" arWidth="1280" arHeight="720" duration="0" songTitle="" songArtist="" songAlbum="" />
    <MediaItem id="347" filePath="C:\Users\ChrisWhong\Desktop\SickWeather\GeoTrails2\commoncold\frames0347.tiff" arWidth="1280" arHeight="720" duration="0" songTitle="" songArtist="" songAlbum="" />
    <MediaItem id="348" filePath="C:\Users\ChrisWhong\Desktop\SickWeather\GeoTrails2\commoncold\frames0348.tiff" arWidth="1280" arHeight="720" duration="0" songTitle="" songArtist="" songAlbum="" />
    <MediaItem id="349" filePath="C:\Users\ChrisWhong\Desktop\SickWeather\GeoTrails2\commoncold\frames0349.tiff" arWidth="1280" arHeight="720" duration="0" songTitle="" songArtist="" songAlbum="" />
    <MediaItem id="350" filePath="C:\Users\ChrisWhong\Desktop\SickWeather\GeoTrails2\commoncold\frames0350.tiff" arWidth="1280" arHeight="720" duration="0" songTitle="" songArtist="" songAlbum="" />
    <MediaItem id="351" filePath="C:\Users\ChrisWhong\Desktop\SickWeather\GeoTrails2\commoncold\frames0351.tiff" arWidth="1280" arHeight="720" duration="0" songTitle="" songArtist="" songAlbum="" />
    <MediaItem id="352" filePath="C:\Users\ChrisWhong\Desktop\SickWeather\GeoTrails2\commoncold\frames0352.tiff" arWidth="1280" arHeight="720" duration="0" songTitle="" songArtist="" songAlbum="" />
    <MediaItem id="353" filePath="C:\Users\ChrisWhong\Desktop\SickWeather\GeoTrails2\commoncold\frames0353.tiff" arWidth="1280" arHeight="720" duration="0" songTitle="" songArtist="" songAlbum="" />
    <MediaItem id="354" filePath="C:\Users\ChrisWhong\Desktop\SickWeather\GeoTrails2\commoncold\frames0354.tiff" arWidth="1280" arHeight="720" duration="0" songTitle="" songArtist="" songAlbum="" />
    <MediaItem id="355" filePath="C:\Users\ChrisWhong\Desktop\SickWeather\GeoTrails2\commoncold\frames0355.tiff" arWidth="1280" arHeight="720" duration="0" songTitle="" songArtist="" songAlbum="" />
    <MediaItem id="356" filePath="C:\Users\ChrisWhong\Desktop\SickWeather\GeoTrails2\commoncold\frames0356.tiff" arWidth="1280" arHeight="720" duration="0" songTitle="" songArtist="" songAlbum="" />
    <MediaItem id="357" filePath="C:\Users\ChrisWhong\Desktop\SickWeather\GeoTrails2\commoncold\frames0357.tiff" arWidth="1280" arHeight="720" duration="0" songTitle="" songArtist="" songAlbum="" />
    <MediaItem id="358" filePath="C:\Users\ChrisWhong\Desktop\SickWeather\GeoTrails2\commoncold\frames0358.tiff" arWidth="1280" arHeight="720" duration="0" songTitle="" songArtist="" songAlbum="" />
    <MediaItem id="359" filePath="C:\Users\ChrisWhong\Desktop\SickWeather\GeoTrails2\commoncold\frames0359.tiff" arWidth="1280" arHeight="720" duration="0" songTitle="" songArtist="" songAlbum="" />
    <MediaItem id="360" filePath="C:\Users\ChrisWhong\Desktop\SickWeather\GeoTrails2\commoncold\frames0360.tiff" arWidth="1280" arHeight="720" duration="0" songTitle="" songArtist="" songAlbum="" />
    <MediaItem id="361" filePath="C:\Users\ChrisWhong\Desktop\SickWeather\GeoTrails2\commoncold\frames0361.tiff" arWidth="1280" arHeight="720" duration="0" songTitle="" songArtist="" songAlbum="" />
    <MediaItem id="362" filePath="C:\Users\ChrisWhong\Desktop\SickWeather\GeoTrails2\commoncold\frames0362.tiff" arWidth="1280" arHeight="720" duration="0" songTitle="" songArtist="" songAlbum="" />
    <MediaItem id="363" filePath="C:\Users\ChrisWhong\Desktop\SickWeather\GeoTrails2\commoncold\frames0363.tiff" arWidth="1280" arHeight="720" duration="0" songTitle="" songArtist="" songAlbum="" />
    <MediaItem id="364" filePath="C:\Users\ChrisWhong\Desktop\SickWeather\GeoTrails2\commoncold\frames0364.tiff" arWidth="1280" arHeight="720" duration="0" songTitle="" songArtist="" songAlbum="" />
    <MediaItem id="365" filePath="C:\Users\ChrisWhong\Desktop\SickWeather\GeoTrails2\commoncold\frames0365.tiff" arWidth="1280" arHeight="720" duration="0" songTitle="" songArtist="" songAlbum="" />
    <MediaItem id="366" filePath="C:\Users\ChrisWhong\Desktop\SickWeather\GeoTrails2\commoncold\frames0366.tiff" arWidth="1280" arHeight="720" duration="0" songTitle="" songArtist="" songAlbum="" />
    <MediaItem id="367" filePath="C:\Users\ChrisWhong\Desktop\SickWeather\GeoTrails2\commoncold\frames0367.tiff" arWidth="1280" arHeight="720" duration="0" songTitle="" songArtist="" songAlbum="" />
    <MediaItem id="368" filePath="C:\Users\ChrisWhong\Desktop\SickWeather\GeoTrails2\commoncold\frames0368.tiff" arWidth="1280" arHeight="720" duration="0" songTitle="" songArtist="" songAlbum="" />
    <MediaItem id="369" filePath="C:\Users\ChrisWhong\Desktop\SickWeather\GeoTrails2\commoncold\frames0369.tiff" arWidth="1280" arHeight="720" duration="0" songTitle="" songArtist="" songAlbum="" />
    <MediaItem id="370" filePath="C:\Users\ChrisWhong\Desktop\SickWeather\GeoTrails2\commoncold\frames0370.tiff" arWidth="1280" arHeight="720" duration="0" songTitle="" songArtist="" songAlbum="" />
    <MediaItem id="371" filePath="C:\Users\ChrisWhong\Desktop\SickWeather\GeoTrails2\commoncold\frames0371.tiff" arWidth="1280" arHeight="720" duration="0" songTitle="" songArtist="" songAlbum="" />
    <MediaItem id="372" filePath="C:\Users\ChrisWhong\Desktop\SickWeather\GeoTrails2\commoncold\frames0372.tiff" arWidth="1280" arHeight="720" duration="0" songTitle="" songArtist="" songAlbum="" />
    <MediaItem id="373" filePath="C:\Users\ChrisWhong\Desktop\SickWeather\GeoTrails2\commoncold\frames0373.tiff" arWidth="1280" arHeight="720" duration="0" songTitle="" songArtist="" songAlbum="" />
    <MediaItem id="374" filePath="C:\Users\ChrisWhong\Desktop\SickWeather\GeoTrails2\commoncold\frames0374.tiff" arWidth="1280" arHeight="720" duration="0" songTitle="" songArtist="" songAlbum="" />
    <MediaItem id="375" filePath="C:\Users\ChrisWhong\Desktop\SickWeather\GeoTrails2\commoncold\frames0375.tiff" arWidth="1280" arHeight="720" duration="0" songTitle="" songArtist="" songAlbum="" />
    <MediaItem id="376" filePath="C:\Users\ChrisWhong\Desktop\SickWeather\GeoTrails2\commoncold\frames0376.tiff" arWidth="1280" arHeight="720" duration="0" songTitle="" songArtist="" songAlbum="" />
    <MediaItem id="377" filePath="C:\Users\ChrisWhong\Desktop\SickWeather\GeoTrails2\commoncold\frames0377.tiff" arWidth="1280" arHeight="720" duration="0" songTitle="" songArtist="" songAlbum="" />
    <MediaItem id="378" filePath="C:\Users\ChrisWhong\Desktop\SickWeather\GeoTrails2\commoncold\frames0378.tiff" arWidth="1280" arHeight="720" duration="0" songTitle="" songArtist="" songAlbum="" />
    <MediaItem id="379" filePath="C:\Users\ChrisWhong\Desktop\SickWeather\GeoTrails2\commoncold\frames0379.tiff" arWidth="1280" arHeight="720" duration="0" songTitle="" songArtist="" songAlbum="" />
    <MediaItem id="380" filePath="C:\Users\ChrisWhong\Desktop\SickWeather\GeoTrails2\commoncold\frames0380.tiff" arWidth="1280" arHeight="720" duration="0" songTitle="" songArtist="" songAlbum="" />
    <MediaItem id="381" filePath="C:\Users\ChrisWhong\Desktop\SickWeather\GeoTrails2\commoncold\frames0381.tiff" arWidth="1280" arHeight="720" duration="0" songTitle="" songArtist="" songAlbum="" />
    <MediaItem id="382" filePath="C:\Users\ChrisWhong\Desktop\SickWeather\GeoTrails2\commoncold\frames0382.tiff" arWidth="1280" arHeight="720" duration="0" songTitle="" songArtist="" songAlbum="" />
    <MediaItem id="383" filePath="C:\Users\ChrisWhong\Desktop\SickWeather\GeoTrails2\commoncold\frames0383.tiff" arWidth="1280" arHeight="720" duration="0" songTitle="" songArtist="" songAlbum="" />
    <MediaItem id="384" filePath="C:\Users\ChrisWhong\Desktop\SickWeather\GeoTrails2\commoncold\frames0384.tiff" arWidth="1280" arHeight="720" duration="0" songTitle="" songArtist="" songAlbum="" />
    <MediaItem id="385" filePath="C:\Users\ChrisWhong\Desktop\SickWeather\GeoTrails2\commoncold\frames0385.tiff" arWidth="1280" arHeight="720" duration="0" songTitle="" songArtist="" songAlbum="" />
    <MediaItem id="386" filePath="C:\Users\ChrisWhong\Desktop\SickWeather\GeoTrails2\commoncold\frames0386.tiff" arWidth="1280" arHeight="720" duration="0" songTitle="" songArtist="" songAlbum="" />
    <MediaItem id="387" filePath="C:\Users\ChrisWhong\Desktop\SickWeather\GeoTrails2\commoncold\frames0387.tiff" arWidth="1280" arHeight="720" duration="0" songTitle="" songArtist="" songAlbum="" />
    <MediaItem id="388" filePath="C:\Users\ChrisWhong\Desktop\SickWeather\GeoTrails2\commoncold\frames0388.tiff" arWidth="1280" arHeight="720" duration="0" songTitle="" songArtist="" songAlbum="" />
    <MediaItem id="389" filePath="C:\Users\ChrisWhong\Desktop\SickWeather\GeoTrails2\commoncold\frames0389.tiff" arWidth="1280" arHeight="720" duration="0" songTitle="" songArtist="" songAlbum="" />
    <MediaItem id="390" filePath="C:\Users\ChrisWhong\Desktop\SickWeather\GeoTrails2\commoncold\frames0390.tiff" arWidth="1280" arHeight="720" duration="0" songTitle="" songArtist="" songAlbum="" />
    <MediaItem id="391" filePath="C:\Users\ChrisWhong\Desktop\SickWeather\GeoTrails2\commoncold\frames0391.tiff" arWidth="1280" arHeight="720" duration="0" songTitle="" songArtist="" songAlbum="" />
    <MediaItem id="392" filePath="C:\Users\ChrisWhong\Desktop\SickWeather\GeoTrails2\commoncold\frames0392.tiff" arWidth="1280" arHeight="720" duration="0" songTitle="" songArtist="" songAlbum="" />
    <MediaItem id="393" filePath="C:\Users\ChrisWhong\Desktop\SickWeather\GeoTrails2\commoncold\frames0393.tiff" arWidth="1280" arHeight="720" duration="0" songTitle="" songArtist="" songAlbum="" />
    <MediaItem id="394" filePath="C:\Users\ChrisWhong\Desktop\SickWeather\GeoTrails2\commoncold\frames0394.tiff" arWidth="1280" arHeight="720" duration="0" songTitle="" songArtist="" songAlbum="" />
    <MediaItem id="395" filePath="C:\Users\ChrisWhong\Desktop\SickWeather\GeoTrails2\commoncold\frames0395.tiff" arWidth="1280" arHeight="720" duration="0" songTitle="" songArtist="" songAlbum="" />
    <MediaItem id="396" filePath="C:\Users\ChrisWhong\Desktop\SickWeather\GeoTrails2\commoncold\frames0396.tiff" arWidth="1280" arHeight="720" duration="0" songTitle="" songArtist="" songAlbum="" />
    <MediaItem id="397" filePath="C:\Users\ChrisWhong\Desktop\SickWeather\GeoTrails2\commoncold\frames0397.tiff" arWidth="1280" arHeight="720" duration="0" songTitle="" songArtist="" songAlbum="" />
    <MediaItem id="398" filePath="C:\Users\ChrisWhong\Desktop\SickWeather\GeoTrails2\commoncold\frames0398.tiff" arWidth="1280" arHeight="720" duration="0" songTitle="" songArtist="" songAlbum="" />
    <MediaItem id="399" filePath="C:\Users\ChrisWhong\Desktop\SickWeather\GeoTrails2\commoncold\frames0399.tiff" arWidth="1280" arHeight="720" duration="0" songTitle="" songArtist="" songAlbum="" />
    <MediaItem id="400" filePath="C:\Users\ChrisWhong\Desktop\SickWeather\GeoTrails2\commoncold\frames0400.tiff" arWidth="1280" arHeight="720" duration="0" songTitle="" songArtist="" songAlbum="" />
    <MediaItem id="401" filePath="C:\Users\ChrisWhong\Desktop\SickWeather\GeoTrails2\commoncold\frames0401.tiff" arWidth="1280" arHeight="720" duration="0" songTitle="" songArtist="" songAlbum="" />
    <MediaItem id="402" filePath="C:\Users\ChrisWhong\Desktop\SickWeather\GeoTrails2\commoncold\frames0402.tiff" arWidth="1280" arHeight="720" duration="0" songTitle="" songArtist="" songAlbum="" />
    <MediaItem id="403" filePath="C:\Users\ChrisWhong\Desktop\SickWeather\GeoTrails2\commoncold\frames0403.tiff" arWidth="1280" arHeight="720" duration="0" songTitle="" songArtist="" songAlbum="" />
    <MediaItem id="404" filePath="C:\Users\ChrisWhong\Desktop\SickWeather\GeoTrails2\commoncold\frames0404.tiff" arWidth="1280" arHeight="720" duration="0" songTitle="" songArtist="" songAlbum="" />
    <MediaItem id="405" filePath="C:\Users\ChrisWhong\Desktop\SickWeather\GeoTrails2\commoncold\frames0405.tiff" arWidth="1280" arHeight="720" duration="0" songTitle="" songArtist="" songAlbum="" />
    <MediaItem id="406" filePath="C:\Users\ChrisWhong\Desktop\SickWeather\GeoTrails2\commoncold\frames0406.tiff" arWidth="1280" arHeight="720" duration="0" songTitle="" songArtist="" songAlbum="" />
    <MediaItem id="407" filePath="C:\Users\ChrisWhong\Desktop\SickWeather\GeoTrails2\commoncold\frames0407.tiff" arWidth="1280" arHeight="720" duration="0" songTitle="" songArtist="" songAlbum="" />
    <MediaItem id="408" filePath="C:\Users\ChrisWhong\Desktop\SickWeather\GeoTrails2\commoncold\frames0408.tiff" arWidth="1280" arHeight="720" duration="0" songTitle="" songArtist="" songAlbum="" />
    <MediaItem id="409" filePath="C:\Users\ChrisWhong\Desktop\SickWeather\GeoTrails2\commoncold\frames0409.tiff" arWidth="1280" arHeight="720" duration="0" songTitle="" songArtist="" songAlbum="" />
    <MediaItem id="410" filePath="C:\Users\ChrisWhong\Desktop\SickWeather\GeoTrails2\commoncold\frames0410.tiff" arWidth="1280" arHeight="720" duration="0" songTitle="" songArtist="" songAlbum="" />
    <MediaItem id="411" filePath="C:\Users\ChrisWhong\Desktop\SickWeather\GeoTrails2\commoncold\frames0411.tiff" arWidth="1280" arHeight="720" duration="0" songTitle="" songArtist="" songAlbum="" />
    <MediaItem id="412" filePath="C:\Users\ChrisWhong\Desktop\SickWeather\GeoTrails2\commoncold\frames0412.tiff" arWidth="1280" arHeight="720" duration="0" songTitle="" songArtist="" songAlbum="" />
    <MediaItem id="413" filePath="C:\Users\ChrisWhong\Desktop\SickWeather\GeoTrails2\commoncold\frames0413.tiff" arWidth="1280" arHeight="720" duration="0" songTitle="" songArtist="" songAlbum="" />
    <MediaItem id="414" filePath="C:\Users\ChrisWhong\Desktop\SickWeather\GeoTrails2\commoncold\frames0414.tiff" arWidth="1280" arHeight="720" duration="0" songTitle="" songArtist="" songAlbum="" />
    <MediaItem id="415" filePath="C:\Users\ChrisWhong\Desktop\SickWeather\GeoTrails2\commoncold\frames0415.tiff" arWidth="1280" arHeight="720" duration="0" songTitle="" songArtist="" songAlbum="" />
    <MediaItem id="416" filePath="C:\Users\ChrisWhong\Desktop\SickWeather\GeoTrails2\commoncold\frames0416.tiff" arWidth="1280" arHeight="720" duration="0" songTitle="" songArtist="" songAlbum="" />
    <MediaItem id="417" filePath="C:\Users\ChrisWhong\Desktop\SickWeather\GeoTrails2\commoncold\frames0417.tiff" arWidth="1280" arHeight="720" duration="0" songTitle="" songArtist="" songAlbum="" />
    <MediaItem id="418" filePath="C:\Users\ChrisWhong\Desktop\SickWeather\GeoTrails2\commoncold\frames0418.tiff" arWidth="1280" arHeight="720" duration="0" songTitle="" songArtist="" songAlbum="" />
    <MediaItem id="419" filePath="C:\Users\ChrisWhong\Desktop\SickWeather\GeoTrails2\commoncold\frames0419.tiff" arWidth="1280" arHeight="720" duration="0" songTitle="" songArtist="" songAlbum="" />
    <MediaItem id="420" filePath="C:\Users\ChrisWhong\Desktop\SickWeather\GeoTrails2\commoncold\frames0420.tiff" arWidth="1280" arHeight="720" duration="0" songTitle="" songArtist="" songAlbum="" />
    <MediaItem id="421" filePath="C:\Users\ChrisWhong\Desktop\SickWeather\GeoTrails2\commoncold\frames0421.tiff" arWidth="1280" arHeight="720" duration="0" songTitle="" songArtist="" songAlbum="" />
    <MediaItem id="422" filePath="C:\Users\ChrisWhong\Desktop\SickWeather\GeoTrails2\commoncold\frames0422.tiff" arWidth="1280" arHeight="720" duration="0" songTitle="" songArtist="" songAlbum="" />
    <MediaItem id="423" filePath="C:\Users\ChrisWhong\Desktop\SickWeather\GeoTrails2\commoncold\frames0423.tiff" arWidth="1280" arHeight="720" duration="0" songTitle="" songArtist="" songAlbum="" />
    <MediaItem id="424" filePath="C:\Users\ChrisWhong\Desktop\SickWeather\GeoTrails2\commoncold\frames0424.tiff" arWidth="1280" arHeight="720" duration="0" songTitle="" songArtist="" songAlbum="" />
    <MediaItem id="425" filePath="C:\Users\ChrisWhong\Desktop\SickWeather\GeoTrails2\commoncold\frames0425.tiff" arWidth="1280" arHeight="720" duration="0" songTitle="" songArtist="" songAlbum="" />
    <MediaItem id="426" filePath="C:\Users\ChrisWhong\Desktop\SickWeather\GeoTrails2\commoncold\frames0426.tiff" arWidth="1280" arHeight="720" duration="0" songTitle="" songArtist="" songAlbum="" />
    <MediaItem id="427" filePath="C:\Users\ChrisWhong\Desktop\SickWeather\GeoTrails2\commoncold\frames0427.tiff" arWidth="1280" arHeight="720" duration="0" songTitle="" songArtist="" songAlbum="" />
    <MediaItem id="428" filePath="C:\Users\ChrisWhong\Desktop\SickWeather\GeoTrails2\commoncold\frames0428.tiff" arWidth="1280" arHeight="720" duration="0" songTitle="" songArtist="" songAlbum="" />
    <MediaItem id="429" filePath="C:\Users\ChrisWhong\Desktop\SickWeather\GeoTrails2\commoncold\frames0429.tiff" arWidth="1280" arHeight="720" duration="0" songTitle="" songArtist="" songAlbum="" />
    <MediaItem id="430" filePath="C:\Users\ChrisWhong\Desktop\SickWeather\GeoTrails2\commoncold\frames0430.tiff" arWidth="1280" arHeight="720" duration="0" songTitle="" songArtist="" songAlbum="" />
    <MediaItem id="431" filePath="C:\Users\ChrisWhong\Desktop\SickWeather\GeoTrails2\commoncold\frames0431.tiff" arWidth="1280" arHeight="720" duration="0" songTitle="" songArtist="" songAlbum="" />
    <MediaItem id="432" filePath="C:\Users\ChrisWhong\Desktop\SickWeather\GeoTrails2\commoncold\frames0432.tiff" arWidth="1280" arHeight="720" duration="0" songTitle="" songArtist="" songAlbum="" />
    <MediaItem id="433" filePath="C:\Users\ChrisWhong\Desktop\SickWeather\GeoTrails2\commoncold\frames0433.tiff" arWidth="1280" arHeight="720" duration="0" songTitle="" songArtist="" songAlbum="" />
    <MediaItem id="434" filePath="C:\Users\ChrisWhong\Desktop\SickWeather\GeoTrails2\commoncold\frames0434.tiff" arWidth="1280" arHeight="720" duration="0" songTitle="" songArtist="" songAlbum="" />
    <MediaItem id="435" filePath="C:\Users\ChrisWhong\Desktop\SickWeather\GeoTrails2\commoncold\frames0435.tiff" arWidth="1280" arHeight="720" duration="0" songTitle="" songArtist="" songAlbum="" />
    <MediaItem id="436" filePath="C:\Users\ChrisWhong\Desktop\SickWeather\GeoTrails2\commoncold\frames0436.tiff" arWidth="1280" arHeight="720" duration="0" songTitle="" songArtist="" songAlbum="" />
    <MediaItem id="437" filePath="C:\Users\ChrisWhong\Desktop\SickWeather\GeoTrails2\commoncold\frames0437.tiff" arWidth="1280" arHeight="720" duration="0" songTitle="" songArtist="" songAlbum="" />
    <MediaItem id="438" filePath="C:\Users\ChrisWhong\Desktop\SickWeather\GeoTrails2\commoncold\frames0438.tiff" arWidth="1280" arHeight="720" duration="0" songTitle="" songArtist="" songAlbum="" />
    <MediaItem id="439" filePath="C:\Users\ChrisWhong\Desktop\SickWeather\GeoTrails2\commoncold\frames0439.tiff" arWidth="1280" arHeight="720" duration="0" songTitle="" songArtist="" songAlbum="" />
    <MediaItem id="440" filePath="C:\Users\ChrisWhong\Desktop\SickWeather\GeoTrails2\commoncold\frames0440.tiff" arWidth="1280" arHeight="720" duration="0" songTitle="" songArtist="" songAlbum="" />
    <MediaItem id="441" filePath="C:\Users\ChrisWhong\Desktop\SickWeather\GeoTrails2\commoncold\frames0441.tiff" arWidth="1280" arHeight="720" duration="0" songTitle="" songArtist="" songAlbum="" />
    <MediaItem id="442" filePath="C:\Users\ChrisWhong\Desktop\SickWeather\GeoTrails2\commoncold\frames0442.tiff" arWidth="1280" arHeight="720" duration="0" songTitle="" songArtist="" songAlbum="" />
    <MediaItem id="443" filePath="C:\Users\ChrisWhong\Desktop\SickWeather\GeoTrails2\commoncold\frames0443.tiff" arWidth="1280" arHeight="720" duration="0" songTitle="" songArtist="" songAlbum="" />
    <MediaItem id="444" filePath="C:\Users\ChrisWhong\Desktop\SickWeather\GeoTrails2\commoncold\frames0444.tiff" arWidth="1280" arHeight="720" duration="0" songTitle="" songArtist="" songAlbum="" />
    <MediaItem id="445" filePath="C:\Users\ChrisWhong\Desktop\SickWeather\GeoTrails2\commoncold\frames0445.tiff" arWidth="1280" arHeight="720" duration="0" songTitle="" songArtist="" songAlbum="" />
    <MediaItem id="446" filePath="C:\Users\ChrisWhong\Desktop\SickWeather\GeoTrails2\commoncold\frames0446.tiff" arWidth="1280" arHeight="720" duration="0" songTitle="" songArtist="" songAlbum="" />
    <MediaItem id="447" filePath="C:\Users\ChrisWhong\Desktop\SickWeather\GeoTrails2\commoncold\frames0447.tiff" arWidth="1280" arHeight="720" duration="0" songTitle="" songArtist="" songAlbum="" />
    <MediaItem id="448" filePath="C:\Users\ChrisWhong\Desktop\SickWeather\GeoTrails2\commoncold\frames0448.tiff" arWidth="1280" arHeight="720" duration="0" songTitle="" songArtist="" songAlbum="" />
    <MediaItem id="449" filePath="C:\Users\ChrisWhong\Desktop\SickWeather\GeoTrails2\commoncold\frames0449.tiff" arWidth="1280" arHeight="720" duration="0" songTitle="" songArtist="" songAlbum="" />
    <MediaItem id="450" filePath="C:\Users\ChrisWhong\Desktop\SickWeather\GeoTrails2\commoncold\frames0450.tiff" arWidth="1280" arHeight="720" duration="0" songTitle="" songArtist="" songAlbum="" />
    <MediaItem id="451" filePath="C:\Users\ChrisWhong\Desktop\SickWeather\GeoTrails2\commoncold\frames0451.tiff" arWidth="1280" arHeight="720" duration="0" songTitle="" songArtist="" songAlbum="" />
    <MediaItem id="452" filePath="C:\Users\ChrisWhong\Desktop\SickWeather\GeoTrails2\commoncold\frames0452.tiff" arWidth="1280" arHeight="720" duration="0" songTitle="" songArtist="" songAlbum="" />
    <MediaItem id="453" filePath="C:\Users\ChrisWhong\Desktop\SickWeather\GeoTrails2\commoncold\frames0453.tiff" arWidth="1280" arHeight="720" duration="0" songTitle="" songArtist="" songAlbum="" />
    <MediaItem id="454" filePath="C:\Users\ChrisWhong\Desktop\SickWeather\GeoTrails2\commoncold\frames0454.tiff" arWidth="1280" arHeight="720" duration="0" songTitle="" songArtist="" songAlbum="" />
    <MediaItem id="455" filePath="C:\Users\ChrisWhong\Desktop\SickWeather\GeoTrails2\commoncold\frames0455.tiff" arWidth="1280" arHeight="720" duration="0" songTitle="" songArtist="" songAlbum="" />
    <MediaItem id="456" filePath="C:\Users\ChrisWhong\Desktop\SickWeather\GeoTrails2\commoncold\frames0456.tiff" arWidth="1280" arHeight="720" duration="0" songTitle="" songArtist="" songAlbum="" />
    <MediaItem id="457" filePath="C:\Users\ChrisWhong\Desktop\SickWeather\GeoTrails2\commoncold\frames0457.tiff" arWidth="1280" arHeight="720" duration="0" songTitle="" songArtist="" songAlbum="" />
    <MediaItem id="458" filePath="C:\Users\ChrisWhong\Desktop\SickWeather\GeoTrails2\commoncold\frames0458.tiff" arWidth="1280" arHeight="720" duration="0" songTitle="" songArtist="" songAlbum="" />
    <MediaItem id="459" filePath="C:\Users\ChrisWhong\Desktop\SickWeather\GeoTrails2\commoncold\frames0459.tiff" arWidth="1280" arHeight="720" duration="0" songTitle="" songArtist="" songAlbum="" />
    <MediaItem id="460" filePath="C:\Users\ChrisWhong\Desktop\SickWeather\GeoTrails2\commoncold\frames0460.tiff" arWidth="1280" arHeight="720" duration="0" songTitle="" songArtist="" songAlbum="" />
    <MediaItem id="461" filePath="C:\Users\ChrisWhong\Desktop\SickWeather\GeoTrails2\commoncold\frames0461.tiff" arWidth="1280" arHeight="720" duration="0" songTitle="" songArtist="" songAlbum="" />
    <MediaItem id="462" filePath="C:\Users\ChrisWhong\Desktop\SickWeather\GeoTrails2\commoncold\frames0462.tiff" arWidth="1280" arHeight="720" duration="0" songTitle="" songArtist="" songAlbum="" />
    <MediaItem id="463" filePath="C:\Users\ChrisWhong\Desktop\SickWeather\GeoTrails2\commoncold\frames0463.tiff" arWidth="1280" arHeight="720" duration="0" songTitle="" songArtist="" songAlbum="" />
    <MediaItem id="464" filePath="C:\Users\ChrisWhong\Desktop\SickWeather\GeoTrails2\commoncold\frames0464.tiff" arWidth="1280" arHeight="720" duration="0" songTitle="" songArtist="" songAlbum="" />
    <MediaItem id="465" filePath="C:\Users\ChrisWhong\Desktop\SickWeather\GeoTrails2\commoncold\frames0465.tiff" arWidth="1280" arHeight="720" duration="0" songTitle="" songArtist="" songAlbum="" />
    <MediaItem id="466" filePath="C:\Users\ChrisWhong\Desktop\SickWeather\GeoTrails2\commoncold\frames0466.tiff" arWidth="1280" arHeight="720" duration="0" songTitle="" songArtist="" songAlbum="" />
    <MediaItem id="467" filePath="C:\Users\ChrisWhong\Desktop\SickWeather\GeoTrails2\commoncold\frames0467.tiff" arWidth="1280" arHeight="720" duration="0" songTitle="" songArtist="" songAlbum="" />
    <MediaItem id="468" filePath="C:\Users\ChrisWhong\Desktop\SickWeather\GeoTrails2\commoncold\frames0468.tiff" arWidth="1280" arHeight="720" duration="0" songTitle="" songArtist="" songAlbum="" />
    <MediaItem id="469" filePath="C:\Users\ChrisWhong\Desktop\SickWeather\GeoTrails2\commoncold\frames0469.tiff" arWidth="1280" arHeight="720" duration="0" songTitle="" songArtist="" songAlbum="" />
    <MediaItem id="470" filePath="C:\Users\ChrisWhong\Desktop\SickWeather\GeoTrails2\commoncold\frames0470.tiff" arWidth="1280" arHeight="720" duration="0" songTitle="" songArtist="" songAlbum="" />
    <MediaItem id="471" filePath="C:\Users\ChrisWhong\Desktop\SickWeather\GeoTrails2\commoncold\frames0471.tiff" arWidth="1280" arHeight="720" duration="0" songTitle="" songArtist="" songAlbum="" />
    <MediaItem id="472" filePath="C:\Users\ChrisWhong\Desktop\SickWeather\GeoTrails2\commoncold\frames0472.tiff" arWidth="1280" arHeight="720" duration="0" songTitle="" songArtist="" songAlbum="" />
    <MediaItem id="473" filePath="C:\Users\ChrisWhong\Desktop\SickWeather\GeoTrails2\commoncold\frames0473.tiff" arWidth="1280" arHeight="720" duration="0" songTitle="" songArtist="" songAlbum="" />
    <MediaItem id="474" filePath="C:\Users\ChrisWhong\Desktop\SickWeather\GeoTrails2\commoncold\frames0474.tiff" arWidth="1280" arHeight="720" duration="0" songTitle="" songArtist="" songAlbum="" />
    <MediaItem id="475" filePath="C:\Users\ChrisWhong\Desktop\SickWeather\GeoTrails2\commoncold\frames0475.tiff" arWidth="1280" arHeight="720" duration="0" songTitle="" songArtist="" songAlbum="" />
    <MediaItem id="476" filePath="C:\Users\ChrisWhong\Desktop\SickWeather\GeoTrails2\commoncold\frames0476.tiff" arWidth="1280" arHeight="720" duration="0" songTitle="" songArtist="" songAlbum="" />
    <MediaItem id="477" filePath="C:\Users\ChrisWhong\Desktop\SickWeather\GeoTrails2\commoncold\frames0477.tiff" arWidth="1280" arHeight="720" duration="0" songTitle="" songArtist="" songAlbum="" />
    <MediaItem id="478" filePath="C:\Users\ChrisWhong\Desktop\SickWeather\GeoTrails2\commoncold\frames0478.tiff" arWidth="1280" arHeight="720" duration="0" songTitle="" songArtist="" songAlbum="" />
    <MediaItem id="479" filePath="C:\Users\ChrisWhong\Desktop\SickWeather\GeoTrails2\commoncold\frames0479.tiff" arWidth="1280" arHeight="720" duration="0" songTitle="" songArtist="" songAlbum="" />
    <MediaItem id="480" filePath="C:\Users\ChrisWhong\Desktop\SickWeather\GeoTrails2\commoncold\frames0480.tiff" arWidth="1280" arHeight="720" duration="0" songTitle="" songArtist="" songAlbum="" />
    <MediaItem id="481" filePath="C:\Users\ChrisWhong\Desktop\SickWeather\GeoTrails2\commoncold\frames0481.tiff" arWidth="1280" arHeight="720" duration="0" songTitle="" songArtist="" songAlbum="" />
    <MediaItem id="482" filePath="C:\Users\ChrisWhong\Desktop\SickWeather\GeoTrails2\commoncold\frames0482.tiff" arWidth="1280" arHeight="720" duration="0" songTitle="" songArtist="" songAlbum="" />
    <MediaItem id="483" filePath="C:\Users\ChrisWhong\Desktop\SickWeather\GeoTrails2\commoncold\frames0483.tiff" arWidth="1280" arHeight="720" duration="0" songTitle="" songArtist="" songAlbum="" />
    <MediaItem id="484" filePath="C:\Users\ChrisWhong\Desktop\SickWeather\GeoTrails2\commoncold\frames0484.tiff" arWidth="1280" arHeight="720" duration="0" songTitle="" songArtist="" songAlbum="" />
    <MediaItem id="485" filePath="C:\Users\ChrisWhong\Desktop\SickWeather\GeoTrails2\commoncold\frames0485.tiff" arWidth="1280" arHeight="720" duration="0" songTitle="" songArtist="" songAlbum="" />
    <MediaItem id="486" filePath="C:\Users\ChrisWhong\Desktop\SickWeather\GeoTrails2\commoncold\frames0486.tiff" arWidth="1280" arHeight="720" duration="0" songTitle="" songArtist="" songAlbum="" />
    <MediaItem id="487" filePath="C:\Users\ChrisWhong\Desktop\SickWeather\GeoTrails2\commoncold\frames0487.tiff" arWidth="1280" arHeight="720" duration="0" songTitle="" songArtist="" songAlbum="" />
    <MediaItem id="488" filePath="C:\Users\ChrisWhong\Desktop\SickWeather\GeoTrails2\commoncold\frames0488.tiff" arWidth="1280" arHeight="720" duration="0" songTitle="" songArtist="" songAlbum="" />
    <MediaItem id="489" filePath="C:\Users\ChrisWhong\Desktop\SickWeather\GeoTrails2\commoncold\frames0489.tiff" arWidth="1280" arHeight="720" duration="0" songTitle="" songArtist="" songAlbum="" />
    <MediaItem id="490" filePath="C:\Users\ChrisWhong\Desktop\SickWeather\GeoTrails2\commoncold\frames0490.tiff" arWidth="1280" arHeight="720" duration="0" songTitle="" songArtist="" songAlbum="" />
    <MediaItem id="491" filePath="C:\Users\ChrisWhong\Desktop\SickWeather\GeoTrails2\commoncold\frames0491.tiff" arWidth="1280" arHeight="720" duration="0" songTitle="" songArtist="" songAlbum="" />
    <MediaItem id="492" filePath="C:\Users\ChrisWhong\Desktop\SickWeather\GeoTrails2\commoncold\frames0492.tiff" arWidth="1280" arHeight="720" duration="0" songTitle="" songArtist="" songAlbum="" />
    <MediaItem id="493" filePath="C:\Users\ChrisWhong\Desktop\SickWeather\GeoTrails2\commoncold\frames0493.tiff" arWidth="1280" arHeight="720" duration="0" songTitle="" songArtist="" songAlbum="" />
    <MediaItem id="494" filePath="C:\Users\ChrisWhong\Desktop\SickWeather\GeoTrails2\commoncold\frames0494.tiff" arWidth="1280" arHeight="720" duration="0" songTitle="" songArtist="" songAlbum="" />
    <MediaItem id="495" filePath="C:\Users\ChrisWhong\Desktop\SickWeather\GeoTrails2\commoncold\frames0495.tiff" arWidth="1280" arHeight="720" duration="0" songTitle="" songArtist="" songAlbum="" />
    <MediaItem id="496" filePath="C:\Users\ChrisWhong\Desktop\SickWeather\GeoTrails2\commoncold\frames0496.tiff" arWidth="1280" arHeight="720" duration="0" songTitle="" songArtist="" songAlbum="" />
    <MediaItem id="497" filePath="C:\Users\ChrisWhong\Desktop\SickWeather\GeoTrails2\commoncold\frames0497.tiff" arWidth="1280" arHeight="720" duration="0" songTitle="" songArtist="" songAlbum="" />
    <MediaItem id="498" filePath="C:\Users\ChrisWhong\Desktop\SickWeather\GeoTrails2\commoncold\frames0498.tiff" arWidth="1280" arHeight="720" duration="0" songTitle="" songArtist="" songAlbum="" />
    <MediaItem id="499" filePath="C:\Users\ChrisWhong\Desktop\SickWeather\GeoTrails2\commoncold\frames0499.tiff" arWidth="1280" arHeight="720" duration="0" songTitle="" songArtist="" songAlbum="" />
    <MediaItem id="500" filePath="C:\Users\ChrisWhong\Desktop\SickWeather\GeoTrails2\commoncold\frames0500.tiff" arWidth="1280" arHeight="720" duration="0" songTitle="" songArtist="" songAlbum="" />
    <MediaItem id="501" filePath="C:\Users\ChrisWhong\Desktop\SickWeather\GeoTrails2\commoncold\frames0501.tiff" arWidth="1280" arHeight="720" duration="0" songTitle="" songArtist="" songAlbum="" />
    <MediaItem id="502" filePath="C:\Users\ChrisWhong\Desktop\SickWeather\GeoTrails2\commoncold\frames0502.tiff" arWidth="1280" arHeight="720" duration="0" songTitle="" songArtist="" songAlbum="" />
    <MediaItem id="503" filePath="C:\Users\ChrisWhong\Desktop\SickWeather\GeoTrails2\commoncold\frames0503.tiff" arWidth="1280" arHeight="720" duration="0" songTitle="" songArtist="" songAlbum="" />
    <MediaItem id="504" filePath="C:\Users\ChrisWhong\Desktop\SickWeather\GeoTrails2\commoncold\frames0504.tiff" arWidth="1280" arHeight="720" duration="0" songTitle="" songArtist="" songAlbum="" />
    <MediaItem id="505" filePath="C:\Users\ChrisWhong\Desktop\SickWeather\GeoTrails2\commoncold\frames0505.tiff" arWidth="1280" arHeight="720" duration="0" songTitle="" songArtist="" songAlbum="" />
    <MediaItem id="506" filePath="C:\Users\ChrisWhong\Desktop\SickWeather\GeoTrails2\commoncold\frames0506.tiff" arWidth="1280" arHeight="720" duration="0" songTitle="" songArtist="" songAlbum="" />
    <MediaItem id="507" filePath="C:\Users\ChrisWhong\Desktop\SickWeather\GeoTrails2\commoncold\frames0507.tiff" arWidth="1280" arHeight="720" duration="0" songTitle="" songArtist="" songAlbum="" />
    <MediaItem id="508" filePath="C:\Users\ChrisWhong\Desktop\SickWeather\GeoTrails2\commoncold\frames0508.tiff" arWidth="1280" arHeight="720" duration="0" songTitle="" songArtist="" songAlbum="" />
    <MediaItem id="509" filePath="C:\Users\ChrisWhong\Desktop\SickWeather\GeoTrails2\commoncold\frames0509.tiff" arWidth="1280" arHeight="720" duration="0" songTitle="" songArtist="" songAlbum="" />
    <MediaItem id="510" filePath="C:\Users\ChrisWhong\Desktop\SickWeather\GeoTrails2\commoncold\frames0510.tiff" arWidth="1280" arHeight="720" duration="0" songTitle="" songArtist="" songAlbum="" />
    <MediaItem id="511" filePath="C:\Users\ChrisWhong\Desktop\SickWeather\GeoTrails2\commoncold\frames0511.tiff" arWidth="1280" arHeight="720" duration="0" songTitle="" songArtist="" songAlbum="" />
    <MediaItem id="512" filePath="C:\Users\ChrisWhong\Desktop\SickWeather\GeoTrails2\commoncold\frames0512.tiff" arWidth="1280" arHeight="720" duration="0" songTitle="" songArtist="" songAlbum="" />
    <MediaItem id="513" filePath="C:\Users\ChrisWhong\Desktop\SickWeather\GeoTrails2\commoncold\frames0513.tiff" arWidth="1280" arHeight="720" duration="0" songTitle="" songArtist="" songAlbum="" />
    <MediaItem id="514" filePath="C:\Users\ChrisWhong\Desktop\SickWeather\GeoTrails2\commoncold\frames0514.tiff" arWidth="1280" arHeight="720" duration="0" songTitle="" songArtist="" songAlbum="" />
    <MediaItem id="515" filePath="C:\Users\ChrisWhong\Desktop\SickWeather\GeoTrails2\commoncold\frames0515.tiff" arWidth="1280" arHeight="720" duration="0" songTitle="" songArtist="" songAlbum="" />
    <MediaItem id="516" filePath="C:\Users\ChrisWhong\Desktop\SickWeather\GeoTrails2\commoncold\frames0516.tiff" arWidth="1280" arHeight="720" duration="0" songTitle="" songArtist="" songAlbum="" />
    <MediaItem id="517" filePath="C:\Users\ChrisWhong\Desktop\SickWeather\GeoTrails2\commoncold\frames0517.tiff" arWidth="1280" arHeight="720" duration="0" songTitle="" songArtist="" songAlbum="" />
    <MediaItem id="518" filePath="C:\Users\ChrisWhong\Desktop\SickWeather\GeoTrails2\commoncold\frames0518.tiff" arWidth="1280" arHeight="720" duration="0" songTitle="" songArtist="" songAlbum="" />
    <MediaItem id="519" filePath="C:\Users\ChrisWhong\Desktop\SickWeather\GeoTrails2\commoncold\frames0519.tiff" arWidth="1280" arHeight="720" duration="0" songTitle="" songArtist="" songAlbum="" />
    <MediaItem id="520" filePath="C:\Users\ChrisWhong\Desktop\SickWeather\GeoTrails2\commoncold\frames0520.tiff" arWidth="1280" arHeight="720" duration="0" songTitle="" songArtist="" songAlbum="" />
  </MediaItems>
  <Extents>
    <ImageClip extentID="521" gapBefore="0" mediaItemID="516" duration="0.059999999999999998">
      <Effects />
      <Transitions />
      <BoundProperties>
        <BoundPropertyInt Name="rotateStepNinety" Value="0" />
      </BoundProperties>
    </ImageClip>
    <ImageClip extentID="522" gapBefore="0" mediaItemID="517" duration="0.059999999999999998">
      <Effects />
      <Transitions />
      <BoundProperties>
        <BoundPropertyInt Name="rotateStepNinety" Value="0" />
      </BoundProperties>
    </ImageClip>
    <ImageClip extentID="523" gapBefore="0" mediaItemID="518" duration="0.059999999999999998">
      <Effects />
      <Transitions />
      <BoundProperties>
        <BoundPropertyInt Name="rotateStepNinety" Value="0" />
      </BoundProperties>
    </ImageClip>
    <ImageClip extentID="524" gapBefore="0" mediaItemID="519" duration="0.059999999999999998">
      <Effects />
      <Transitions />
      <BoundProperties>
        <BoundPropertyInt Name="rotateStepNinety" Value="0" />
      </BoundProperties>
    </ImageClip>
    <ImageClip extentID="525" gapBefore="0" mediaItemID="520" duration="0.059999999999999998">
      <Effects />
      <Transitions />
      <BoundProperties>
        <BoundPropertyInt Name="rotateStepNinety" Value="0" />
      </BoundProperties>
    </ImageClip>
    <ImageClip extentID="526" gapBefore="0" mediaItemID="521" duration="0.059999999999999998">
      <Effects />
      <Transitions />
      <BoundProperties>
        <BoundPropertyInt Name="rotateStepNinety" Value="0" />
      </BoundProperties>
    </ImageClip>
    <ImageClip extentID="527" gapBefore="0" mediaItemID="522" duration="0.059999999999999998">
      <Effects />
      <Transitions />
      <BoundProperties>
        <BoundPropertyInt Name="rotateStepNinety" Value="0" />
      </BoundProperties>
    </ImageClip>
    <ImageClip extentID="6" gapBefore="0" mediaItemID="1" duration="0.059999999999999998">
      <Effects />
      <Transitions />
      <BoundProperties>
        <BoundPropertyInt Name="rotateStepNinety" Value="0" />
      </BoundProperties>
    </ImageClip>
    <ImageClip extentID="528" gapBefore="0" mediaItemID="523" duration="0.059999999999999998">
      <Effects />
      <Transitions />
      <BoundProperties>
        <BoundPropertyInt Name="rotateStepNinety" Value="0" />
      </BoundProperties>
    </ImageClip>
    <ImageClip extentID="7" gapBefore="0" mediaItemID="2" duration="0.059999999999999998">
      <Effects />
      <Transitions />
      <BoundProperties>
        <BoundPropertyInt Name="rotateStepNinety" Value="0" />
      </BoundProperties>
    </ImageClip>
    <ImageClip extentID="529" gapBefore="0" mediaItemID="524" duration="0.059999999999999998">
      <Effects />
      <Transitions />
      <BoundProperties>
        <BoundPropertyInt Name="rotateStepNinety" Value="0" />
      </BoundProperties>
    </ImageClip>
    <ImageClip extentID="8" gapBefore="0" mediaItemID="3" duration="0.059999999999999998">
      <Effects />
      <Transitions />
      <BoundProperties>
        <BoundPropertyInt Name="rotateStepNinety" Value="0" />
      </BoundProperties>
    </ImageClip>
    <ImageClip extentID="530" gapBefore="0" mediaItemID="525" duration="0.059999999999999998">
      <Effects />
      <Transitions />
      <BoundProperties>
        <BoundPropertyInt Name="rotateStepNinety" Value="0" />
      </BoundProperties>
    </ImageClip>
    <ImageClip extentID="9" gapBefore="0" mediaItemID="4" duration="0.059999999999999998">
      <Effects />
      <Transitions />
      <BoundProperties>
        <BoundPropertyInt Name="rotateStepNinety" Value="0" />
      </BoundProperties>
    </ImageClip>
    <ImageClip extentID="531" gapBefore="0" mediaItemID="526" duration="0.059999999999999998">
      <Effects />
      <Transitions />
      <BoundProperties>
        <BoundPropertyInt Name="rotateStepNinety" Value="0" />
      </BoundProperties>
    </ImageClip>
    <ImageClip extentID="10" gapBefore="0" mediaItemID="5" duration="0.059999999999999998">
      <Effects />
      <Transitions />
      <BoundProperties>
        <BoundPropertyInt Name="rotateStepNinety" Value="0" />
      </BoundProperties>
    </ImageClip>
    <ImageClip extentID="532" gapBefore="0" mediaItemID="527" duration="0.059999999999999998">
      <Effects />
      <Transitions />
      <BoundProperties>
        <BoundPropertyInt Name="rotateStepNinety" Value="0" />
      </BoundProperties>
    </ImageClip>
    <ImageClip extentID="11" gapBefore="0" mediaItemID="6" duration="0.059999999999999998">
      <Effects />
      <Transitions />
      <BoundProperties>
        <BoundPropertyInt Name="rotateStepNinety" Value="0" />
      </BoundProperties>
    </ImageClip>
    <ImageClip extentID="533" gapBefore="0" mediaItemID="528" duration="0.059999999999999998">
      <Effects />
      <Transitions />
      <BoundProperties>
        <BoundPropertyInt Name="rotateStepNinety" Value="0" />
      </BoundProperties>
    </ImageClip>
    <ImageClip extentID="12" gapBefore="0" mediaItemID="7" duration="0.059999999999999998">
      <Effects />
      <Transitions />
      <BoundProperties>
        <BoundPropertyInt Name="rotateStepNinety" Value="0" />
      </BoundProperties>
    </ImageClip>
    <ImageClip extentID="534" gapBefore="0" mediaItemID="529" duration="0.059999999999999998">
      <Effects />
      <Transitions />
      <BoundProperties>
        <BoundPropertyInt Name="rotateStepNinety" Value="0" />
      </BoundProperties>
    </ImageClip>
    <ImageClip extentID="13" gapBefore="0" mediaItemID="8" duration="0.059999999999999998">
      <Effects />
      <Transitions />
      <BoundProperties>
        <BoundPropertyInt Name="rotateStepNinety" Value="0" />
      </BoundProperties>
    </ImageClip>
    <ImageClip extentID="535" gapBefore="0" mediaItemID="530" duration="0.059999999999999998">
      <Effects />
      <Transitions />
      <BoundProperties>
        <BoundPropertyInt Name="rotateStepNinety" Value="0" />
      </BoundProperties>
    </ImageClip>
    <ImageClip extentID="14" gapBefore="0" mediaItemID="9" duration="0.059999999999999998">
      <Effects />
      <Transitions />
      <BoundProperties>
        <BoundPropertyInt Name="rotateStepNinety" Value="0" />
      </BoundProperties>
    </ImageClip>
    <ImageClip extentID="536" gapBefore="0" mediaItemID="531" duration="0.059999999999999998">
      <Effects />
      <Transitions />
      <BoundProperties>
        <BoundPropertyInt Name="rotateStepNinety" Value="0" />
      </BoundProperties>
    </ImageClip>
    <ImageClip extentID="15" gapBefore="0" mediaItemID="10" duration="0.059999999999999998">
      <Effects />
      <Transitions />
      <BoundProperties>
        <BoundPropertyInt Name="rotateStepNinety" Value="0" />
      </BoundProperties>
    </ImageClip>
    <ImageClip extentID="537" gapBefore="0" mediaItemID="532" duration="0.059999999999999998">
      <Effects />
      <Transitions />
      <BoundProperties>
        <BoundPropertyInt Name="rotateStepNinety" Value="0" />
      </BoundProperties>
    </ImageClip>
    <ImageClip extentID="16" gapBefore="0" mediaItemID="11" duration="0.059999999999999998">
      <Effects />
      <Transitions />
      <BoundProperties>
        <BoundPropertyInt Name="rotateStepNinety" Value="0" />
      </BoundProperties>
    </ImageClip>
    <ImageClip extentID="538" gapBefore="0" mediaItemID="533" duration="0.059999999999999998">
      <Effects />
      <Transitions />
      <BoundProperties>
        <BoundPropertyInt Name="rotateStepNinety" Value="0" />
      </BoundProperties>
    </ImageClip>
    <ImageClip extentID="17" gapBefore="0" mediaItemID="12" duration="0.059999999999999998">
      <Effects />
      <Transitions />
      <BoundProperties>
        <BoundPropertyInt Name="rotateStepNinety" Value="0" />
      </BoundProperties>
    </ImageClip>
    <ImageClip extentID="539" gapBefore="0" mediaItemID="534" duration="0.059999999999999998">
      <Effects />
      <Transitions />
      <BoundProperties>
        <BoundPropertyInt Name="rotateStepNinety" Value="0" />
      </BoundProperties>
    </ImageClip>
    <ImageClip extentID="18" gapBefore="0" mediaItemID="13" duration="0.059999999999999998">
      <Effects />
      <Transitions />
      <BoundProperties>
        <BoundPropertyInt Name="rotateStepNinety" Value="0" />
      </BoundProperties>
    </ImageClip>
    <ImageClip extentID="540" gapBefore="0" mediaItemID="535" duration="0.059999999999999998">
      <Effects />
      <Transitions />
      <BoundProperties>
        <BoundPropertyInt Name="rotateStepNinety" Value="0" />
      </BoundProperties>
    </ImageClip>
    <ImageClip extentID="19" gapBefore="0" mediaItemID="14" duration="0.059999999999999998">
      <Effects />
      <Transitions />
      <BoundProperties>
        <BoundPropertyInt Name="rotateStepNinety" Value="0" />
      </BoundProperties>
    </ImageClip>
    <ImageClip extentID="541" gapBefore="0" mediaItemID="536" duration="0.059999999999999998">
      <Effects />
      <Transitions />
      <BoundProperties>
        <BoundPropertyInt Name="rotateStepNinety" Value="0" />
      </BoundProperties>
    </ImageClip>
    <ImageClip extentID="20" gapBefore="0" mediaItemID="15" duration="0.059999999999999998">
      <Effects />
      <Transitions />
      <BoundProperties>
        <BoundPropertyInt Name="rotateStepNinety" Value="0" />
      </BoundProperties>
    </ImageClip>
    <ImageClip extentID="542" gapBefore="0" mediaItemID="537" duration="0.059999999999999998">
      <Effects />
      <Transitions />
      <BoundProperties>
        <BoundPropertyInt Name="rotateStepNinety" Value="0" />
      </BoundProperties>
    </ImageClip>
    <ImageClip extentID="21" gapBefore="0" mediaItemID="16" duration="0.059999999999999998">
      <Effects />
      <Transitions />
      <BoundProperties>
        <BoundPropertyInt Name="rotateStepNinety" Value="0" />
      </BoundProperties>
    </ImageClip>
    <ImageClip extentID="543" gapBefore="0" mediaItemID="538" duration="0.059999999999999998">
      <Effects />
      <Transitions />
      <BoundProperties>
        <BoundPropertyInt Name="rotateStepNinety" Value="0" />
      </BoundProperties>
    </ImageClip>
    <ImageClip extentID="22" gapBefore="0" mediaItemID="17" duration="0.059999999999999998">
      <Effects />
      <Transitions />
      <BoundProperties>
        <BoundPropertyInt Name="rotateStepNinety" Value="0" />
      </BoundProperties>
    </ImageClip>
    <ImageClip extentID="544" gapBefore="0" mediaItemID="539" duration="0.059999999999999998">
      <Effects />
      <Transitions />
      <BoundProperties>
        <BoundPropertyInt Name="rotateStepNinety" Value="0" />
      </BoundProperties>
    </ImageClip>
    <ImageClip extentID="23" gapBefore="0" mediaItemID="18" duration="0.059999999999999998">
      <Effects />
      <Transitions />
      <BoundProperties>
        <BoundPropertyInt Name="rotateStepNinety" Value="0" />
      </BoundProperties>
    </ImageClip>
    <ImageClip extentID="545" gapBefore="0" mediaItemID="540" duration="0.059999999999999998">
      <Effects />
      <Transitions />
      <BoundProperties>
        <BoundPropertyInt Name="rotateStepNinety" Value="0" />
      </BoundProperties>
    </ImageClip>
    <ImageClip extentID="24" gapBefore="0" mediaItemID="19" duration="0.059999999999999998">
      <Effects />
      <Transitions />
      <BoundProperties>
        <BoundPropertyInt Name="rotateStepNinety" Value="0" />
      </BoundProperties>
    </ImageClip>
    <ImageClip extentID="546" gapBefore="0" mediaItemID="541" duration="0.059999999999999998">
      <Effects />
      <Transitions />
      <BoundProperties>
        <BoundPropertyInt Name="rotateStepNinety" Value="0" />
      </BoundProperties>
    </ImageClip>
    <ImageClip extentID="25" gapBefore="0" mediaItemID="20" duration="0.059999999999999998">
      <Effects />
      <Transitions />
      <BoundProperties>
        <BoundPropertyInt Name="rotateStepNinety" Value="0" />
      </BoundProperties>
    </ImageClip>
    <ImageClip extentID="26" gapBefore="0" mediaItemID="21" duration="0.059999999999999998">
      <Effects />
      <Transitions />
      <BoundProperties>
        <BoundPropertyInt Name="rotateStepNinety" Value="0" />
      </BoundProperties>
    </ImageClip>
    <ImageClip extentID="27" gapBefore="0" mediaItemID="22" duration="0.059999999999999998">
      <Effects />
      <Transitions />
      <BoundProperties>
        <BoundPropertyInt Name="rotateStepNinety" Value="0" />
      </BoundProperties>
    </ImageClip>
    <ImageClip extentID="28" gapBefore="0" mediaItemID="23" duration="0.059999999999999998">
      <Effects />
      <Transitions />
      <BoundProperties>
        <BoundPropertyInt Name="rotateStepNinety" Value="0" />
      </BoundProperties>
    </ImageClip>
    <ImageClip extentID="29" gapBefore="0" mediaItemID="24" duration="0.059999999999999998">
      <Effects />
      <Transitions />
      <BoundProperties>
        <BoundPropertyInt Name="rotateStepNinety" Value="0" />
      </BoundProperties>
    </ImageClip>
    <ImageClip extentID="30" gapBefore="0" mediaItemID="25" duration="0.059999999999999998">
      <Effects />
      <Transitions />
      <BoundProperties>
        <BoundPropertyInt Name="rotateStepNinety" Value="0" />
      </BoundProperties>
    </ImageClip>
    <ImageClip extentID="31" gapBefore="0" mediaItemID="26" duration="0.059999999999999998">
      <Effects />
      <Transitions />
      <BoundProperties>
        <BoundPropertyInt Name="rotateStepNinety" Value="0" />
      </BoundProperties>
    </ImageClip>
    <ImageClip extentID="32" gapBefore="0" mediaItemID="27" duration="0.059999999999999998">
      <Effects />
      <Transitions />
      <BoundProperties>
        <BoundPropertyInt Name="rotateStepNinety" Value="0" />
      </BoundProperties>
    </ImageClip>
    <ImageClip extentID="33" gapBefore="0" mediaItemID="28" duration="0.059999999999999998">
      <Effects />
      <Transitions />
      <BoundProperties>
        <BoundPropertyInt Name="rotateStepNinety" Value="0" />
      </BoundProperties>
    </ImageClip>
    <ImageClip extentID="34" gapBefore="0" mediaItemID="29" duration="0.059999999999999998">
      <Effects />
      <Transitions />
      <BoundProperties>
        <BoundPropertyInt Name="rotateStepNinety" Value="0" />
      </BoundProperties>
    </ImageClip>
    <ImageClip extentID="35" gapBefore="0" mediaItemID="30" duration="0.059999999999999998">
      <Effects />
      <Transitions />
      <BoundProperties>
        <BoundPropertyInt Name="rotateStepNinety" Value="0" />
      </BoundProperties>
    </ImageClip>
    <ImageClip extentID="36" gapBefore="0" mediaItemID="31" duration="0.059999999999999998">
      <Effects />
      <Transitions />
      <BoundProperties>
        <BoundPropertyInt Name="rotateStepNinety" Value="0" />
      </BoundProperties>
    </ImageClip>
    <ImageClip extentID="37" gapBefore="0" mediaItemID="32" duration="0.059999999999999998">
      <Effects />
      <Transitions />
      <BoundProperties>
        <BoundPropertyInt Name="rotateStepNinety" Value="0" />
      </BoundProperties>
    </ImageClip>
    <ImageClip extentID="38" gapBefore="0" mediaItemID="33" duration="0.059999999999999998">
      <Effects />
      <Transitions />
      <BoundProperties>
        <BoundPropertyInt Name="rotateStepNinety" Value="0" />
      </BoundProperties>
    </ImageClip>
    <ImageClip extentID="39" gapBefore="0" mediaItemID="34" duration="0.059999999999999998">
      <Effects />
      <Transitions />
      <BoundProperties>
        <BoundPropertyInt Name="rotateStepNinety" Value="0" />
      </BoundProperties>
    </ImageClip>
    <ImageClip extentID="40" gapBefore="0" mediaItemID="35" duration="0.059999999999999998">
      <Effects />
      <Transitions />
      <BoundProperties>
        <BoundPropertyInt Name="rotateStepNinety" Value="0" />
      </BoundProperties>
    </ImageClip>
    <ImageClip extentID="41" gapBefore="0" mediaItemID="36" duration="0.059999999999999998">
      <Effects />
      <Transitions />
      <BoundProperties>
        <BoundPropertyInt Name="rotateStepNinety" Value="0" />
      </BoundProperties>
    </ImageClip>
    <ImageClip extentID="42" gapBefore="0" mediaItemID="37" duration="0.059999999999999998">
      <Effects />
      <Transitions />
      <BoundProperties>
        <BoundPropertyInt Name="rotateStepNinety" Value="0" />
      </BoundProperties>
    </ImageClip>
    <ImageClip extentID="43" gapBefore="0" mediaItemID="38" duration="0.059999999999999998">
      <Effects />
      <Transitions />
      <BoundProperties>
        <BoundPropertyInt Name="rotateStepNinety" Value="0" />
      </BoundProperties>
    </ImageClip>
    <ImageClip extentID="44" gapBefore="0" mediaItemID="39" duration="0.059999999999999998">
      <Effects />
      <Transitions />
      <BoundProperties>
        <BoundPropertyInt Name="rotateStepNinety" Value="0" />
      </BoundProperties>
    </ImageClip>
    <ImageClip extentID="45" gapBefore="0" mediaItemID="40" duration="0.059999999999999998">
      <Effects />
      <Transitions />
      <BoundProperties>
        <BoundPropertyInt Name="rotateStepNinety" Value="0" />
      </BoundProperties>
    </ImageClip>
    <ImageClip extentID="46" gapBefore="0" mediaItemID="41" duration="0.059999999999999998">
      <Effects />
      <Transitions />
      <BoundProperties>
        <BoundPropertyInt Name="rotateStepNinety" Value="0" />
      </BoundProperties>
    </ImageClip>
    <ImageClip extentID="47" gapBefore="0" mediaItemID="42" duration="0.059999999999999998">
      <Effects />
      <Transitions />
      <BoundProperties>
        <BoundPropertyInt Name="rotateStepNinety" Value="0" />
      </BoundProperties>
    </ImageClip>
    <ImageClip extentID="48" gapBefore="0" mediaItemID="43" duration="0.059999999999999998">
      <Effects />
      <Transitions />
      <BoundProperties>
        <BoundPropertyInt Name="rotateStepNinety" Value="0" />
      </BoundProperties>
    </ImageClip>
    <ImageClip extentID="49" gapBefore="0" mediaItemID="44" duration="0.059999999999999998">
      <Effects />
      <Transitions />
      <BoundProperties>
        <BoundPropertyInt Name="rotateStepNinety" Value="0" />
      </BoundProperties>
    </ImageClip>
    <ImageClip extentID="50" gapBefore="0" mediaItemID="45" duration="0.059999999999999998">
      <Effects />
      <Transitions />
      <BoundProperties>
        <BoundPropertyInt Name="rotateStepNinety" Value="0" />
      </BoundProperties>
    </ImageClip>
    <ImageClip extentID="51" gapBefore="0" mediaItemID="46" duration="0.059999999999999998">
      <Effects />
      <Transitions />
      <BoundProperties>
        <BoundPropertyInt Name="rotateStepNinety" Value="0" />
      </BoundProperties>
    </ImageClip>
    <ImageClip extentID="52" gapBefore="0" mediaItemID="47" duration="0.059999999999999998">
      <Effects />
      <Transitions />
      <BoundProperties>
        <BoundPropertyInt Name="rotateStepNinety" Value="0" />
      </BoundProperties>
    </ImageClip>
    <ImageClip extentID="53" gapBefore="0" mediaItemID="48" duration="0.059999999999999998">
      <Effects />
      <Transitions />
      <BoundProperties>
        <BoundPropertyInt Name="rotateStepNinety" Value="0" />
      </BoundProperties>
    </ImageClip>
    <ImageClip extentID="54" gapBefore="0" mediaItemID="49" duration="0.059999999999999998">
      <Effects />
      <Transitions />
      <BoundProperties>
        <BoundPropertyInt Name="rotateStepNinety" Value="0" />
      </BoundProperties>
    </ImageClip>
    <ImageClip extentID="55" gapBefore="0" mediaItemID="50" duration="0.059999999999999998">
      <Effects />
      <Transitions />
      <BoundProperties>
        <BoundPropertyInt Name="rotateStepNinety" Value="0" />
      </BoundProperties>
    </ImageClip>
    <ImageClip extentID="56" gapBefore="0" mediaItemID="51" duration="0.059999999999999998">
      <Effects />
      <Transitions />
      <BoundProperties>
        <BoundPropertyInt Name="rotateStepNinety" Value="0" />
      </BoundProperties>
    </ImageClip>
    <ImageClip extentID="57" gapBefore="0" mediaItemID="52" duration="0.059999999999999998">
      <Effects />
      <Transitions />
      <BoundProperties>
        <BoundPropertyInt Name="rotateStepNinety" Value="0" />
      </BoundProperties>
    </ImageClip>
    <ImageClip extentID="58" gapBefore="0" mediaItemID="53" duration="0.059999999999999998">
      <Effects />
      <Transitions />
      <BoundProperties>
        <BoundPropertyInt Name="rotateStepNinety" Value="0" />
      </BoundProperties>
    </ImageClip>
    <ImageClip extentID="59" gapBefore="0" mediaItemID="54" duration="0.059999999999999998">
      <Effects />
      <Transitions />
      <BoundProperties>
        <BoundPropertyInt Name="rotateStepNinety" Value="0" />
      </BoundProperties>
    </ImageClip>
    <ImageClip extentID="60" gapBefore="0" mediaItemID="55" duration="0.059999999999999998">
      <Effects />
      <Transitions />
      <BoundProperties>
        <BoundPropertyInt Name="rotateStepNinety" Value="0" />
      </BoundProperties>
    </ImageClip>
    <ImageClip extentID="61" gapBefore="0" mediaItemID="56" duration="0.059999999999999998">
      <Effects />
      <Transitions />
      <BoundProperties>
        <BoundPropertyInt Name="rotateStepNinety" Value="0" />
      </BoundProperties>
    </ImageClip>
    <ImageClip extentID="62" gapBefore="0" mediaItemID="57" duration="0.059999999999999998">
      <Effects />
      <Transitions />
      <BoundProperties>
        <BoundPropertyInt Name="rotateStepNinety" Value="0" />
      </BoundProperties>
    </ImageClip>
    <ImageClip extentID="63" gapBefore="0" mediaItemID="58" duration="0.059999999999999998">
      <Effects />
      <Transitions />
      <BoundProperties>
        <BoundPropertyInt Name="rotateStepNinety" Value="0" />
      </BoundProperties>
    </ImageClip>
    <ImageClip extentID="64" gapBefore="0" mediaItemID="59" duration="0.059999999999999998">
      <Effects />
      <Transitions />
      <BoundProperties>
        <BoundPropertyInt Name="rotateStepNinety" Value="0" />
      </BoundProperties>
    </ImageClip>
    <ImageClip extentID="65" gapBefore="0" mediaItemID="60" duration="0.059999999999999998">
      <Effects />
      <Transitions />
      <BoundProperties>
        <BoundPropertyInt Name="rotateStepNinety" Value="0" />
      </BoundProperties>
    </ImageClip>
    <ImageClip extentID="66" gapBefore="0" mediaItemID="61" duration="0.059999999999999998">
      <Effects />
      <Transitions />
      <BoundProperties>
        <BoundPropertyInt Name="rotateStepNinety" Value="0" />
      </BoundProperties>
    </ImageClip>
    <ImageClip extentID="67" gapBefore="0" mediaItemID="62" duration="0.059999999999999998">
      <Effects />
      <Transitions />
      <BoundProperties>
        <BoundPropertyInt Name="rotateStepNinety" Value="0" />
      </BoundProperties>
    </ImageClip>
    <ImageClip extentID="68" gapBefore="0" mediaItemID="63" duration="0.059999999999999998">
      <Effects />
      <Transitions />
      <BoundProperties>
        <BoundPropertyInt Name="rotateStepNinety" Value="0" />
      </BoundProperties>
    </ImageClip>
    <ImageClip extentID="69" gapBefore="0" mediaItemID="64" duration="0.059999999999999998">
      <Effects />
      <Transitions />
      <BoundProperties>
        <BoundPropertyInt Name="rotateStepNinety" Value="0" />
      </BoundProperties>
    </ImageClip>
    <ImageClip extentID="70" gapBefore="0" mediaItemID="65" duration="0.059999999999999998">
      <Effects />
      <Transitions />
      <BoundProperties>
        <BoundPropertyInt Name="rotateStepNinety" Value="0" />
      </BoundProperties>
    </ImageClip>
    <ImageClip extentID="71" gapBefore="0" mediaItemID="66" duration="0.059999999999999998">
      <Effects />
      <Transitions />
      <BoundProperties>
        <BoundPropertyInt Name="rotateStepNinety" Value="0" />
      </BoundProperties>
    </ImageClip>
    <ImageClip extentID="72" gapBefore="0" mediaItemID="67" duration="0.059999999999999998">
      <Effects />
      <Transitions />
      <BoundProperties>
        <BoundPropertyInt Name="rotateStepNinety" Value="0" />
      </BoundProperties>
    </ImageClip>
    <ImageClip extentID="73" gapBefore="0" mediaItemID="68" duration="0.059999999999999998">
      <Effects />
      <Transitions />
      <BoundProperties>
        <BoundPropertyInt Name="rotateStepNinety" Value="0" />
      </BoundProperties>
    </ImageClip>
    <ImageClip extentID="74" gapBefore="0" mediaItemID="69" duration="0.059999999999999998">
      <Effects />
      <Transitions />
      <BoundProperties>
        <BoundPropertyInt Name="rotateStepNinety" Value="0" />
      </BoundProperties>
    </ImageClip>
    <ImageClip extentID="75" gapBefore="0" mediaItemID="70" duration="0.059999999999999998">
      <Effects />
      <Transitions />
      <BoundProperties>
        <BoundPropertyInt Name="rotateStepNinety" Value="0" />
      </BoundProperties>
    </ImageClip>
    <ImageClip extentID="76" gapBefore="0" mediaItemID="71" duration="0.059999999999999998">
      <Effects />
      <Transitions />
      <BoundProperties>
        <BoundPropertyInt Name="rotateStepNinety" Value="0" />
      </BoundProperties>
    </ImageClip>
    <ImageClip extentID="77" gapBefore="0" mediaItemID="72" duration="0.059999999999999998">
      <Effects />
      <Transitions />
      <BoundProperties>
        <BoundPropertyInt Name="rotateStepNinety" Value="0" />
      </BoundProperties>
    </ImageClip>
    <ImageClip extentID="78" gapBefore="0" mediaItemID="73" duration="0.059999999999999998">
      <Effects />
      <Transitions />
      <BoundProperties>
        <BoundPropertyInt Name="rotateStepNinety" Value="0" />
      </BoundProperties>
    </ImageClip>
    <ImageClip extentID="79" gapBefore="0" mediaItemID="74" duration="0.059999999999999998">
      <Effects />
      <Transitions />
      <BoundProperties>
        <BoundPropertyInt Name="rotateStepNinety" Value="0" />
      </BoundProperties>
    </ImageClip>
    <ImageClip extentID="80" gapBefore="0" mediaItemID="75" duration="0.059999999999999998">
      <Effects />
      <Transitions />
      <BoundProperties>
        <BoundPropertyInt Name="rotateStepNinety" Value="0" />
      </BoundProperties>
    </ImageClip>
    <ImageClip extentID="81" gapBefore="0" mediaItemID="76" duration="0.059999999999999998">
      <Effects />
      <Transitions />
      <BoundProperties>
        <BoundPropertyInt Name="rotateStepNinety" Value="0" />
      </BoundProperties>
    </ImageClip>
    <ImageClip extentID="82" gapBefore="0" mediaItemID="77" duration="0.059999999999999998">
      <Effects />
      <Transitions />
      <BoundProperties>
        <BoundPropertyInt Name="rotateStepNinety" Value="0" />
      </BoundProperties>
    </ImageClip>
    <ImageClip extentID="83" gapBefore="0" mediaItemID="78" duration="0.059999999999999998">
      <Effects />
      <Transitions />
      <BoundProperties>
        <BoundPropertyInt Name="rotateStepNinety" Value="0" />
      </BoundProperties>
    </ImageClip>
    <ImageClip extentID="84" gapBefore="0" mediaItemID="79" duration="0.059999999999999998">
      <Effects />
      <Transitions />
      <BoundProperties>
        <BoundPropertyInt Name="rotateStepNinety" Value="0" />
      </BoundProperties>
    </ImageClip>
    <ImageClip extentID="85" gapBefore="0" mediaItemID="80" duration="0.059999999999999998">
      <Effects />
      <Transitions />
      <BoundProperties>
        <BoundPropertyInt Name="rotateStepNinety" Value="0" />
      </BoundProperties>
    </ImageClip>
    <ImageClip extentID="86" gapBefore="0" mediaItemID="81" duration="0.059999999999999998">
      <Effects />
      <Transitions />
      <BoundProperties>
        <BoundPropertyInt Name="rotateStepNinety" Value="0" />
      </BoundProperties>
    </ImageClip>
    <ImageClip extentID="87" gapBefore="0" mediaItemID="82" duration="0.059999999999999998">
      <Effects />
      <Transitions />
      <BoundProperties>
        <BoundPropertyInt Name="rotateStepNinety" Value="0" />
      </BoundProperties>
    </ImageClip>
    <ImageClip extentID="88" gapBefore="0" mediaItemID="83" duration="0.059999999999999998">
      <Effects />
      <Transitions />
      <BoundProperties>
        <BoundPropertyInt Name="rotateStepNinety" Value="0" />
      </BoundProperties>
    </ImageClip>
    <ImageClip extentID="89" gapBefore="0" mediaItemID="84" duration="0.059999999999999998">
      <Effects />
      <Transitions />
      <BoundProperties>
        <BoundPropertyInt Name="rotateStepNinety" Value="0" />
      </BoundProperties>
    </ImageClip>
    <ImageClip extentID="90" gapBefore="0" mediaItemID="85" duration="0.059999999999999998">
      <Effects />
      <Transitions />
      <BoundProperties>
        <BoundPropertyInt Name="rotateStepNinety" Value="0" />
      </BoundProperties>
    </ImageClip>
    <ImageClip extentID="91" gapBefore="0" mediaItemID="86" duration="0.059999999999999998">
      <Effects />
      <Transitions />
      <BoundProperties>
        <BoundPropertyInt Name="rotateStepNinety" Value="0" />
      </BoundProperties>
    </ImageClip>
    <ImageClip extentID="92" gapBefore="0" mediaItemID="87" duration="0.059999999999999998">
      <Effects />
      <Transitions />
      <BoundProperties>
        <BoundPropertyInt Name="rotateStepNinety" Value="0" />
      </BoundProperties>
    </ImageClip>
    <ImageClip extentID="93" gapBefore="0" mediaItemID="88" duration="0.059999999999999998">
      <Effects />
      <Transitions />
      <BoundProperties>
        <BoundPropertyInt Name="rotateStepNinety" Value="0" />
      </BoundProperties>
    </ImageClip>
    <ImageClip extentID="94" gapBefore="0" mediaItemID="89" duration="0.059999999999999998">
      <Effects />
      <Transitions />
      <BoundProperties>
        <BoundPropertyInt Name="rotateStepNinety" Value="0" />
      </BoundProperties>
    </ImageClip>
    <ImageClip extentID="95" gapBefore="0" mediaItemID="90" duration="0.059999999999999998">
      <Effects />
      <Transitions />
      <BoundProperties>
        <BoundPropertyInt Name="rotateStepNinety" Value="0" />
      </BoundProperties>
    </ImageClip>
    <ImageClip extentID="96" gapBefore="0" mediaItemID="91" duration="0.059999999999999998">
      <Effects />
      <Transitions />
      <BoundProperties>
        <BoundPropertyInt Name="rotateStepNinety" Value="0" />
      </BoundProperties>
    </ImageClip>
    <ImageClip extentID="97" gapBefore="0" mediaItemID="92" duration="0.059999999999999998">
      <Effects />
      <Transitions />
      <BoundProperties>
        <BoundPropertyInt Name="rotateStepNinety" Value="0" />
      </BoundProperties>
    </ImageClip>
    <ImageClip extentID="98" gapBefore="0" mediaItemID="93" duration="0.059999999999999998">
      <Effects />
      <Transitions />
      <BoundProperties>
        <BoundPropertyInt Name="rotateStepNinety" Value="0" />
      </BoundProperties>
    </ImageClip>
    <ImageClip extentID="99" gapBefore="0" mediaItemID="94" duration="0.059999999999999998">
      <Effects />
      <Transitions />
      <BoundProperties>
        <BoundPropertyInt Name="rotateStepNinety" Value="0" />
      </BoundProperties>
    </ImageClip>
    <ImageClip extentID="100" gapBefore="0" mediaItemID="95" duration="0.059999999999999998">
      <Effects />
      <Transitions />
      <BoundProperties>
        <BoundPropertyInt Name="rotateStepNinety" Value="0" />
      </BoundProperties>
    </ImageClip>
    <ImageClip extentID="101" gapBefore="0" mediaItemID="96" duration="0.059999999999999998">
      <Effects />
      <Transitions />
      <BoundProperties>
        <BoundPropertyInt Name="rotateStepNinety" Value="0" />
      </BoundProperties>
    </ImageClip>
    <ImageClip extentID="102" gapBefore="0" mediaItemID="97" duration="0.059999999999999998">
      <Effects />
      <Transitions />
      <BoundProperties>
        <BoundPropertyInt Name="rotateStepNinety" Value="0" />
      </BoundProperties>
    </ImageClip>
    <ImageClip extentID="103" gapBefore="0" mediaItemID="98" duration="0.059999999999999998">
      <Effects />
      <Transitions />
      <BoundProperties>
        <BoundPropertyInt Name="rotateStepNinety" Value="0" />
      </BoundProperties>
    </ImageClip>
    <ImageClip extentID="104" gapBefore="0" mediaItemID="99" duration="0.059999999999999998">
      <Effects />
      <Transitions />
      <BoundProperties>
        <BoundPropertyInt Name="rotateStepNinety" Value="0" />
      </BoundProperties>
    </ImageClip>
    <ImageClip extentID="105" gapBefore="0" mediaItemID="100" duration="0.059999999999999998">
      <Effects />
      <Transitions />
      <BoundProperties>
        <BoundPropertyInt Name="rotateStepNinety" Value="0" />
      </BoundProperties>
    </ImageClip>
    <ImageClip extentID="106" gapBefore="0" mediaItemID="101" duration="0.059999999999999998">
      <Effects />
      <Transitions />
      <BoundProperties>
        <BoundPropertyInt Name="rotateStepNinety" Value="0" />
      </BoundProperties>
    </ImageClip>
    <ImageClip extentID="107" gapBefore="0" mediaItemID="102" duration="0.059999999999999998">
      <Effects />
      <Transitions />
      <BoundProperties>
        <BoundPropertyInt Name="rotateStepNinety" Value="0" />
      </BoundProperties>
    </ImageClip>
    <ImageClip extentID="108" gapBefore="0" mediaItemID="103" duration="0.059999999999999998">
      <Effects />
      <Transitions />
      <BoundProperties>
        <BoundPropertyInt Name="rotateStepNinety" Value="0" />
      </BoundProperties>
    </ImageClip>
    <ImageClip extentID="109" gapBefore="0" mediaItemID="104" duration="0.059999999999999998">
      <Effects />
      <Transitions />
      <BoundProperties>
        <BoundPropertyInt Name="rotateStepNinety" Value="0" />
      </BoundProperties>
    </ImageClip>
    <ImageClip extentID="110" gapBefore="0" mediaItemID="105" duration="0.059999999999999998">
      <Effects />
      <Transitions />
      <BoundProperties>
        <BoundPropertyInt Name="rotateStepNinety" Value="0" />
      </BoundProperties>
    </ImageClip>
    <ImageClip extentID="111" gapBefore="0" mediaItemID="106" duration="0.059999999999999998">
      <Effects />
      <Transitions />
      <BoundProperties>
        <BoundPropertyInt Name="rotateStepNinety" Value="0" />
      </BoundProperties>
    </ImageClip>
    <ImageClip extentID="112" gapBefore="0" mediaItemID="107" duration="0.059999999999999998">
      <Effects />
      <Transitions />
      <BoundProperties>
        <BoundPropertyInt Name="rotateStepNinety" Value="0" />
      </BoundProperties>
    </ImageClip>
    <ImageClip extentID="113" gapBefore="0" mediaItemID="108" duration="0.059999999999999998">
      <Effects />
      <Transitions />
      <BoundProperties>
        <BoundPropertyInt Name="rotateStepNinety" Value="0" />
      </BoundProperties>
    </ImageClip>
    <ImageClip extentID="114" gapBefore="0" mediaItemID="109" duration="0.059999999999999998">
      <Effects />
      <Transitions />
      <BoundProperties>
        <BoundPropertyInt Name="rotateStepNinety" Value="0" />
      </BoundProperties>
    </ImageClip>
    <ImageClip extentID="115" gapBefore="0" mediaItemID="110" duration="0.059999999999999998">
      <Effects />
      <Transitions />
      <BoundProperties>
        <BoundPropertyInt Name="rotateStepNinety" Value="0" />
      </BoundProperties>
    </ImageClip>
    <ImageClip extentID="116" gapBefore="0" mediaItemID="111" duration="0.059999999999999998">
      <Effects />
      <Transitions />
      <BoundProperties>
        <BoundPropertyInt Name="rotateStepNinety" Value="0" />
      </BoundProperties>
    </ImageClip>
    <ImageClip extentID="117" gapBefore="0" mediaItemID="112" duration="0.059999999999999998">
      <Effects />
      <Transitions />
      <BoundProperties>
        <BoundPropertyInt Name="rotateStepNinety" Value="0" />
      </BoundProperties>
    </ImageClip>
    <ImageClip extentID="118" gapBefore="0" mediaItemID="113" duration="0.059999999999999998">
      <Effects />
      <Transitions />
      <BoundProperties>
        <BoundPropertyInt Name="rotateStepNinety" Value="0" />
      </BoundProperties>
    </ImageClip>
    <ImageClip extentID="119" gapBefore="0" mediaItemID="114" duration="0.059999999999999998">
      <Effects />
      <Transitions />
      <BoundProperties>
        <BoundPropertyInt Name="rotateStepNinety" Value="0" />
      </BoundProperties>
    </ImageClip>
    <ImageClip extentID="120" gapBefore="0" mediaItemID="115" duration="0.059999999999999998">
      <Effects />
      <Transitions />
      <BoundProperties>
        <BoundPropertyInt Name="rotateStepNinety" Value="0" />
      </BoundProperties>
    </ImageClip>
    <ImageClip extentID="121" gapBefore="0" mediaItemID="116" duration="0.059999999999999998">
      <Effects />
      <Transitions />
      <BoundProperties>
        <BoundPropertyInt Name="rotateStepNinety" Value="0" />
      </BoundProperties>
    </ImageClip>
    <ImageClip extentID="122" gapBefore="0" mediaItemID="117" duration="0.059999999999999998">
      <Effects />
      <Transitions />
      <BoundProperties>
        <BoundPropertyInt Name="rotateStepNinety" Value="0" />
      </BoundProperties>
    </ImageClip>
    <ImageClip extentID="123" gapBefore="0" mediaItemID="118" duration="0.059999999999999998">
      <Effects />
      <Transitions />
      <BoundProperties>
        <BoundPropertyInt Name="rotateStepNinety" Value="0" />
      </BoundProperties>
    </ImageClip>
    <ImageClip extentID="124" gapBefore="0" mediaItemID="119" duration="0.059999999999999998">
      <Effects />
      <Transitions />
      <BoundProperties>
        <BoundPropertyInt Name="rotateStepNinety" Value="0" />
      </BoundProperties>
    </ImageClip>
    <ImageClip extentID="125" gapBefore="0" mediaItemID="120" duration="0.059999999999999998">
      <Effects />
      <Transitions />
      <BoundProperties>
        <BoundPropertyInt Name="rotateStepNinety" Value="0" />
      </BoundProperties>
    </ImageClip>
    <ImageClip extentID="126" gapBefore="0" mediaItemID="121" duration="0.059999999999999998">
      <Effects />
      <Transitions />
      <BoundProperties>
        <BoundPropertyInt Name="rotateStepNinety" Value="0" />
      </BoundProperties>
    </ImageClip>
    <ImageClip extentID="127" gapBefore="0" mediaItemID="122" duration="0.059999999999999998">
      <Effects />
      <Transitions />
      <BoundProperties>
        <BoundPropertyInt Name="rotateStepNinety" Value="0" />
      </BoundProperties>
    </ImageClip>
    <ImageClip extentID="128" gapBefore="0" mediaItemID="123" duration="0.059999999999999998">
      <Effects />
      <Transitions />
      <BoundProperties>
        <BoundPropertyInt Name="rotateStepNinety" Value="0" />
      </BoundProperties>
    </ImageClip>
    <ImageClip extentID="129" gapBefore="0" mediaItemID="124" duration="0.059999999999999998">
      <Effects />
      <Transitions />
      <BoundProperties>
        <BoundPropertyInt Name="rotateStepNinety" Value="0" />
      </BoundProperties>
    </ImageClip>
    <ImageClip extentID="130" gapBefore="0" mediaItemID="125" duration="0.059999999999999998">
      <Effects />
      <Transitions />
      <BoundProperties>
        <BoundPropertyInt Name="rotateStepNinety" Value="0" />
      </BoundProperties>
    </ImageClip>
    <ImageClip extentID="131" gapBefore="0" mediaItemID="126" duration="0.059999999999999998">
      <Effects />
      <Transitions />
      <BoundProperties>
        <BoundPropertyInt Name="rotateStepNinety" Value="0" />
      </BoundProperties>
    </ImageClip>
    <ImageClip extentID="132" gapBefore="0" mediaItemID="127" duration="0.059999999999999998">
      <Effects />
      <Transitions />
      <BoundProperties>
        <BoundPropertyInt Name="rotateStepNinety" Value="0" />
      </BoundProperties>
    </ImageClip>
    <ImageClip extentID="133" gapBefore="0" mediaItemID="128" duration="0.059999999999999998">
      <Effects />
      <Transitions />
      <BoundProperties>
        <BoundPropertyInt Name="rotateStepNinety" Value="0" />
      </BoundProperties>
    </ImageClip>
    <ImageClip extentID="134" gapBefore="0" mediaItemID="129" duration="0.059999999999999998">
      <Effects />
      <Transitions />
      <BoundProperties>
        <BoundPropertyInt Name="rotateStepNinety" Value="0" />
      </BoundProperties>
    </ImageClip>
    <ImageClip extentID="135" gapBefore="0" mediaItemID="130" duration="0.059999999999999998">
      <Effects />
      <Transitions />
      <BoundProperties>
        <BoundPropertyInt Name="rotateStepNinety" Value="0" />
      </BoundProperties>
    </ImageClip>
    <ImageClip extentID="136" gapBefore="0" mediaItemID="131" duration="0.059999999999999998">
      <Effects />
      <Transitions />
      <BoundProperties>
        <BoundPropertyInt Name="rotateStepNinety" Value="0" />
      </BoundProperties>
    </ImageClip>
    <ImageClip extentID="137" gapBefore="0" mediaItemID="132" duration="0.059999999999999998">
      <Effects />
      <Transitions />
      <BoundProperties>
        <BoundPropertyInt Name="rotateStepNinety" Value="0" />
      </BoundProperties>
    </ImageClip>
    <ImageClip extentID="138" gapBefore="0" mediaItemID="133" duration="0.059999999999999998">
      <Effects />
      <Transitions />
      <BoundProperties>
        <BoundPropertyInt Name="rotateStepNinety" Value="0" />
      </BoundProperties>
    </ImageClip>
    <ImageClip extentID="139" gapBefore="0" mediaItemID="134" duration="0.059999999999999998">
      <Effects />
      <Transitions />
      <BoundProperties>
        <BoundPropertyInt Name="rotateStepNinety" Value="0" />
      </BoundProperties>
    </ImageClip>
    <ImageClip extentID="140" gapBefore="0" mediaItemID="135" duration="0.059999999999999998">
      <Effects />
      <Transitions />
      <BoundProperties>
        <BoundPropertyInt Name="rotateStepNinety" Value="0" />
      </BoundProperties>
    </ImageClip>
    <ImageClip extentID="141" gapBefore="0" mediaItemID="136" duration="0.059999999999999998">
      <Effects />
      <Transitions />
      <BoundProperties>
        <BoundPropertyInt Name="rotateStepNinety" Value="0" />
      </BoundProperties>
    </ImageClip>
    <ImageClip extentID="142" gapBefore="0" mediaItemID="137" duration="0.059999999999999998">
      <Effects />
      <Transitions />
      <BoundProperties>
        <BoundPropertyInt Name="rotateStepNinety" Value="0" />
      </BoundProperties>
    </ImageClip>
    <ImageClip extentID="143" gapBefore="0" mediaItemID="138" duration="0.059999999999999998">
      <Effects />
      <Transitions />
      <BoundProperties>
        <BoundPropertyInt Name="rotateStepNinety" Value="0" />
      </BoundProperties>
    </ImageClip>
    <ImageClip extentID="144" gapBefore="0" mediaItemID="139" duration="0.059999999999999998">
      <Effects />
      <Transitions />
      <BoundProperties>
        <BoundPropertyInt Name="rotateStepNinety" Value="0" />
      </BoundProperties>
    </ImageClip>
    <ImageClip extentID="145" gapBefore="0" mediaItemID="140" duration="0.059999999999999998">
      <Effects />
      <Transitions />
      <BoundProperties>
        <BoundPropertyInt Name="rotateStepNinety" Value="0" />
      </BoundProperties>
    </ImageClip>
    <ImageClip extentID="146" gapBefore="0" mediaItemID="141" duration="0.059999999999999998">
      <Effects />
      <Transitions />
      <BoundProperties>
        <BoundPropertyInt Name="rotateStepNinety" Value="0" />
      </BoundProperties>
    </ImageClip>
    <ImageClip extentID="147" gapBefore="0" mediaItemID="142" duration="0.059999999999999998">
      <Effects />
      <Transitions />
      <BoundProperties>
        <BoundPropertyInt Name="rotateStepNinety" Value="0" />
      </BoundProperties>
    </ImageClip>
    <ImageClip extentID="148" gapBefore="0" mediaItemID="143" duration="0.059999999999999998">
      <Effects />
      <Transitions />
      <BoundProperties>
        <BoundPropertyInt Name="rotateStepNinety" Value="0" />
      </BoundProperties>
    </ImageClip>
    <ImageClip extentID="149" gapBefore="0" mediaItemID="144" duration="0.059999999999999998">
      <Effects />
      <Transitions />
      <BoundProperties>
        <BoundPropertyInt Name="rotateStepNinety" Value="0" />
      </BoundProperties>
    </ImageClip>
    <ImageClip extentID="150" gapBefore="0" mediaItemID="145" duration="0.059999999999999998">
      <Effects />
      <Transitions />
      <BoundProperties>
        <BoundPropertyInt Name="rotateStepNinety" Value="0" />
      </BoundProperties>
    </ImageClip>
    <ImageClip extentID="151" gapBefore="0" mediaItemID="146" duration="0.059999999999999998">
      <Effects />
      <Transitions />
      <BoundProperties>
        <BoundPropertyInt Name="rotateStepNinety" Value="0" />
      </BoundProperties>
    </ImageClip>
    <ImageClip extentID="152" gapBefore="0" mediaItemID="147" duration="0.059999999999999998">
      <Effects />
      <Transitions />
      <BoundProperties>
        <BoundPropertyInt Name="rotateStepNinety" Value="0" />
      </BoundProperties>
    </ImageClip>
    <ImageClip extentID="153" gapBefore="0" mediaItemID="148" duration="0.059999999999999998">
      <Effects />
      <Transitions />
      <BoundProperties>
        <BoundPropertyInt Name="rotateStepNinety" Value="0" />
      </BoundProperties>
    </ImageClip>
    <ImageClip extentID="154" gapBefore="0" mediaItemID="149" duration="0.059999999999999998">
      <Effects />
      <Transitions />
      <BoundProperties>
        <BoundPropertyInt Name="rotateStepNinety" Value="0" />
      </BoundProperties>
    </ImageClip>
    <ImageClip extentID="155" gapBefore="0" mediaItemID="150" duration="0.059999999999999998">
      <Effects />
      <Transitions />
      <BoundProperties>
        <BoundPropertyInt Name="rotateStepNinety" Value="0" />
      </BoundProperties>
    </ImageClip>
    <ImageClip extentID="156" gapBefore="0" mediaItemID="151" duration="0.059999999999999998">
      <Effects />
      <Transitions />
      <BoundProperties>
        <BoundPropertyInt Name="rotateStepNinety" Value="0" />
      </BoundProperties>
    </ImageClip>
    <ImageClip extentID="157" gapBefore="0" mediaItemID="152" duration="0.059999999999999998">
      <Effects />
      <Transitions />
      <BoundProperties>
        <BoundPropertyInt Name="rotateStepNinety" Value="0" />
      </BoundProperties>
    </ImageClip>
    <ImageClip extentID="158" gapBefore="0" mediaItemID="153" duration="0.059999999999999998">
      <Effects />
      <Transitions />
      <BoundProperties>
        <BoundPropertyInt Name="rotateStepNinety" Value="0" />
      </BoundProperties>
    </ImageClip>
    <ImageClip extentID="159" gapBefore="0" mediaItemID="154" duration="0.059999999999999998">
      <Effects />
      <Transitions />
      <BoundProperties>
        <BoundPropertyInt Name="rotateStepNinety" Value="0" />
      </BoundProperties>
    </ImageClip>
    <ImageClip extentID="160" gapBefore="0" mediaItemID="155" duration="0.059999999999999998">
      <Effects />
      <Transitions />
      <BoundProperties>
        <BoundPropertyInt Name="rotateStepNinety" Value="0" />
      </BoundProperties>
    </ImageClip>
    <ImageClip extentID="161" gapBefore="0" mediaItemID="156" duration="0.059999999999999998">
      <Effects />
      <Transitions />
      <BoundProperties>
        <BoundPropertyInt Name="rotateStepNinety" Value="0" />
      </BoundProperties>
    </ImageClip>
    <ImageClip extentID="162" gapBefore="0" mediaItemID="157" duration="0.059999999999999998">
      <Effects />
      <Transitions />
      <BoundProperties>
        <BoundPropertyInt Name="rotateStepNinety" Value="0" />
      </BoundProperties>
    </ImageClip>
    <ImageClip extentID="163" gapBefore="0" mediaItemID="158" duration="0.059999999999999998">
      <Effects />
      <Transitions />
      <BoundProperties>
        <BoundPropertyInt Name="rotateStepNinety" Value="0" />
      </BoundProperties>
    </ImageClip>
    <ImageClip extentID="164" gapBefore="0" mediaItemID="159" duration="0.059999999999999998">
      <Effects />
      <Transitions />
      <BoundProperties>
        <BoundPropertyInt Name="rotateStepNinety" Value="0" />
      </BoundProperties>
    </ImageClip>
    <ImageClip extentID="165" gapBefore="0" mediaItemID="160" duration="0.059999999999999998">
      <Effects />
      <Transitions />
      <BoundProperties>
        <BoundPropertyInt Name="rotateStepNinety" Value="0" />
      </BoundProperties>
    </ImageClip>
    <ImageClip extentID="166" gapBefore="0" mediaItemID="161" duration="0.059999999999999998">
      <Effects />
      <Transitions />
      <BoundProperties>
        <BoundPropertyInt Name="rotateStepNinety" Value="0" />
      </BoundProperties>
    </ImageClip>
    <ImageClip extentID="167" gapBefore="0" mediaItemID="162" duration="0.059999999999999998">
      <Effects />
      <Transitions />
      <BoundProperties>
        <BoundPropertyInt Name="rotateStepNinety" Value="0" />
      </BoundProperties>
    </ImageClip>
    <ImageClip extentID="168" gapBefore="0" mediaItemID="163" duration="0.059999999999999998">
      <Effects />
      <Transitions />
      <BoundProperties>
        <BoundPropertyInt Name="rotateStepNinety" Value="0" />
      </BoundProperties>
    </ImageClip>
    <ImageClip extentID="169" gapBefore="0" mediaItemID="164" duration="0.059999999999999998">
      <Effects />
      <Transitions />
      <BoundProperties>
        <BoundPropertyInt Name="rotateStepNinety" Value="0" />
      </BoundProperties>
    </ImageClip>
    <ImageClip extentID="170" gapBefore="0" mediaItemID="165" duration="0.059999999999999998">
      <Effects />
      <Transitions />
      <BoundProperties>
        <BoundPropertyInt Name="rotateStepNinety" Value="0" />
      </BoundProperties>
    </ImageClip>
    <ImageClip extentID="171" gapBefore="0" mediaItemID="166" duration="0.059999999999999998">
      <Effects />
      <Transitions />
      <BoundProperties>
        <BoundPropertyInt Name="rotateStepNinety" Value="0" />
      </BoundProperties>
    </ImageClip>
    <ImageClip extentID="172" gapBefore="0" mediaItemID="167" duration="0.059999999999999998">
      <Effects />
      <Transitions />
      <BoundProperties>
        <BoundPropertyInt Name="rotateStepNinety" Value="0" />
      </BoundProperties>
    </ImageClip>
    <ImageClip extentID="173" gapBefore="0" mediaItemID="168" duration="0.059999999999999998">
      <Effects />
      <Transitions />
      <BoundProperties>
        <BoundPropertyInt Name="rotateStepNinety" Value="0" />
      </BoundProperties>
    </ImageClip>
    <ImageClip extentID="174" gapBefore="0" mediaItemID="169" duration="0.059999999999999998">
      <Effects />
      <Transitions />
      <BoundProperties>
        <BoundPropertyInt Name="rotateStepNinety" Value="0" />
      </BoundProperties>
    </ImageClip>
    <ImageClip extentID="175" gapBefore="0" mediaItemID="170" duration="0.059999999999999998">
      <Effects />
      <Transitions />
      <BoundProperties>
        <BoundPropertyInt Name="rotateStepNinety" Value="0" />
      </BoundProperties>
    </ImageClip>
    <ImageClip extentID="176" gapBefore="0" mediaItemID="171" duration="0.059999999999999998">
      <Effects />
      <Transitions />
      <BoundProperties>
        <BoundPropertyInt Name="rotateStepNinety" Value="0" />
      </BoundProperties>
    </ImageClip>
    <ImageClip extentID="177" gapBefore="0" mediaItemID="172" duration="0.059999999999999998">
      <Effects />
      <Transitions />
      <BoundProperties>
        <BoundPropertyInt Name="rotateStepNinety" Value="0" />
      </BoundProperties>
    </ImageClip>
    <ImageClip extentID="178" gapBefore="0" mediaItemID="173" duration="0.059999999999999998">
      <Effects />
      <Transitions />
      <BoundProperties>
        <BoundPropertyInt Name="rotateStepNinety" Value="0" />
      </BoundProperties>
    </ImageClip>
    <ImageClip extentID="179" gapBefore="0" mediaItemID="174" duration="0.059999999999999998">
      <Effects />
      <Transitions />
      <BoundProperties>
        <BoundPropertyInt Name="rotateStepNinety" Value="0" />
      </BoundProperties>
    </ImageClip>
    <ImageClip extentID="180" gapBefore="0" mediaItemID="175" duration="0.059999999999999998">
      <Effects />
      <Transitions />
      <BoundProperties>
        <BoundPropertyInt Name="rotateStepNinety" Value="0" />
      </BoundProperties>
    </ImageClip>
    <ImageClip extentID="181" gapBefore="0" mediaItemID="176" duration="0.059999999999999998">
      <Effects />
      <Transitions />
      <BoundProperties>
        <BoundPropertyInt Name="rotateStepNinety" Value="0" />
      </BoundProperties>
    </ImageClip>
    <ImageClip extentID="182" gapBefore="0" mediaItemID="177" duration="0.059999999999999998">
      <Effects />
      <Transitions />
      <BoundProperties>
        <BoundPropertyInt Name="rotateStepNinety" Value="0" />
      </BoundProperties>
    </ImageClip>
    <ImageClip extentID="183" gapBefore="0" mediaItemID="178" duration="0.059999999999999998">
      <Effects />
      <Transitions />
      <BoundProperties>
        <BoundPropertyInt Name="rotateStepNinety" Value="0" />
      </BoundProperties>
    </ImageClip>
    <ImageClip extentID="184" gapBefore="0" mediaItemID="179" duration="0.059999999999999998">
      <Effects />
      <Transitions />
      <BoundProperties>
        <BoundPropertyInt Name="rotateStepNinety" Value="0" />
      </BoundProperties>
    </ImageClip>
    <ImageClip extentID="185" gapBefore="0" mediaItemID="180" duration="0.059999999999999998">
      <Effects />
      <Transitions />
      <BoundProperties>
        <BoundPropertyInt Name="rotateStepNinety" Value="0" />
      </BoundProperties>
    </ImageClip>
    <ImageClip extentID="186" gapBefore="0" mediaItemID="181" duration="0.059999999999999998">
      <Effects />
      <Transitions />
      <BoundProperties>
        <BoundPropertyInt Name="rotateStepNinety" Value="0" />
      </BoundProperties>
    </ImageClip>
    <ImageClip extentID="187" gapBefore="0" mediaItemID="182" duration="0.059999999999999998">
      <Effects />
      <Transitions />
      <BoundProperties>
        <BoundPropertyInt Name="rotateStepNinety" Value="0" />
      </BoundProperties>
    </ImageClip>
    <ImageClip extentID="188" gapBefore="0" mediaItemID="183" duration="0.059999999999999998">
      <Effects />
      <Transitions />
      <BoundProperties>
        <BoundPropertyInt Name="rotateStepNinety" Value="0" />
      </BoundProperties>
    </ImageClip>
    <ImageClip extentID="189" gapBefore="0" mediaItemID="184" duration="0.059999999999999998">
      <Effects />
      <Transitions />
      <BoundProperties>
        <BoundPropertyInt Name="rotateStepNinety" Value="0" />
      </BoundProperties>
    </ImageClip>
    <ImageClip extentID="190" gapBefore="0" mediaItemID="185" duration="0.059999999999999998">
      <Effects />
      <Transitions />
      <BoundProperties>
        <BoundPropertyInt Name="rotateStepNinety" Value="0" />
      </BoundProperties>
    </ImageClip>
    <ImageClip extentID="191" gapBefore="0" mediaItemID="186" duration="0.059999999999999998">
      <Effects />
      <Transitions />
      <BoundProperties>
        <BoundPropertyInt Name="rotateStepNinety" Value="0" />
      </BoundProperties>
    </ImageClip>
    <ImageClip extentID="192" gapBefore="0" mediaItemID="187" duration="0.059999999999999998">
      <Effects />
      <Transitions />
      <BoundProperties>
        <BoundPropertyInt Name="rotateStepNinety" Value="0" />
      </BoundProperties>
    </ImageClip>
    <ImageClip extentID="193" gapBefore="0" mediaItemID="188" duration="0.059999999999999998">
      <Effects />
      <Transitions />
      <BoundProperties>
        <BoundPropertyInt Name="rotateStepNinety" Value="0" />
      </BoundProperties>
    </ImageClip>
    <ImageClip extentID="194" gapBefore="0" mediaItemID="189" duration="0.059999999999999998">
      <Effects />
      <Transitions />
      <BoundProperties>
        <BoundPropertyInt Name="rotateStepNinety" Value="0" />
      </BoundProperties>
    </ImageClip>
    <ImageClip extentID="195" gapBefore="0" mediaItemID="190" duration="0.059999999999999998">
      <Effects />
      <Transitions />
      <BoundProperties>
        <BoundPropertyInt Name="rotateStepNinety" Value="0" />
      </BoundProperties>
    </ImageClip>
    <ImageClip extentID="196" gapBefore="0" mediaItemID="191" duration="0.059999999999999998">
      <Effects />
      <Transitions />
      <BoundProperties>
        <BoundPropertyInt Name="rotateStepNinety" Value="0" />
      </BoundProperties>
    </ImageClip>
    <ImageClip extentID="197" gapBefore="0" mediaItemID="192" duration="0.059999999999999998">
      <Effects />
      <Transitions />
      <BoundProperties>
        <BoundPropertyInt Name="rotateStepNinety" Value="0" />
      </BoundProperties>
    </ImageClip>
    <ImageClip extentID="198" gapBefore="0" mediaItemID="193" duration="0.059999999999999998">
      <Effects />
      <Transitions />
      <BoundProperties>
        <BoundPropertyInt Name="rotateStepNinety" Value="0" />
      </BoundProperties>
    </ImageClip>
    <ImageClip extentID="199" gapBefore="0" mediaItemID="194" duration="0.059999999999999998">
      <Effects />
      <Transitions />
      <BoundProperties>
        <BoundPropertyInt Name="rotateStepNinety" Value="0" />
      </BoundProperties>
    </ImageClip>
    <ImageClip extentID="200" gapBefore="0" mediaItemID="195" duration="0.059999999999999998">
      <Effects />
      <Transitions />
      <BoundProperties>
        <BoundPropertyInt Name="rotateStepNinety" Value="0" />
      </BoundProperties>
    </ImageClip>
    <ImageClip extentID="201" gapBefore="0" mediaItemID="196" duration="0.059999999999999998">
      <Effects />
      <Transitions />
      <BoundProperties>
        <BoundPropertyInt Name="rotateStepNinety" Value="0" />
      </BoundProperties>
    </ImageClip>
    <ImageClip extentID="202" gapBefore="0" mediaItemID="197" duration="0.059999999999999998">
      <Effects />
      <Transitions />
      <BoundProperties>
        <BoundPropertyInt Name="rotateStepNinety" Value="0" />
      </BoundProperties>
    </ImageClip>
    <ImageClip extentID="203" gapBefore="0" mediaItemID="198" duration="0.059999999999999998">
      <Effects />
      <Transitions />
      <BoundProperties>
        <BoundPropertyInt Name="rotateStepNinety" Value="0" />
      </BoundProperties>
    </ImageClip>
    <ImageClip extentID="204" gapBefore="0" mediaItemID="199" duration="0.059999999999999998">
      <Effects />
      <Transitions />
      <BoundProperties>
        <BoundPropertyInt Name="rotateStepNinety" Value="0" />
      </BoundProperties>
    </ImageClip>
    <ImageClip extentID="205" gapBefore="0" mediaItemID="200" duration="0.059999999999999998">
      <Effects />
      <Transitions />
      <BoundProperties>
        <BoundPropertyInt Name="rotateStepNinety" Value="0" />
      </BoundProperties>
    </ImageClip>
    <ImageClip extentID="206" gapBefore="0" mediaItemID="201" duration="0.059999999999999998">
      <Effects />
      <Transitions />
      <BoundProperties>
        <BoundPropertyInt Name="rotateStepNinety" Value="0" />
      </BoundProperties>
    </ImageClip>
    <ImageClip extentID="207" gapBefore="0" mediaItemID="202" duration="0.059999999999999998">
      <Effects />
      <Transitions />
      <BoundProperties>
        <BoundPropertyInt Name="rotateStepNinety" Value="0" />
      </BoundProperties>
    </ImageClip>
    <ImageClip extentID="208" gapBefore="0" mediaItemID="203" duration="0.059999999999999998">
      <Effects />
      <Transitions />
      <BoundProperties>
        <BoundPropertyInt Name="rotateStepNinety" Value="0" />
      </BoundProperties>
    </ImageClip>
    <ImageClip extentID="209" gapBefore="0" mediaItemID="204" duration="0.059999999999999998">
      <Effects />
      <Transitions />
      <BoundProperties>
        <BoundPropertyInt Name="rotateStepNinety" Value="0" />
      </BoundProperties>
    </ImageClip>
    <ImageClip extentID="210" gapBefore="0" mediaItemID="205" duration="0.059999999999999998">
      <Effects />
      <Transitions />
      <BoundProperties>
        <BoundPropertyInt Name="rotateStepNinety" Value="0" />
      </BoundProperties>
    </ImageClip>
    <ImageClip extentID="211" gapBefore="0" mediaItemID="206" duration="0.059999999999999998">
      <Effects />
      <Transitions />
      <BoundProperties>
        <BoundPropertyInt Name="rotateStepNinety" Value="0" />
      </BoundProperties>
    </ImageClip>
    <ImageClip extentID="212" gapBefore="0" mediaItemID="207" duration="0.059999999999999998">
      <Effects />
      <Transitions />
      <BoundProperties>
        <BoundPropertyInt Name="rotateStepNinety" Value="0" />
      </BoundProperties>
    </ImageClip>
    <ImageClip extentID="213" gapBefore="0" mediaItemID="208" duration="0.059999999999999998">
      <Effects />
      <Transitions />
      <BoundProperties>
        <BoundPropertyInt Name="rotateStepNinety" Value="0" />
      </BoundProperties>
    </ImageClip>
    <ImageClip extentID="214" gapBefore="0" mediaItemID="209" duration="0.059999999999999998">
      <Effects />
      <Transitions />
      <BoundProperties>
        <BoundPropertyInt Name="rotateStepNinety" Value="0" />
      </BoundProperties>
    </ImageClip>
    <ImageClip extentID="215" gapBefore="0" mediaItemID="210" duration="0.059999999999999998">
      <Effects />
      <Transitions />
      <BoundProperties>
        <BoundPropertyInt Name="rotateStepNinety" Value="0" />
      </BoundProperties>
    </ImageClip>
    <ImageClip extentID="216" gapBefore="0" mediaItemID="211" duration="0.059999999999999998">
      <Effects />
      <Transitions />
      <BoundProperties>
        <BoundPropertyInt Name="rotateStepNinety" Value="0" />
      </BoundProperties>
    </ImageClip>
    <ImageClip extentID="217" gapBefore="0" mediaItemID="212" duration="0.059999999999999998">
      <Effects />
      <Transitions />
      <BoundProperties>
        <BoundPropertyInt Name="rotateStepNinety" Value="0" />
      </BoundProperties>
    </ImageClip>
    <ImageClip extentID="218" gapBefore="0" mediaItemID="213" duration="0.059999999999999998">
      <Effects />
      <Transitions />
      <BoundProperties>
        <BoundPropertyInt Name="rotateStepNinety" Value="0" />
      </BoundProperties>
    </ImageClip>
    <ImageClip extentID="219" gapBefore="0" mediaItemID="214" duration="0.059999999999999998">
      <Effects />
      <Transitions />
      <BoundProperties>
        <BoundPropertyInt Name="rotateStepNinety" Value="0" />
      </BoundProperties>
    </ImageClip>
    <ImageClip extentID="220" gapBefore="0" mediaItemID="215" duration="0.059999999999999998">
      <Effects />
      <Transitions />
      <BoundProperties>
        <BoundPropertyInt Name="rotateStepNinety" Value="0" />
      </BoundProperties>
    </ImageClip>
    <ImageClip extentID="221" gapBefore="0" mediaItemID="216" duration="0.059999999999999998">
      <Effects />
      <Transitions />
      <BoundProperties>
        <BoundPropertyInt Name="rotateStepNinety" Value="0" />
      </BoundProperties>
    </ImageClip>
    <ImageClip extentID="222" gapBefore="0" mediaItemID="217" duration="0.059999999999999998">
      <Effects />
      <Transitions />
      <BoundProperties>
        <BoundPropertyInt Name="rotateStepNinety" Value="0" />
      </BoundProperties>
    </ImageClip>
    <ImageClip extentID="223" gapBefore="0" mediaItemID="218" duration="0.059999999999999998">
      <Effects />
      <Transitions />
      <BoundProperties>
        <BoundPropertyInt Name="rotateStepNinety" Value="0" />
      </BoundProperties>
    </ImageClip>
    <ImageClip extentID="224" gapBefore="0" mediaItemID="219" duration="0.059999999999999998">
      <Effects />
      <Transitions />
      <BoundProperties>
        <BoundPropertyInt Name="rotateStepNinety" Value="0" />
      </BoundProperties>
    </ImageClip>
    <ImageClip extentID="225" gapBefore="0" mediaItemID="220" duration="0.059999999999999998">
      <Effects />
      <Transitions />
      <BoundProperties>
        <BoundPropertyInt Name="rotateStepNinety" Value="0" />
      </BoundProperties>
    </ImageClip>
    <ImageClip extentID="226" gapBefore="0" mediaItemID="221" duration="0.059999999999999998">
      <Effects />
      <Transitions />
      <BoundProperties>
        <BoundPropertyInt Name="rotateStepNinety" Value="0" />
      </BoundProperties>
    </ImageClip>
    <ImageClip extentID="227" gapBefore="0" mediaItemID="222" duration="0.059999999999999998">
      <Effects />
      <Transitions />
      <BoundProperties>
        <BoundPropertyInt Name="rotateStepNinety" Value="0" />
      </BoundProperties>
    </ImageClip>
    <ImageClip extentID="228" gapBefore="0" mediaItemID="223" duration="0.059999999999999998">
      <Effects />
      <Transitions />
      <BoundProperties>
        <BoundPropertyInt Name="rotateStepNinety" Value="0" />
      </BoundProperties>
    </ImageClip>
    <ImageClip extentID="229" gapBefore="0" mediaItemID="224" duration="0.059999999999999998">
      <Effects />
      <Transitions />
      <BoundProperties>
        <BoundPropertyInt Name="rotateStepNinety" Value="0" />
      </BoundProperties>
    </ImageClip>
    <ImageClip extentID="230" gapBefore="0" mediaItemID="225" duration="0.059999999999999998">
      <Effects />
      <Transitions />
      <BoundProperties>
        <BoundPropertyInt Name="rotateStepNinety" Value="0" />
      </BoundProperties>
    </ImageClip>
    <ImageClip extentID="231" gapBefore="0" mediaItemID="226" duration="0.059999999999999998">
      <Effects />
      <Transitions />
      <BoundProperties>
        <BoundPropertyInt Name="rotateStepNinety" Value="0" />
      </BoundProperties>
    </ImageClip>
    <ImageClip extentID="232" gapBefore="0" mediaItemID="227" duration="0.059999999999999998">
      <Effects />
      <Transitions />
      <BoundProperties>
        <BoundPropertyInt Name="rotateStepNinety" Value="0" />
      </BoundProperties>
    </ImageClip>
    <ImageClip extentID="233" gapBefore="0" mediaItemID="228" duration="0.059999999999999998">
      <Effects />
      <Transitions />
      <BoundProperties>
        <BoundPropertyInt Name="rotateStepNinety" Value="0" />
      </BoundProperties>
    </ImageClip>
    <ImageClip extentID="234" gapBefore="0" mediaItemID="229" duration="0.059999999999999998">
      <Effects />
      <Transitions />
      <BoundProperties>
        <BoundPropertyInt Name="rotateStepNinety" Value="0" />
      </BoundProperties>
    </ImageClip>
    <ImageClip extentID="235" gapBefore="0" mediaItemID="230" duration="0.059999999999999998">
      <Effects />
      <Transitions />
      <BoundProperties>
        <BoundPropertyInt Name="rotateStepNinety" Value="0" />
      </BoundProperties>
    </ImageClip>
    <ImageClip extentID="236" gapBefore="0" mediaItemID="231" duration="0.059999999999999998">
      <Effects />
      <Transitions />
      <BoundProperties>
        <BoundPropertyInt Name="rotateStepNinety" Value="0" />
      </BoundProperties>
    </ImageClip>
    <ImageClip extentID="237" gapBefore="0" mediaItemID="232" duration="0.059999999999999998">
      <Effects />
      <Transitions />
      <BoundProperties>
        <BoundPropertyInt Name="rotateStepNinety" Value="0" />
      </BoundProperties>
    </ImageClip>
    <ImageClip extentID="238" gapBefore="0" mediaItemID="233" duration="0.059999999999999998">
      <Effects />
      <Transitions />
      <BoundProperties>
        <BoundPropertyInt Name="rotateStepNinety" Value="0" />
      </BoundProperties>
    </ImageClip>
    <ImageClip extentID="239" gapBefore="0" mediaItemID="234" duration="0.059999999999999998">
      <Effects />
      <Transitions />
      <BoundProperties>
        <BoundPropertyInt Name="rotateStepNinety" Value="0" />
      </BoundProperties>
    </ImageClip>
    <ImageClip extentID="240" gapBefore="0" mediaItemID="235" duration="0.059999999999999998">
      <Effects />
      <Transitions />
      <BoundProperties>
        <BoundPropertyInt Name="rotateStepNinety" Value="0" />
      </BoundProperties>
    </ImageClip>
    <ImageClip extentID="241" gapBefore="0" mediaItemID="236" duration="0.059999999999999998">
      <Effects />
      <Transitions />
      <BoundProperties>
        <BoundPropertyInt Name="rotateStepNinety" Value="0" />
      </BoundProperties>
    </ImageClip>
    <ImageClip extentID="242" gapBefore="0" mediaItemID="237" duration="0.059999999999999998">
      <Effects />
      <Transitions />
      <BoundProperties>
        <BoundPropertyInt Name="rotateStepNinety" Value="0" />
      </BoundProperties>
    </ImageClip>
    <ImageClip extentID="243" gapBefore="0" mediaItemID="238" duration="0.059999999999999998">
      <Effects />
      <Transitions />
      <BoundProperties>
        <BoundPropertyInt Name="rotateStepNinety" Value="0" />
      </BoundProperties>
    </ImageClip>
    <ImageClip extentID="244" gapBefore="0" mediaItemID="239" duration="0.059999999999999998">
      <Effects />
      <Transitions />
      <BoundProperties>
        <BoundPropertyInt Name="rotateStepNinety" Value="0" />
      </BoundProperties>
    </ImageClip>
    <ImageClip extentID="245" gapBefore="0" mediaItemID="240" duration="0.059999999999999998">
      <Effects />
      <Transitions />
      <BoundProperties>
        <BoundPropertyInt Name="rotateStepNinety" Value="0" />
      </BoundProperties>
    </ImageClip>
    <ImageClip extentID="246" gapBefore="0" mediaItemID="241" duration="0.059999999999999998">
      <Effects />
      <Transitions />
      <BoundProperties>
        <BoundPropertyInt Name="rotateStepNinety" Value="0" />
      </BoundProperties>
    </ImageClip>
    <ImageClip extentID="247" gapBefore="0" mediaItemID="242" duration="0.059999999999999998">
      <Effects />
      <Transitions />
      <BoundProperties>
        <BoundPropertyInt Name="rotateStepNinety" Value="0" />
      </BoundProperties>
    </ImageClip>
    <ImageClip extentID="248" gapBefore="0" mediaItemID="243" duration="0.059999999999999998">
      <Effects />
      <Transitions />
      <BoundProperties>
        <BoundPropertyInt Name="rotateStepNinety" Value="0" />
      </BoundProperties>
    </ImageClip>
    <ImageClip extentID="249" gapBefore="0" mediaItemID="244" duration="0.059999999999999998">
      <Effects />
      <Transitions />
      <BoundProperties>
        <BoundPropertyInt Name="rotateStepNinety" Value="0" />
      </BoundProperties>
    </ImageClip>
    <ImageClip extentID="250" gapBefore="0" mediaItemID="245" duration="0.059999999999999998">
      <Effects />
      <Transitions />
      <BoundProperties>
        <BoundPropertyInt Name="rotateStepNinety" Value="0" />
      </BoundProperties>
    </ImageClip>
    <ImageClip extentID="251" gapBefore="0" mediaItemID="246" duration="0.059999999999999998">
      <Effects />
      <Transitions />
      <BoundProperties>
        <BoundPropertyInt Name="rotateStepNinety" Value="0" />
      </BoundProperties>
    </ImageClip>
    <ImageClip extentID="252" gapBefore="0" mediaItemID="247" duration="0.059999999999999998">
      <Effects />
      <Transitions />
      <BoundProperties>
        <BoundPropertyInt Name="rotateStepNinety" Value="0" />
      </BoundProperties>
    </ImageClip>
    <ImageClip extentID="253" gapBefore="0" mediaItemID="248" duration="0.059999999999999998">
      <Effects />
      <Transitions />
      <BoundProperties>
        <BoundPropertyInt Name="rotateStepNinety" Value="0" />
      </BoundProperties>
    </ImageClip>
    <ImageClip extentID="254" gapBefore="0" mediaItemID="249" duration="0.059999999999999998">
      <Effects />
      <Transitions />
      <BoundProperties>
        <BoundPropertyInt Name="rotateStepNinety" Value="0" />
      </BoundProperties>
    </ImageClip>
    <ImageClip extentID="255" gapBefore="0" mediaItemID="250" duration="0.059999999999999998">
      <Effects />
      <Transitions />
      <BoundProperties>
        <BoundPropertyInt Name="rotateStepNinety" Value="0" />
      </BoundProperties>
    </ImageClip>
    <ImageClip extentID="256" gapBefore="0" mediaItemID="251" duration="0.059999999999999998">
      <Effects />
      <Transitions />
      <BoundProperties>
        <BoundPropertyInt Name="rotateStepNinety" Value="0" />
      </BoundProperties>
    </ImageClip>
    <ImageClip extentID="257" gapBefore="0" mediaItemID="252" duration="0.059999999999999998">
      <Effects />
      <Transitions />
      <BoundProperties>
        <BoundPropertyInt Name="rotateStepNinety" Value="0" />
      </BoundProperties>
    </ImageClip>
    <ImageClip extentID="258" gapBefore="0" mediaItemID="253" duration="0.059999999999999998">
      <Effects />
      <Transitions />
      <BoundProperties>
        <BoundPropertyInt Name="rotateStepNinety" Value="0" />
      </BoundProperties>
    </ImageClip>
    <ImageClip extentID="259" gapBefore="0" mediaItemID="254" duration="0.059999999999999998">
      <Effects />
      <Transitions />
      <BoundProperties>
        <BoundPropertyInt Name="rotateStepNinety" Value="0" />
      </BoundProperties>
    </ImageClip>
    <ImageClip extentID="260" gapBefore="0" mediaItemID="255" duration="0.059999999999999998">
      <Effects />
      <Transitions />
      <BoundProperties>
        <BoundPropertyInt Name="rotateStepNinety" Value="0" />
      </BoundProperties>
    </ImageClip>
    <ImageClip extentID="261" gapBefore="0" mediaItemID="256" duration="0.059999999999999998">
      <Effects />
      <Transitions />
      <BoundProperties>
        <BoundPropertyInt Name="rotateStepNinety" Value="0" />
      </BoundProperties>
    </ImageClip>
    <ImageClip extentID="262" gapBefore="0" mediaItemID="257" duration="0.059999999999999998">
      <Effects />
      <Transitions />
      <BoundProperties>
        <BoundPropertyInt Name="rotateStepNinety" Value="0" />
      </BoundProperties>
    </ImageClip>
    <ImageClip extentID="263" gapBefore="0" mediaItemID="258" duration="0.059999999999999998">
      <Effects />
      <Transitions />
      <BoundProperties>
        <BoundPropertyInt Name="rotateStepNinety" Value="0" />
      </BoundProperties>
    </ImageClip>
    <ImageClip extentID="264" gapBefore="0" mediaItemID="259" duration="0.059999999999999998">
      <Effects />
      <Transitions />
      <BoundProperties>
        <BoundPropertyInt Name="rotateStepNinety" Value="0" />
      </BoundProperties>
    </ImageClip>
    <ImageClip extentID="265" gapBefore="0" mediaItemID="260" duration="0.059999999999999998">
      <Effects />
      <Transitions />
      <BoundProperties>
        <BoundPropertyInt Name="rotateStepNinety" Value="0" />
      </BoundProperties>
    </ImageClip>
    <ImageClip extentID="266" gapBefore="0" mediaItemID="261" duration="0.059999999999999998">
      <Effects />
      <Transitions />
      <BoundProperties>
        <BoundPropertyInt Name="rotateStepNinety" Value="0" />
      </BoundProperties>
    </ImageClip>
    <ImageClip extentID="267" gapBefore="0" mediaItemID="262" duration="0.059999999999999998">
      <Effects />
      <Transitions />
      <BoundProperties>
        <BoundPropertyInt Name="rotateStepNinety" Value="0" />
      </BoundProperties>
    </ImageClip>
    <ImageClip extentID="268" gapBefore="0" mediaItemID="263" duration="0.059999999999999998">
      <Effects />
      <Transitions />
      <BoundProperties>
        <BoundPropertyInt Name="rotateStepNinety" Value="0" />
      </BoundProperties>
    </ImageClip>
    <ImageClip extentID="269" gapBefore="0" mediaItemID="264" duration="0.059999999999999998">
      <Effects />
      <Transitions />
      <BoundProperties>
        <BoundPropertyInt Name="rotateStepNinety" Value="0" />
      </BoundProperties>
    </ImageClip>
    <ImageClip extentID="270" gapBefore="0" mediaItemID="265" duration="0.059999999999999998">
      <Effects />
      <Transitions />
      <BoundProperties>
        <BoundPropertyInt Name="rotateStepNinety" Value="0" />
      </BoundProperties>
    </ImageClip>
    <ImageClip extentID="271" gapBefore="0" mediaItemID="266" duration="0.059999999999999998">
      <Effects />
      <Transitions />
      <BoundProperties>
        <BoundPropertyInt Name="rotateStepNinety" Value="0" />
      </BoundProperties>
    </ImageClip>
    <ImageClip extentID="272" gapBefore="0" mediaItemID="267" duration="0.059999999999999998">
      <Effects />
      <Transitions />
      <BoundProperties>
        <BoundPropertyInt Name="rotateStepNinety" Value="0" />
      </BoundProperties>
    </ImageClip>
    <ImageClip extentID="273" gapBefore="0" mediaItemID="268" duration="0.059999999999999998">
      <Effects />
      <Transitions />
      <BoundProperties>
        <BoundPropertyInt Name="rotateStepNinety" Value="0" />
      </BoundProperties>
    </ImageClip>
    <ImageClip extentID="274" gapBefore="0" mediaItemID="269" duration="0.059999999999999998">
      <Effects />
      <Transitions />
      <BoundProperties>
        <BoundPropertyInt Name="rotateStepNinety" Value="0" />
      </BoundProperties>
    </ImageClip>
    <ImageClip extentID="275" gapBefore="0" mediaItemID="270" duration="0.059999999999999998">
      <Effects />
      <Transitions />
      <BoundProperties>
        <BoundPropertyInt Name="rotateStepNinety" Value="0" />
      </BoundProperties>
    </ImageClip>
    <ImageClip extentID="276" gapBefore="0" mediaItemID="271" duration="0.059999999999999998">
      <Effects />
      <Transitions />
      <BoundProperties>
        <BoundPropertyInt Name="rotateStepNinety" Value="0" />
      </BoundProperties>
    </ImageClip>
    <ImageClip extentID="277" gapBefore="0" mediaItemID="272" duration="0.059999999999999998">
      <Effects />
      <Transitions />
      <BoundProperties>
        <BoundPropertyInt Name="rotateStepNinety" Value="0" />
      </BoundProperties>
    </ImageClip>
    <ImageClip extentID="278" gapBefore="0" mediaItemID="273" duration="0.059999999999999998">
      <Effects />
      <Transitions />
      <BoundProperties>
        <BoundPropertyInt Name="rotateStepNinety" Value="0" />
      </BoundProperties>
    </ImageClip>
    <ImageClip extentID="279" gapBefore="0" mediaItemID="274" duration="0.059999999999999998">
      <Effects />
      <Transitions />
      <BoundProperties>
        <BoundPropertyInt Name="rotateStepNinety" Value="0" />
      </BoundProperties>
    </ImageClip>
    <ImageClip extentID="280" gapBefore="0" mediaItemID="275" duration="0.059999999999999998">
      <Effects />
      <Transitions />
      <BoundProperties>
        <BoundPropertyInt Name="rotateStepNinety" Value="0" />
      </BoundProperties>
    </ImageClip>
    <ImageClip extentID="281" gapBefore="0" mediaItemID="276" duration="0.059999999999999998">
      <Effects />
      <Transitions />
      <BoundProperties>
        <BoundPropertyInt Name="rotateStepNinety" Value="0" />
      </BoundProperties>
    </ImageClip>
    <ImageClip extentID="282" gapBefore="0" mediaItemID="277" duration="0.059999999999999998">
      <Effects />
      <Transitions />
      <BoundProperties>
        <BoundPropertyInt Name="rotateStepNinety" Value="0" />
      </BoundProperties>
    </ImageClip>
    <ImageClip extentID="283" gapBefore="0" mediaItemID="278" duration="0.059999999999999998">
      <Effects />
      <Transitions />
      <BoundProperties>
        <BoundPropertyInt Name="rotateStepNinety" Value="0" />
      </BoundProperties>
    </ImageClip>
    <ImageClip extentID="284" gapBefore="0" mediaItemID="279" duration="0.059999999999999998">
      <Effects />
      <Transitions />
      <BoundProperties>
        <BoundPropertyInt Name="rotateStepNinety" Value="0" />
      </BoundProperties>
    </ImageClip>
    <ImageClip extentID="285" gapBefore="0" mediaItemID="280" duration="0.059999999999999998">
      <Effects />
      <Transitions />
      <BoundProperties>
        <BoundPropertyInt Name="rotateStepNinety" Value="0" />
      </BoundProperties>
    </ImageClip>
    <ImageClip extentID="286" gapBefore="0" mediaItemID="281" duration="0.059999999999999998">
      <Effects />
      <Transitions />
      <BoundProperties>
        <BoundPropertyInt Name="rotateStepNinety" Value="0" />
      </BoundProperties>
    </ImageClip>
    <ImageClip extentID="287" gapBefore="0" mediaItemID="282" duration="0.059999999999999998">
      <Effects />
      <Transitions />
      <BoundProperties>
        <BoundPropertyInt Name="rotateStepNinety" Value="0" />
      </BoundProperties>
    </ImageClip>
    <ImageClip extentID="288" gapBefore="0" mediaItemID="283" duration="0.059999999999999998">
      <Effects />
      <Transitions />
      <BoundProperties>
        <BoundPropertyInt Name="rotateStepNinety" Value="0" />
      </BoundProperties>
    </ImageClip>
    <ImageClip extentID="289" gapBefore="0" mediaItemID="284" duration="0.059999999999999998">
      <Effects />
      <Transitions />
      <BoundProperties>
        <BoundPropertyInt Name="rotateStepNinety" Value="0" />
      </BoundProperties>
    </ImageClip>
    <ImageClip extentID="290" gapBefore="0" mediaItemID="285" duration="0.059999999999999998">
      <Effects />
      <Transitions />
      <BoundProperties>
        <BoundPropertyInt Name="rotateStepNinety" Value="0" />
      </BoundProperties>
    </ImageClip>
    <ImageClip extentID="291" gapBefore="0" mediaItemID="286" duration="0.059999999999999998">
      <Effects />
      <Transitions />
      <BoundProperties>
        <BoundPropertyInt Name="rotateStepNinety" Value="0" />
      </BoundProperties>
    </ImageClip>
    <ImageClip extentID="292" gapBefore="0" mediaItemID="287" duration="0.059999999999999998">
      <Effects />
      <Transitions />
      <BoundProperties>
        <BoundPropertyInt Name="rotateStepNinety" Value="0" />
      </BoundProperties>
    </ImageClip>
    <ImageClip extentID="293" gapBefore="0" mediaItemID="288" duration="0.059999999999999998">
      <Effects />
      <Transitions />
      <BoundProperties>
        <BoundPropertyInt Name="rotateStepNinety" Value="0" />
      </BoundProperties>
    </ImageClip>
    <ImageClip extentID="294" gapBefore="0" mediaItemID="289" duration="0.059999999999999998">
      <Effects />
      <Transitions />
      <BoundProperties>
        <BoundPropertyInt Name="rotateStepNinety" Value="0" />
      </BoundProperties>
    </ImageClip>
    <ImageClip extentID="295" gapBefore="0" mediaItemID="290" duration="0.059999999999999998">
      <Effects />
      <Transitions />
      <BoundProperties>
        <BoundPropertyInt Name="rotateStepNinety" Value="0" />
      </BoundProperties>
    </ImageClip>
    <ImageClip extentID="296" gapBefore="0" mediaItemID="291" duration="0.059999999999999998">
      <Effects />
      <Transitions />
      <BoundProperties>
        <BoundPropertyInt Name="rotateStepNinety" Value="0" />
      </BoundProperties>
    </ImageClip>
    <ImageClip extentID="297" gapBefore="0" mediaItemID="292" duration="0.059999999999999998">
      <Effects />
      <Transitions />
      <BoundProperties>
        <BoundPropertyInt Name="rotateStepNinety" Value="0" />
      </BoundProperties>
    </ImageClip>
    <ImageClip extentID="298" gapBefore="0" mediaItemID="293" duration="0.059999999999999998">
      <Effects />
      <Transitions />
      <BoundProperties>
        <BoundPropertyInt Name="rotateStepNinety" Value="0" />
      </BoundProperties>
    </ImageClip>
    <ImageClip extentID="299" gapBefore="0" mediaItemID="294" duration="0.059999999999999998">
      <Effects />
      <Transitions />
      <BoundProperties>
        <BoundPropertyInt Name="rotateStepNinety" Value="0" />
      </BoundProperties>
    </ImageClip>
    <ImageClip extentID="300" gapBefore="0" mediaItemID="295" duration="0.059999999999999998">
      <Effects />
      <Transitions />
      <BoundProperties>
        <BoundPropertyInt Name="rotateStepNinety" Value="0" />
      </BoundProperties>
    </ImageClip>
    <ImageClip extentID="301" gapBefore="0" mediaItemID="296" duration="0.059999999999999998">
      <Effects />
      <Transitions />
      <BoundProperties>
        <BoundPropertyInt Name="rotateStepNinety" Value="0" />
      </BoundProperties>
    </ImageClip>
    <ImageClip extentID="302" gapBefore="0" mediaItemID="297" duration="0.059999999999999998">
      <Effects />
      <Transitions />
      <BoundProperties>
        <BoundPropertyInt Name="rotateStepNinety" Value="0" />
      </BoundProperties>
    </ImageClip>
    <ImageClip extentID="303" gapBefore="0" mediaItemID="298" duration="0.059999999999999998">
      <Effects />
      <Transitions />
      <BoundProperties>
        <BoundPropertyInt Name="rotateStepNinety" Value="0" />
      </BoundProperties>
    </ImageClip>
    <ImageClip extentID="304" gapBefore="0" mediaItemID="299" duration="0.059999999999999998">
      <Effects />
      <Transitions />
      <BoundProperties>
        <BoundPropertyInt Name="rotateStepNinety" Value="0" />
      </BoundProperties>
    </ImageClip>
    <ImageClip extentID="305" gapBefore="0" mediaItemID="300" duration="0.059999999999999998">
      <Effects />
      <Transitions />
      <BoundProperties>
        <BoundPropertyInt Name="rotateStepNinety" Value="0" />
      </BoundProperties>
    </ImageClip>
    <ImageClip extentID="306" gapBefore="0" mediaItemID="301" duration="0.059999999999999998">
      <Effects />
      <Transitions />
      <BoundProperties>
        <BoundPropertyInt Name="rotateStepNinety" Value="0" />
      </BoundProperties>
    </ImageClip>
    <ImageClip extentID="307" gapBefore="0" mediaItemID="302" duration="0.059999999999999998">
      <Effects />
      <Transitions />
      <BoundProperties>
        <BoundPropertyInt Name="rotateStepNinety" Value="0" />
      </BoundProperties>
    </ImageClip>
    <ImageClip extentID="308" gapBefore="0" mediaItemID="303" duration="0.059999999999999998">
      <Effects />
      <Transitions />
      <BoundProperties>
        <BoundPropertyInt Name="rotateStepNinety" Value="0" />
      </BoundProperties>
    </ImageClip>
    <ImageClip extentID="309" gapBefore="0" mediaItemID="304" duration="0.059999999999999998">
      <Effects />
      <Transitions />
      <BoundProperties>
        <BoundPropertyInt Name="rotateStepNinety" Value="0" />
      </BoundProperties>
    </ImageClip>
    <ImageClip extentID="310" gapBefore="0" mediaItemID="305" duration="0.059999999999999998">
      <Effects />
      <Transitions />
      <BoundProperties>
        <BoundPropertyInt Name="rotateStepNinety" Value="0" />
      </BoundProperties>
    </ImageClip>
    <ImageClip extentID="311" gapBefore="0" mediaItemID="306" duration="0.059999999999999998">
      <Effects />
      <Transitions />
      <BoundProperties>
        <BoundPropertyInt Name="rotateStepNinety" Value="0" />
      </BoundProperties>
    </ImageClip>
    <ImageClip extentID="312" gapBefore="0" mediaItemID="307" duration="0.059999999999999998">
      <Effects />
      <Transitions />
      <BoundProperties>
        <BoundPropertyInt Name="rotateStepNinety" Value="0" />
      </BoundProperties>
    </ImageClip>
    <ImageClip extentID="313" gapBefore="0" mediaItemID="308" duration="0.059999999999999998">
      <Effects />
      <Transitions />
      <BoundProperties>
        <BoundPropertyInt Name="rotateStepNinety" Value="0" />
      </BoundProperties>
    </ImageClip>
    <ImageClip extentID="314" gapBefore="0" mediaItemID="309" duration="0.059999999999999998">
      <Effects />
      <Transitions />
      <BoundProperties>
        <BoundPropertyInt Name="rotateStepNinety" Value="0" />
      </BoundProperties>
    </ImageClip>
    <ImageClip extentID="315" gapBefore="0" mediaItemID="310" duration="0.059999999999999998">
      <Effects />
      <Transitions />
      <BoundProperties>
        <BoundPropertyInt Name="rotateStepNinety" Value="0" />
      </BoundProperties>
    </ImageClip>
    <ImageClip extentID="316" gapBefore="0" mediaItemID="311" duration="0.059999999999999998">
      <Effects />
      <Transitions />
      <BoundProperties>
        <BoundPropertyInt Name="rotateStepNinety" Value="0" />
      </BoundProperties>
    </ImageClip>
    <ImageClip extentID="317" gapBefore="0" mediaItemID="312" duration="0.059999999999999998">
      <Effects />
      <Transitions />
      <BoundProperties>
        <BoundPropertyInt Name="rotateStepNinety" Value="0" />
      </BoundProperties>
    </ImageClip>
    <ImageClip extentID="318" gapBefore="0" mediaItemID="313" duration="0.059999999999999998">
      <Effects />
      <Transitions />
      <BoundProperties>
        <BoundPropertyInt Name="rotateStepNinety" Value="0" />
      </BoundProperties>
    </ImageClip>
    <ImageClip extentID="319" gapBefore="0" mediaItemID="314" duration="0.059999999999999998">
      <Effects />
      <Transitions />
      <BoundProperties>
        <BoundPropertyInt Name="rotateStepNinety" Value="0" />
      </BoundProperties>
    </ImageClip>
    <ImageClip extentID="320" gapBefore="0" mediaItemID="315" duration="0.059999999999999998">
      <Effects />
      <Transitions />
      <BoundProperties>
        <BoundPropertyInt Name="rotateStepNinety" Value="0" />
      </BoundProperties>
    </ImageClip>
    <ImageClip extentID="321" gapBefore="0" mediaItemID="316" duration="0.059999999999999998">
      <Effects />
      <Transitions />
      <BoundProperties>
        <BoundPropertyInt Name="rotateStepNinety" Value="0" />
      </BoundProperties>
    </ImageClip>
    <ImageClip extentID="322" gapBefore="0" mediaItemID="317" duration="0.059999999999999998">
      <Effects />
      <Transitions />
      <BoundProperties>
        <BoundPropertyInt Name="rotateStepNinety" Value="0" />
      </BoundProperties>
    </ImageClip>
    <ImageClip extentID="323" gapBefore="0" mediaItemID="318" duration="0.059999999999999998">
      <Effects />
      <Transitions />
      <BoundProperties>
        <BoundPropertyInt Name="rotateStepNinety" Value="0" />
      </BoundProperties>
    </ImageClip>
    <ImageClip extentID="324" gapBefore="0" mediaItemID="319" duration="0.059999999999999998">
      <Effects />
      <Transitions />
      <BoundProperties>
        <BoundPropertyInt Name="rotateStepNinety" Value="0" />
      </BoundProperties>
    </ImageClip>
    <ImageClip extentID="325" gapBefore="0" mediaItemID="320" duration="0.059999999999999998">
      <Effects />
      <Transitions />
      <BoundProperties>
        <BoundPropertyInt Name="rotateStepNinety" Value="0" />
      </BoundProperties>
    </ImageClip>
    <ImageClip extentID="326" gapBefore="0" mediaItemID="321" duration="0.059999999999999998">
      <Effects />
      <Transitions />
      <BoundProperties>
        <BoundPropertyInt Name="rotateStepNinety" Value="0" />
      </BoundProperties>
    </ImageClip>
    <ImageClip extentID="327" gapBefore="0" mediaItemID="322" duration="0.059999999999999998">
      <Effects />
      <Transitions />
      <BoundProperties>
        <BoundPropertyInt Name="rotateStepNinety" Value="0" />
      </BoundProperties>
    </ImageClip>
    <ImageClip extentID="328" gapBefore="0" mediaItemID="323" duration="0.059999999999999998">
      <Effects />
      <Transitions />
      <BoundProperties>
        <BoundPropertyInt Name="rotateStepNinety" Value="0" />
      </BoundProperties>
    </ImageClip>
    <ImageClip extentID="329" gapBefore="0" mediaItemID="324" duration="0.059999999999999998">
      <Effects />
      <Transitions />
      <BoundProperties>
        <BoundPropertyInt Name="rotateStepNinety" Value="0" />
      </BoundProperties>
    </ImageClip>
    <ImageClip extentID="330" gapBefore="0" mediaItemID="325" duration="0.059999999999999998">
      <Effects />
      <Transitions />
      <BoundProperties>
        <BoundPropertyInt Name="rotateStepNinety" Value="0" />
      </BoundProperties>
    </ImageClip>
    <ImageClip extentID="331" gapBefore="0" mediaItemID="326" duration="0.059999999999999998">
      <Effects />
      <Transitions />
      <BoundProperties>
        <BoundPropertyInt Name="rotateStepNinety" Value="0" />
      </BoundProperties>
    </ImageClip>
    <ImageClip extentID="332" gapBefore="0" mediaItemID="327" duration="0.059999999999999998">
      <Effects />
      <Transitions />
      <BoundProperties>
        <BoundPropertyInt Name="rotateStepNinety" Value="0" />
      </BoundProperties>
    </ImageClip>
    <ImageClip extentID="333" gapBefore="0" mediaItemID="328" duration="0.059999999999999998">
      <Effects />
      <Transitions />
      <BoundProperties>
        <BoundPropertyInt Name="rotateStepNinety" Value="0" />
      </BoundProperties>
    </ImageClip>
    <ImageClip extentID="334" gapBefore="0" mediaItemID="329" duration="0.059999999999999998">
      <Effects />
      <Transitions />
      <BoundProperties>
        <BoundPropertyInt Name="rotateStepNinety" Value="0" />
      </BoundProperties>
    </ImageClip>
    <ImageClip extentID="335" gapBefore="0" mediaItemID="330" duration="0.059999999999999998">
      <Effects />
      <Transitions />
      <BoundProperties>
        <BoundPropertyInt Name="rotateStepNinety" Value="0" />
      </BoundProperties>
    </ImageClip>
    <ImageClip extentID="336" gapBefore="0" mediaItemID="331" duration="0.059999999999999998">
      <Effects />
      <Transitions />
      <BoundProperties>
        <BoundPropertyInt Name="rotateStepNinety" Value="0" />
      </BoundProperties>
    </ImageClip>
    <ImageClip extentID="337" gapBefore="0" mediaItemID="332" duration="0.059999999999999998">
      <Effects />
      <Transitions />
      <BoundProperties>
        <BoundPropertyInt Name="rotateStepNinety" Value="0" />
      </BoundProperties>
    </ImageClip>
    <ImageClip extentID="338" gapBefore="0" mediaItemID="333" duration="0.059999999999999998">
      <Effects />
      <Transitions />
      <BoundProperties>
        <BoundPropertyInt Name="rotateStepNinety" Value="0" />
      </BoundProperties>
    </ImageClip>
    <ImageClip extentID="339" gapBefore="0" mediaItemID="334" duration="0.059999999999999998">
      <Effects />
      <Transitions />
      <BoundProperties>
        <BoundPropertyInt Name="rotateStepNinety" Value="0" />
      </BoundProperties>
    </ImageClip>
    <ImageClip extentID="340" gapBefore="0" mediaItemID="335" duration="0.059999999999999998">
      <Effects />
      <Transitions />
      <BoundProperties>
        <BoundPropertyInt Name="rotateStepNinety" Value="0" />
      </BoundProperties>
    </ImageClip>
    <ImageClip extentID="341" gapBefore="0" mediaItemID="336" duration="0.059999999999999998">
      <Effects />
      <Transitions />
      <BoundProperties>
        <BoundPropertyInt Name="rotateStepNinety" Value="0" />
      </BoundProperties>
    </ImageClip>
    <ImageClip extentID="342" gapBefore="0" mediaItemID="337" duration="0.059999999999999998">
      <Effects />
      <Transitions />
      <BoundProperties>
        <BoundPropertyInt Name="rotateStepNinety" Value="0" />
      </BoundProperties>
    </ImageClip>
    <ImageClip extentID="343" gapBefore="0" mediaItemID="338" duration="0.059999999999999998">
      <Effects />
      <Transitions />
      <BoundProperties>
        <BoundPropertyInt Name="rotateStepNinety" Value="0" />
      </BoundProperties>
    </ImageClip>
    <ImageClip extentID="344" gapBefore="0" mediaItemID="339" duration="0.059999999999999998">
      <Effects />
      <Transitions />
      <BoundProperties>
        <BoundPropertyInt Name="rotateStepNinety" Value="0" />
      </BoundProperties>
    </ImageClip>
    <ImageClip extentID="345" gapBefore="0" mediaItemID="340" duration="0.059999999999999998">
      <Effects />
      <Transitions />
      <BoundProperties>
        <BoundPropertyInt Name="rotateStepNinety" Value="0" />
      </BoundProperties>
    </ImageClip>
    <ImageClip extentID="346" gapBefore="0" mediaItemID="341" duration="0.059999999999999998">
      <Effects />
      <Transitions />
      <BoundProperties>
        <BoundPropertyInt Name="rotateStepNinety" Value="0" />
      </BoundProperties>
    </ImageClip>
    <ImageClip extentID="347" gapBefore="0" mediaItemID="342" duration="0.059999999999999998">
      <Effects />
      <Transitions />
      <BoundProperties>
        <BoundPropertyInt Name="rotateStepNinety" Value="0" />
      </BoundProperties>
    </ImageClip>
    <ImageClip extentID="348" gapBefore="0" mediaItemID="343" duration="0.059999999999999998">
      <Effects />
      <Transitions />
      <BoundProperties>
        <BoundPropertyInt Name="rotateStepNinety" Value="0" />
      </BoundProperties>
    </ImageClip>
    <ImageClip extentID="349" gapBefore="0" mediaItemID="344" duration="0.059999999999999998">
      <Effects />
      <Transitions />
      <BoundProperties>
        <BoundPropertyInt Name="rotateStepNinety" Value="0" />
      </BoundProperties>
    </ImageClip>
    <ImageClip extentID="350" gapBefore="0" mediaItemID="345" duration="0.059999999999999998">
      <Effects />
      <Transitions />
      <BoundProperties>
        <BoundPropertyInt Name="rotateStepNinety" Value="0" />
      </BoundProperties>
    </ImageClip>
    <ImageClip extentID="351" gapBefore="0" mediaItemID="346" duration="0.059999999999999998">
      <Effects />
      <Transitions />
      <BoundProperties>
        <BoundPropertyInt Name="rotateStepNinety" Value="0" />
      </BoundProperties>
    </ImageClip>
    <ImageClip extentID="352" gapBefore="0" mediaItemID="347" duration="0.059999999999999998">
      <Effects />
      <Transitions />
      <BoundProperties>
        <BoundPropertyInt Name="rotateStepNinety" Value="0" />
      </BoundProperties>
    </ImageClip>
    <ImageClip extentID="353" gapBefore="0" mediaItemID="348" duration="0.059999999999999998">
      <Effects />
      <Transitions />
      <BoundProperties>
        <BoundPropertyInt Name="rotateStepNinety" Value="0" />
      </BoundProperties>
    </ImageClip>
    <ImageClip extentID="354" gapBefore="0" mediaItemID="349" duration="0.059999999999999998">
      <Effects />
      <Transitions />
      <BoundProperties>
        <BoundPropertyInt Name="rotateStepNinety" Value="0" />
      </BoundProperties>
    </ImageClip>
    <ImageClip extentID="355" gapBefore="0" mediaItemID="350" duration="0.059999999999999998">
      <Effects />
      <Transitions />
      <BoundProperties>
        <BoundPropertyInt Name="rotateStepNinety" Value="0" />
      </BoundProperties>
    </ImageClip>
    <ImageClip extentID="356" gapBefore="0" mediaItemID="351" duration="0.059999999999999998">
      <Effects />
      <Transitions />
      <BoundProperties>
        <BoundPropertyInt Name="rotateStepNinety" Value="0" />
      </BoundProperties>
    </ImageClip>
    <ImageClip extentID="357" gapBefore="0" mediaItemID="352" duration="0.059999999999999998">
      <Effects />
      <Transitions />
      <BoundProperties>
        <BoundPropertyInt Name="rotateStepNinety" Value="0" />
      </BoundProperties>
    </ImageClip>
    <ImageClip extentID="358" gapBefore="0" mediaItemID="353" duration="0.059999999999999998">
      <Effects />
      <Transitions />
      <BoundProperties>
        <BoundPropertyInt Name="rotateStepNinety" Value="0" />
      </BoundProperties>
    </ImageClip>
    <ImageClip extentID="359" gapBefore="0" mediaItemID="354" duration="0.059999999999999998">
      <Effects />
      <Transitions />
      <BoundProperties>
        <BoundPropertyInt Name="rotateStepNinety" Value="0" />
      </BoundProperties>
    </ImageClip>
    <ImageClip extentID="360" gapBefore="0" mediaItemID="355" duration="0.059999999999999998">
      <Effects />
      <Transitions />
      <BoundProperties>
        <BoundPropertyInt Name="rotateStepNinety" Value="0" />
      </BoundProperties>
    </ImageClip>
    <ImageClip extentID="361" gapBefore="0" mediaItemID="356" duration="0.059999999999999998">
      <Effects />
      <Transitions />
      <BoundProperties>
        <BoundPropertyInt Name="rotateStepNinety" Value="0" />
      </BoundProperties>
    </ImageClip>
    <ImageClip extentID="362" gapBefore="0" mediaItemID="357" duration="0.059999999999999998">
      <Effects />
      <Transitions />
      <BoundProperties>
        <BoundPropertyInt Name="rotateStepNinety" Value="0" />
      </BoundProperties>
    </ImageClip>
    <ImageClip extentID="363" gapBefore="0" mediaItemID="358" duration="0.059999999999999998">
      <Effects />
      <Transitions />
      <BoundProperties>
        <BoundPropertyInt Name="rotateStepNinety" Value="0" />
      </BoundProperties>
    </ImageClip>
    <ImageClip extentID="364" gapBefore="0" mediaItemID="359" duration="0.059999999999999998">
      <Effects />
      <Transitions />
      <BoundProperties>
        <BoundPropertyInt Name="rotateStepNinety" Value="0" />
      </BoundProperties>
    </ImageClip>
    <ImageClip extentID="365" gapBefore="0" mediaItemID="360" duration="0.059999999999999998">
      <Effects />
      <Transitions />
      <BoundProperties>
        <BoundPropertyInt Name="rotateStepNinety" Value="0" />
      </BoundProperties>
    </ImageClip>
    <ImageClip extentID="366" gapBefore="0" mediaItemID="361" duration="0.059999999999999998">
      <Effects />
      <Transitions />
      <BoundProperties>
        <BoundPropertyInt Name="rotateStepNinety" Value="0" />
      </BoundProperties>
    </ImageClip>
    <ImageClip extentID="367" gapBefore="0" mediaItemID="362" duration="0.059999999999999998">
      <Effects />
      <Transitions />
      <BoundProperties>
        <BoundPropertyInt Name="rotateStepNinety" Value="0" />
      </BoundProperties>
    </ImageClip>
    <ImageClip extentID="368" gapBefore="0" mediaItemID="363" duration="0.059999999999999998">
      <Effects />
      <Transitions />
      <BoundProperties>
        <BoundPropertyInt Name="rotateStepNinety" Value="0" />
      </BoundProperties>
    </ImageClip>
    <ImageClip extentID="369" gapBefore="0" mediaItemID="364" duration="0.059999999999999998">
      <Effects />
      <Transitions />
      <BoundProperties>
        <BoundPropertyInt Name="rotateStepNinety" Value="0" />
      </BoundProperties>
    </ImageClip>
    <ImageClip extentID="370" gapBefore="0" mediaItemID="365" duration="0.059999999999999998">
      <Effects />
      <Transitions />
      <BoundProperties>
        <BoundPropertyInt Name="rotateStepNinety" Value="0" />
      </BoundProperties>
    </ImageClip>
    <ImageClip extentID="371" gapBefore="0" mediaItemID="366" duration="0.059999999999999998">
      <Effects />
      <Transitions />
      <BoundProperties>
        <BoundPropertyInt Name="rotateStepNinety" Value="0" />
      </BoundProperties>
    </ImageClip>
    <ImageClip extentID="372" gapBefore="0" mediaItemID="367" duration="0.059999999999999998">
      <Effects />
      <Transitions />
      <BoundProperties>
        <BoundPropertyInt Name="rotateStepNinety" Value="0" />
      </BoundProperties>
    </ImageClip>
    <ImageClip extentID="373" gapBefore="0" mediaItemID="368" duration="0.059999999999999998">
      <Effects />
      <Transitions />
      <BoundProperties>
        <BoundPropertyInt Name="rotateStepNinety" Value="0" />
      </BoundProperties>
    </ImageClip>
    <ImageClip extentID="374" gapBefore="0" mediaItemID="369" duration="0.059999999999999998">
      <Effects />
      <Transitions />
      <BoundProperties>
        <BoundPropertyInt Name="rotateStepNinety" Value="0" />
      </BoundProperties>
    </ImageClip>
    <ImageClip extentID="375" gapBefore="0" mediaItemID="370" duration="0.059999999999999998">
      <Effects />
      <Transitions />
      <BoundProperties>
        <BoundPropertyInt Name="rotateStepNinety" Value="0" />
      </BoundProperties>
    </ImageClip>
    <ImageClip extentID="376" gapBefore="0" mediaItemID="371" duration="0.059999999999999998">
      <Effects />
      <Transitions />
      <BoundProperties>
        <BoundPropertyInt Name="rotateStepNinety" Value="0" />
      </BoundProperties>
    </ImageClip>
    <ImageClip extentID="377" gapBefore="0" mediaItemID="372" duration="0.059999999999999998">
      <Effects />
      <Transitions />
      <BoundProperties>
        <BoundPropertyInt Name="rotateStepNinety" Value="0" />
      </BoundProperties>
    </ImageClip>
    <ImageClip extentID="378" gapBefore="0" mediaItemID="373" duration="0.059999999999999998">
      <Effects />
      <Transitions />
      <BoundProperties>
        <BoundPropertyInt Name="rotateStepNinety" Value="0" />
      </BoundProperties>
    </ImageClip>
    <ImageClip extentID="379" gapBefore="0" mediaItemID="374" duration="0.059999999999999998">
      <Effects />
      <Transitions />
      <BoundProperties>
        <BoundPropertyInt Name="rotateStepNinety" Value="0" />
      </BoundProperties>
    </ImageClip>
    <ImageClip extentID="380" gapBefore="0" mediaItemID="375" duration="0.059999999999999998">
      <Effects />
      <Transitions />
      <BoundProperties>
        <BoundPropertyInt Name="rotateStepNinety" Value="0" />
      </BoundProperties>
    </ImageClip>
    <ImageClip extentID="381" gapBefore="0" mediaItemID="376" duration="0.059999999999999998">
      <Effects />
      <Transitions />
      <BoundProperties>
        <BoundPropertyInt Name="rotateStepNinety" Value="0" />
      </BoundProperties>
    </ImageClip>
    <ImageClip extentID="382" gapBefore="0" mediaItemID="377" duration="0.059999999999999998">
      <Effects />
      <Transitions />
      <BoundProperties>
        <BoundPropertyInt Name="rotateStepNinety" Value="0" />
      </BoundProperties>
    </ImageClip>
    <ImageClip extentID="383" gapBefore="0" mediaItemID="378" duration="0.059999999999999998">
      <Effects />
      <Transitions />
      <BoundProperties>
        <BoundPropertyInt Name="rotateStepNinety" Value="0" />
      </BoundProperties>
    </ImageClip>
    <ImageClip extentID="384" gapBefore="0" mediaItemID="379" duration="0.059999999999999998">
      <Effects />
      <Transitions />
      <BoundProperties>
        <BoundPropertyInt Name="rotateStepNinety" Value="0" />
      </BoundProperties>
    </ImageClip>
    <ImageClip extentID="385" gapBefore="0" mediaItemID="380" duration="0.059999999999999998">
      <Effects />
      <Transitions />
      <BoundProperties>
        <BoundPropertyInt Name="rotateStepNinety" Value="0" />
      </BoundProperties>
    </ImageClip>
    <ImageClip extentID="386" gapBefore="0" mediaItemID="381" duration="0.059999999999999998">
      <Effects />
      <Transitions />
      <BoundProperties>
        <BoundPropertyInt Name="rotateStepNinety" Value="0" />
      </BoundProperties>
    </ImageClip>
    <ImageClip extentID="387" gapBefore="0" mediaItemID="382" duration="0.059999999999999998">
      <Effects />
      <Transitions />
      <BoundProperties>
        <BoundPropertyInt Name="rotateStepNinety" Value="0" />
      </BoundProperties>
    </ImageClip>
    <ImageClip extentID="388" gapBefore="0" mediaItemID="383" duration="0.059999999999999998">
      <Effects />
      <Transitions />
      <BoundProperties>
        <BoundPropertyInt Name="rotateStepNinety" Value="0" />
      </BoundProperties>
    </ImageClip>
    <ImageClip extentID="389" gapBefore="0" mediaItemID="384" duration="0.059999999999999998">
      <Effects />
      <Transitions />
      <BoundProperties>
        <BoundPropertyInt Name="rotateStepNinety" Value="0" />
      </BoundProperties>
    </ImageClip>
    <ImageClip extentID="390" gapBefore="0" mediaItemID="385" duration="0.059999999999999998">
      <Effects />
      <Transitions />
      <BoundProperties>
        <BoundPropertyInt Name="rotateStepNinety" Value="0" />
      </BoundProperties>
    </ImageClip>
    <ImageClip extentID="391" gapBefore="0" mediaItemID="386" duration="0.059999999999999998">
      <Effects />
      <Transitions />
      <BoundProperties>
        <BoundPropertyInt Name="rotateStepNinety" Value="0" />
      </BoundProperties>
    </ImageClip>
    <ImageClip extentID="392" gapBefore="0" mediaItemID="387" duration="0.059999999999999998">
      <Effects />
      <Transitions />
      <BoundProperties>
        <BoundPropertyInt Name="rotateStepNinety" Value="0" />
      </BoundProperties>
    </ImageClip>
    <ImageClip extentID="393" gapBefore="0" mediaItemID="388" duration="0.059999999999999998">
      <Effects />
      <Transitions />
      <BoundProperties>
        <BoundPropertyInt Name="rotateStepNinety" Value="0" />
      </BoundProperties>
    </ImageClip>
    <ImageClip extentID="394" gapBefore="0" mediaItemID="389" duration="0.059999999999999998">
      <Effects />
      <Transitions />
      <BoundProperties>
        <BoundPropertyInt Name="rotateStepNinety" Value="0" />
      </BoundProperties>
    </ImageClip>
    <ImageClip extentID="395" gapBefore="0" mediaItemID="390" duration="0.059999999999999998">
      <Effects />
      <Transitions />
      <BoundProperties>
        <BoundPropertyInt Name="rotateStepNinety" Value="0" />
      </BoundProperties>
    </ImageClip>
    <ImageClip extentID="396" gapBefore="0" mediaItemID="391" duration="0.059999999999999998">
      <Effects />
      <Transitions />
      <BoundProperties>
        <BoundPropertyInt Name="rotateStepNinety" Value="0" />
      </BoundProperties>
    </ImageClip>
    <ImageClip extentID="397" gapBefore="0" mediaItemID="392" duration="0.059999999999999998">
      <Effects />
      <Transitions />
      <BoundProperties>
        <BoundPropertyInt Name="rotateStepNinety" Value="0" />
      </BoundProperties>
    </ImageClip>
    <ImageClip extentID="398" gapBefore="0" mediaItemID="393" duration="0.059999999999999998">
      <Effects />
      <Transitions />
      <BoundProperties>
        <BoundPropertyInt Name="rotateStepNinety" Value="0" />
      </BoundProperties>
    </ImageClip>
    <ImageClip extentID="399" gapBefore="0" mediaItemID="394" duration="0.059999999999999998">
      <Effects />
      <Transitions />
      <BoundProperties>
        <BoundPropertyInt Name="rotateStepNinety" Value="0" />
      </BoundProperties>
    </ImageClip>
    <ImageClip extentID="400" gapBefore="0" mediaItemID="395" duration="0.059999999999999998">
      <Effects />
      <Transitions />
      <BoundProperties>
        <BoundPropertyInt Name="rotateStepNinety" Value="0" />
      </BoundProperties>
    </ImageClip>
    <ImageClip extentID="401" gapBefore="0" mediaItemID="396" duration="0.059999999999999998">
      <Effects />
      <Transitions />
      <BoundProperties>
        <BoundPropertyInt Name="rotateStepNinety" Value="0" />
      </BoundProperties>
    </ImageClip>
    <ImageClip extentID="402" gapBefore="0" mediaItemID="397" duration="0.059999999999999998">
      <Effects />
      <Transitions />
      <BoundProperties>
        <BoundPropertyInt Name="rotateStepNinety" Value="0" />
      </BoundProperties>
    </ImageClip>
    <ImageClip extentID="403" gapBefore="0" mediaItemID="398" duration="0.059999999999999998">
      <Effects />
      <Transitions />
      <BoundProperties>
        <BoundPropertyInt Name="rotateStepNinety" Value="0" />
      </BoundProperties>
    </ImageClip>
    <ImageClip extentID="404" gapBefore="0" mediaItemID="399" duration="0.059999999999999998">
      <Effects />
      <Transitions />
      <BoundProperties>
        <BoundPropertyInt Name="rotateStepNinety" Value="0" />
      </BoundProperties>
    </ImageClip>
    <ImageClip extentID="405" gapBefore="0" mediaItemID="400" duration="0.059999999999999998">
      <Effects />
      <Transitions />
      <BoundProperties>
        <BoundPropertyInt Name="rotateStepNinety" Value="0" />
      </BoundProperties>
    </ImageClip>
    <ImageClip extentID="406" gapBefore="0" mediaItemID="401" duration="0.059999999999999998">
      <Effects />
      <Transitions />
      <BoundProperties>
        <BoundPropertyInt Name="rotateStepNinety" Value="0" />
      </BoundProperties>
    </ImageClip>
    <ImageClip extentID="407" gapBefore="0" mediaItemID="402" duration="0.059999999999999998">
      <Effects />
      <Transitions />
      <BoundProperties>
        <BoundPropertyInt Name="rotateStepNinety" Value="0" />
      </BoundProperties>
    </ImageClip>
    <ImageClip extentID="408" gapBefore="0" mediaItemID="403" duration="0.059999999999999998">
      <Effects />
      <Transitions />
      <BoundProperties>
        <BoundPropertyInt Name="rotateStepNinety" Value="0" />
      </BoundProperties>
    </ImageClip>
    <ImageClip extentID="409" gapBefore="0" mediaItemID="404" duration="0.059999999999999998">
      <Effects />
      <Transitions />
      <BoundProperties>
        <BoundPropertyInt Name="rotateStepNinety" Value="0" />
      </BoundProperties>
    </ImageClip>
    <ImageClip extentID="410" gapBefore="0" mediaItemID="405" duration="0.059999999999999998">
      <Effects />
      <Transitions />
      <BoundProperties>
        <BoundPropertyInt Name="rotateStepNinety" Value="0" />
      </BoundProperties>
    </ImageClip>
    <ImageClip extentID="411" gapBefore="0" mediaItemID="406" duration="0.059999999999999998">
      <Effects />
      <Transitions />
      <BoundProperties>
        <BoundPropertyInt Name="rotateStepNinety" Value="0" />
      </BoundProperties>
    </ImageClip>
    <ImageClip extentID="412" gapBefore="0" mediaItemID="407" duration="0.059999999999999998">
      <Effects />
      <Transitions />
      <BoundProperties>
        <BoundPropertyInt Name="rotateStepNinety" Value="0" />
      </BoundProperties>
    </ImageClip>
    <ImageClip extentID="413" gapBefore="0" mediaItemID="408" duration="0.059999999999999998">
      <Effects />
      <Transitions />
      <BoundProperties>
        <BoundPropertyInt Name="rotateStepNinety" Value="0" />
      </BoundProperties>
    </ImageClip>
    <ImageClip extentID="414" gapBefore="0" mediaItemID="409" duration="0.059999999999999998">
      <Effects />
      <Transitions />
      <BoundProperties>
        <BoundPropertyInt Name="rotateStepNinety" Value="0" />
      </BoundProperties>
    </ImageClip>
    <ImageClip extentID="415" gapBefore="0" mediaItemID="410" duration="0.059999999999999998">
      <Effects />
      <Transitions />
      <BoundProperties>
        <BoundPropertyInt Name="rotateStepNinety" Value="0" />
      </BoundProperties>
    </ImageClip>
    <ImageClip extentID="416" gapBefore="0" mediaItemID="411" duration="0.059999999999999998">
      <Effects />
      <Transitions />
      <BoundProperties>
        <BoundPropertyInt Name="rotateStepNinety" Value="0" />
      </BoundProperties>
    </ImageClip>
    <ImageClip extentID="417" gapBefore="0" mediaItemID="412" duration="0.059999999999999998">
      <Effects />
      <Transitions />
      <BoundProperties>
        <BoundPropertyInt Name="rotateStepNinety" Value="0" />
      </BoundProperties>
    </ImageClip>
    <ImageClip extentID="418" gapBefore="0" mediaItemID="413" duration="0.059999999999999998">
      <Effects />
      <Transitions />
      <BoundProperties>
        <BoundPropertyInt Name="rotateStepNinety" Value="0" />
      </BoundProperties>
    </ImageClip>
    <ImageClip extentID="419" gapBefore="0" mediaItemID="414" duration="0.059999999999999998">
      <Effects />
      <Transitions />
      <BoundProperties>
        <BoundPropertyInt Name="rotateStepNinety" Value="0" />
      </BoundProperties>
    </ImageClip>
    <ImageClip extentID="420" gapBefore="0" mediaItemID="415" duration="0.059999999999999998">
      <Effects />
      <Transitions />
      <BoundProperties>
        <BoundPropertyInt Name="rotateStepNinety" Value="0" />
      </BoundProperties>
    </ImageClip>
    <ImageClip extentID="421" gapBefore="0" mediaItemID="416" duration="0.059999999999999998">
      <Effects />
      <Transitions />
      <BoundProperties>
        <BoundPropertyInt Name="rotateStepNinety" Value="0" />
      </BoundProperties>
    </ImageClip>
    <ImageClip extentID="422" gapBefore="0" mediaItemID="417" duration="0.059999999999999998">
      <Effects />
      <Transitions />
      <BoundProperties>
        <BoundPropertyInt Name="rotateStepNinety" Value="0" />
      </BoundProperties>
    </ImageClip>
    <ImageClip extentID="423" gapBefore="0" mediaItemID="418" duration="0.059999999999999998">
      <Effects />
      <Transitions />
      <BoundProperties>
        <BoundPropertyInt Name="rotateStepNinety" Value="0" />
      </BoundProperties>
    </ImageClip>
    <ImageClip extentID="424" gapBefore="0" mediaItemID="419" duration="0.059999999999999998">
      <Effects />
      <Transitions />
      <BoundProperties>
        <BoundPropertyInt Name="rotateStepNinety" Value="0" />
      </BoundProperties>
    </ImageClip>
    <ImageClip extentID="425" gapBefore="0" mediaItemID="420" duration="0.059999999999999998">
      <Effects />
      <Transitions />
      <BoundProperties>
        <BoundPropertyInt Name="rotateStepNinety" Value="0" />
      </BoundProperties>
    </ImageClip>
    <ImageClip extentID="426" gapBefore="0" mediaItemID="421" duration="0.059999999999999998">
      <Effects />
      <Transitions />
      <BoundProperties>
        <BoundPropertyInt Name="rotateStepNinety" Value="0" />
      </BoundProperties>
    </ImageClip>
    <ImageClip extentID="427" gapBefore="0" mediaItemID="422" duration="0.059999999999999998">
      <Effects />
      <Transitions />
      <BoundProperties>
        <BoundPropertyInt Name="rotateStepNinety" Value="0" />
      </BoundProperties>
    </ImageClip>
    <ImageClip extentID="428" gapBefore="0" mediaItemID="423" duration="0.059999999999999998">
      <Effects />
      <Transitions />
      <BoundProperties>
        <BoundPropertyInt Name="rotateStepNinety" Value="0" />
      </BoundProperties>
    </ImageClip>
    <ImageClip extentID="429" gapBefore="0" mediaItemID="424" duration="0.059999999999999998">
      <Effects />
      <Transitions />
      <BoundProperties>
        <BoundPropertyInt Name="rotateStepNinety" Value="0" />
      </BoundProperties>
    </ImageClip>
    <ImageClip extentID="430" gapBefore="0" mediaItemID="425" duration="0.059999999999999998">
      <Effects />
      <Transitions />
      <BoundProperties>
        <BoundPropertyInt Name="rotateStepNinety" Value="0" />
      </BoundProperties>
    </ImageClip>
    <ImageClip extentID="431" gapBefore="0" mediaItemID="426" duration="0.059999999999999998">
      <Effects />
      <Transitions />
      <BoundProperties>
        <BoundPropertyInt Name="rotateStepNinety" Value="0" />
      </BoundProperties>
    </ImageClip>
    <ImageClip extentID="432" gapBefore="0" mediaItemID="427" duration="0.059999999999999998">
      <Effects />
      <Transitions />
      <BoundProperties>
        <BoundPropertyInt Name="rotateStepNinety" Value="0" />
      </BoundProperties>
    </ImageClip>
    <ImageClip extentID="433" gapBefore="0" mediaItemID="428" duration="0.059999999999999998">
      <Effects />
      <Transitions />
      <BoundProperties>
        <BoundPropertyInt Name="rotateStepNinety" Value="0" />
      </BoundProperties>
    </ImageClip>
    <ImageClip extentID="434" gapBefore="0" mediaItemID="429" duration="0.059999999999999998">
      <Effects />
      <Transitions />
      <BoundProperties>
        <BoundPropertyInt Name="rotateStepNinety" Value="0" />
      </BoundProperties>
    </ImageClip>
    <ImageClip extentID="435" gapBefore="0" mediaItemID="430" duration="0.059999999999999998">
      <Effects />
      <Transitions />
      <BoundProperties>
        <BoundPropertyInt Name="rotateStepNinety" Value="0" />
      </BoundProperties>
    </ImageClip>
    <ImageClip extentID="436" gapBefore="0" mediaItemID="431" duration="0.059999999999999998">
      <Effects />
      <Transitions />
      <BoundProperties>
        <BoundPropertyInt Name="rotateStepNinety" Value="0" />
      </BoundProperties>
    </ImageClip>
    <ImageClip extentID="437" gapBefore="0" mediaItemID="432" duration="0.059999999999999998">
      <Effects />
      <Transitions />
      <BoundProperties>
        <BoundPropertyInt Name="rotateStepNinety" Value="0" />
      </BoundProperties>
    </ImageClip>
    <ImageClip extentID="438" gapBefore="0" mediaItemID="433" duration="0.059999999999999998">
      <Effects />
      <Transitions />
      <BoundProperties>
        <BoundPropertyInt Name="rotateStepNinety" Value="0" />
      </BoundProperties>
    </ImageClip>
    <ImageClip extentID="439" gapBefore="0" mediaItemID="434" duration="0.059999999999999998">
      <Effects />
      <Transitions />
      <BoundProperties>
        <BoundPropertyInt Name="rotateStepNinety" Value="0" />
      </BoundProperties>
    </ImageClip>
    <ImageClip extentID="440" gapBefore="0" mediaItemID="435" duration="0.059999999999999998">
      <Effects />
      <Transitions />
      <BoundProperties>
        <BoundPropertyInt Name="rotateStepNinety" Value="0" />
      </BoundProperties>
    </ImageClip>
    <ImageClip extentID="441" gapBefore="0" mediaItemID="436" duration="0.059999999999999998">
      <Effects />
      <Transitions />
      <BoundProperties>
        <BoundPropertyInt Name="rotateStepNinety" Value="0" />
      </BoundProperties>
    </ImageClip>
    <ImageClip extentID="442" gapBefore="0" mediaItemID="437" duration="0.059999999999999998">
      <Effects />
      <Transitions />
      <BoundProperties>
        <BoundPropertyInt Name="rotateStepNinety" Value="0" />
      </BoundProperties>
    </ImageClip>
    <ImageClip extentID="443" gapBefore="0" mediaItemID="438" duration="0.059999999999999998">
      <Effects />
      <Transitions />
      <BoundProperties>
        <BoundPropertyInt Name="rotateStepNinety" Value="0" />
      </BoundProperties>
    </ImageClip>
    <ImageClip extentID="444" gapBefore="0" mediaItemID="439" duration="0.059999999999999998">
      <Effects />
      <Transitions />
      <BoundProperties>
        <BoundPropertyInt Name="rotateStepNinety" Value="0" />
      </BoundProperties>
    </ImageClip>
    <ImageClip extentID="445" gapBefore="0" mediaItemID="440" duration="0.059999999999999998">
      <Effects />
      <Transitions />
      <BoundProperties>
        <BoundPropertyInt Name="rotateStepNinety" Value="0" />
      </BoundProperties>
    </ImageClip>
    <ImageClip extentID="446" gapBefore="0" mediaItemID="441" duration="0.059999999999999998">
      <Effects />
      <Transitions />
      <BoundProperties>
        <BoundPropertyInt Name="rotateStepNinety" Value="0" />
      </BoundProperties>
    </ImageClip>
    <ImageClip extentID="447" gapBefore="0" mediaItemID="442" duration="0.059999999999999998">
      <Effects />
      <Transitions />
      <BoundProperties>
        <BoundPropertyInt Name="rotateStepNinety" Value="0" />
      </BoundProperties>
    </ImageClip>
    <ImageClip extentID="448" gapBefore="0" mediaItemID="443" duration="0.059999999999999998">
      <Effects />
      <Transitions />
      <BoundProperties>
        <BoundPropertyInt Name="rotateStepNinety" Value="0" />
      </BoundProperties>
    </ImageClip>
    <ImageClip extentID="449" gapBefore="0" mediaItemID="444" duration="0.059999999999999998">
      <Effects />
      <Transitions />
      <BoundProperties>
        <BoundPropertyInt Name="rotateStepNinety" Value="0" />
      </BoundProperties>
    </ImageClip>
    <ImageClip extentID="450" gapBefore="0" mediaItemID="445" duration="0.059999999999999998">
      <Effects />
      <Transitions />
      <BoundProperties>
        <BoundPropertyInt Name="rotateStepNinety" Value="0" />
      </BoundProperties>
    </ImageClip>
    <ImageClip extentID="451" gapBefore="0" mediaItemID="446" duration="0.059999999999999998">
      <Effects />
      <Transitions />
      <BoundProperties>
        <BoundPropertyInt Name="rotateStepNinety" Value="0" />
      </BoundProperties>
    </ImageClip>
    <ImageClip extentID="452" gapBefore="0" mediaItemID="447" duration="0.059999999999999998">
      <Effects />
      <Transitions />
      <BoundProperties>
        <BoundPropertyInt Name="rotateStepNinety" Value="0" />
      </BoundProperties>
    </ImageClip>
    <ImageClip extentID="453" gapBefore="0" mediaItemID="448" duration="0.059999999999999998">
      <Effects />
      <Transitions />
      <BoundProperties>
        <BoundPropertyInt Name="rotateStepNinety" Value="0" />
      </BoundProperties>
    </ImageClip>
    <ImageClip extentID="454" gapBefore="0" mediaItemID="449" duration="0.059999999999999998">
      <Effects />
      <Transitions />
      <BoundProperties>
        <BoundPropertyInt Name="rotateStepNinety" Value="0" />
      </BoundProperties>
    </ImageClip>
    <ImageClip extentID="455" gapBefore="0" mediaItemID="450" duration="0.059999999999999998">
      <Effects />
      <Transitions />
      <BoundProperties>
        <BoundPropertyInt Name="rotateStepNinety" Value="0" />
      </BoundProperties>
    </ImageClip>
    <ImageClip extentID="456" gapBefore="0" mediaItemID="451" duration="0.059999999999999998">
      <Effects />
      <Transitions />
      <BoundProperties>
        <BoundPropertyInt Name="rotateStepNinety" Value="0" />
      </BoundProperties>
    </ImageClip>
    <ImageClip extentID="457" gapBefore="0" mediaItemID="452" duration="0.059999999999999998">
      <Effects />
      <Transitions />
      <BoundProperties>
        <BoundPropertyInt Name="rotateStepNinety" Value="0" />
      </BoundProperties>
    </ImageClip>
    <ImageClip extentID="458" gapBefore="0" mediaItemID="453" duration="0.059999999999999998">
      <Effects />
      <Transitions />
      <BoundProperties>
        <BoundPropertyInt Name="rotateStepNinety" Value="0" />
      </BoundProperties>
    </ImageClip>
    <ImageClip extentID="459" gapBefore="0" mediaItemID="454" duration="0.059999999999999998">
      <Effects />
      <Transitions />
      <BoundProperties>
        <BoundPropertyInt Name="rotateStepNinety" Value="0" />
      </BoundProperties>
    </ImageClip>
    <ImageClip extentID="460" gapBefore="0" mediaItemID="455" duration="0.059999999999999998">
      <Effects />
      <Transitions />
      <BoundProperties>
        <BoundPropertyInt Name="rotateStepNinety" Value="0" />
      </BoundProperties>
    </ImageClip>
    <ImageClip extentID="461" gapBefore="0" mediaItemID="456" duration="0.059999999999999998">
      <Effects />
      <Transitions />
      <BoundProperties>
        <BoundPropertyInt Name="rotateStepNinety" Value="0" />
      </BoundProperties>
    </ImageClip>
    <ImageClip extentID="462" gapBefore="0" mediaItemID="457" duration="0.059999999999999998">
      <Effects />
      <Transitions />
      <BoundProperties>
        <BoundPropertyInt Name="rotateStepNinety" Value="0" />
      </BoundProperties>
    </ImageClip>
    <ImageClip extentID="463" gapBefore="0" mediaItemID="458" duration="0.059999999999999998">
      <Effects />
      <Transitions />
      <BoundProperties>
        <BoundPropertyInt Name="rotateStepNinety" Value="0" />
      </BoundProperties>
    </ImageClip>
    <ImageClip extentID="464" gapBefore="0" mediaItemID="459" duration="0.059999999999999998">
      <Effects />
      <Transitions />
      <BoundProperties>
        <BoundPropertyInt Name="rotateStepNinety" Value="0" />
      </BoundProperties>
    </ImageClip>
    <ImageClip extentID="465" gapBefore="0" mediaItemID="460" duration="0.059999999999999998">
      <Effects />
      <Transitions />
      <BoundProperties>
        <BoundPropertyInt Name="rotateStepNinety" Value="0" />
      </BoundProperties>
    </ImageClip>
    <ImageClip extentID="466" gapBefore="0" mediaItemID="461" duration="0.059999999999999998">
      <Effects />
      <Transitions />
      <BoundProperties>
        <BoundPropertyInt Name="rotateStepNinety" Value="0" />
      </BoundProperties>
    </ImageClip>
    <ImageClip extentID="467" gapBefore="0" mediaItemID="462" duration="0.059999999999999998">
      <Effects />
      <Transitions />
      <BoundProperties>
        <BoundPropertyInt Name="rotateStepNinety" Value="0" />
      </BoundProperties>
    </ImageClip>
    <ImageClip extentID="468" gapBefore="0" mediaItemID="463" duration="0.059999999999999998">
      <Effects />
      <Transitions />
      <BoundProperties>
        <BoundPropertyInt Name="rotateStepNinety" Value="0" />
      </BoundProperties>
    </ImageClip>
    <ImageClip extentID="469" gapBefore="0" mediaItemID="464" duration="0.059999999999999998">
      <Effects />
      <Transitions />
      <BoundProperties>
        <BoundPropertyInt Name="rotateStepNinety" Value="0" />
      </BoundProperties>
    </ImageClip>
    <ImageClip extentID="470" gapBefore="0" mediaItemID="465" duration="0.059999999999999998">
      <Effects />
      <Transitions />
      <BoundProperties>
        <BoundPropertyInt Name="rotateStepNinety" Value="0" />
      </BoundProperties>
    </ImageClip>
    <ImageClip extentID="471" gapBefore="0" mediaItemID="466" duration="0.059999999999999998">
      <Effects />
      <Transitions />
      <BoundProperties>
        <BoundPropertyInt Name="rotateStepNinety" Value="0" />
      </BoundProperties>
    </ImageClip>
    <ImageClip extentID="472" gapBefore="0" mediaItemID="467" duration="0.059999999999999998">
      <Effects />
      <Transitions />
      <BoundProperties>
        <BoundPropertyInt Name="rotateStepNinety" Value="0" />
      </BoundProperties>
    </ImageClip>
    <ImageClip extentID="473" gapBefore="0" mediaItemID="468" duration="0.059999999999999998">
      <Effects />
      <Transitions />
      <BoundProperties>
        <BoundPropertyInt Name="rotateStepNinety" Value="0" />
      </BoundProperties>
    </ImageClip>
    <ImageClip extentID="474" gapBefore="0" mediaItemID="469" duration="0.059999999999999998">
      <Effects />
      <Transitions />
      <BoundProperties>
        <BoundPropertyInt Name="rotateStepNinety" Value="0" />
      </BoundProperties>
    </ImageClip>
    <ImageClip extentID="475" gapBefore="0" mediaItemID="470" duration="0.059999999999999998">
      <Effects />
      <Transitions />
      <BoundProperties>
        <BoundPropertyInt Name="rotateStepNinety" Value="0" />
      </BoundProperties>
    </ImageClip>
    <ImageClip extentID="476" gapBefore="0" mediaItemID="471" duration="0.059999999999999998">
      <Effects />
      <Transitions />
      <BoundProperties>
        <BoundPropertyInt Name="rotateStepNinety" Value="0" />
      </BoundProperties>
    </ImageClip>
    <ImageClip extentID="477" gapBefore="0" mediaItemID="472" duration="0.059999999999999998">
      <Effects />
      <Transitions />
      <BoundProperties>
        <BoundPropertyInt Name="rotateStepNinety" Value="0" />
      </BoundProperties>
    </ImageClip>
    <ImageClip extentID="478" gapBefore="0" mediaItemID="473" duration="0.059999999999999998">
      <Effects />
      <Transitions />
      <BoundProperties>
        <BoundPropertyInt Name="rotateStepNinety" Value="0" />
      </BoundProperties>
    </ImageClip>
    <ImageClip extentID="479" gapBefore="0" mediaItemID="474" duration="0.059999999999999998">
      <Effects />
      <Transitions />
      <BoundProperties>
        <BoundPropertyInt Name="rotateStepNinety" Value="0" />
      </BoundProperties>
    </ImageClip>
    <ImageClip extentID="480" gapBefore="0" mediaItemID="475" duration="0.059999999999999998">
      <Effects />
      <Transitions />
      <BoundProperties>
        <BoundPropertyInt Name="rotateStepNinety" Value="0" />
      </BoundProperties>
    </ImageClip>
    <ImageClip extentID="481" gapBefore="0" mediaItemID="476" duration="0.059999999999999998">
      <Effects />
      <Transitions />
      <BoundProperties>
        <BoundPropertyInt Name="rotateStepNinety" Value="0" />
      </BoundProperties>
    </ImageClip>
    <ImageClip extentID="482" gapBefore="0" mediaItemID="477" duration="0.059999999999999998">
      <Effects />
      <Transitions />
      <BoundProperties>
        <BoundPropertyInt Name="rotateStepNinety" Value="0" />
      </BoundProperties>
    </ImageClip>
    <ImageClip extentID="483" gapBefore="0" mediaItemID="478" duration="0.059999999999999998">
      <Effects />
      <Transitions />
      <BoundProperties>
        <BoundPropertyInt Name="rotateStepNinety" Value="0" />
      </BoundProperties>
    </ImageClip>
    <ImageClip extentID="484" gapBefore="0" mediaItemID="479" duration="0.059999999999999998">
      <Effects />
      <Transitions />
      <BoundProperties>
        <BoundPropertyInt Name="rotateStepNinety" Value="0" />
      </BoundProperties>
    </ImageClip>
    <ImageClip extentID="485" gapBefore="0" mediaItemID="480" duration="0.059999999999999998">
      <Effects />
      <Transitions />
      <BoundProperties>
        <BoundPropertyInt Name="rotateStepNinety" Value="0" />
      </BoundProperties>
    </ImageClip>
    <ImageClip extentID="486" gapBefore="0" mediaItemID="481" duration="0.059999999999999998">
      <Effects />
      <Transitions />
      <BoundProperties>
        <BoundPropertyInt Name="rotateStepNinety" Value="0" />
      </BoundProperties>
    </ImageClip>
    <ImageClip extentID="487" gapBefore="0" mediaItemID="482" duration="0.059999999999999998">
      <Effects />
      <Transitions />
      <BoundProperties>
        <BoundPropertyInt Name="rotateStepNinety" Value="0" />
      </BoundProperties>
    </ImageClip>
    <ImageClip extentID="488" gapBefore="0" mediaItemID="483" duration="0.059999999999999998">
      <Effects />
      <Transitions />
      <BoundProperties>
        <BoundPropertyInt Name="rotateStepNinety" Value="0" />
      </BoundProperties>
    </ImageClip>
    <ImageClip extentID="489" gapBefore="0" mediaItemID="484" duration="0.059999999999999998">
      <Effects />
      <Transitions />
      <BoundProperties>
        <BoundPropertyInt Name="rotateStepNinety" Value="0" />
      </BoundProperties>
    </ImageClip>
    <ImageClip extentID="490" gapBefore="0" mediaItemID="485" duration="0.059999999999999998">
      <Effects />
      <Transitions />
      <BoundProperties>
        <BoundPropertyInt Name="rotateStepNinety" Value="0" />
      </BoundProperties>
    </ImageClip>
    <ImageClip extentID="491" gapBefore="0" mediaItemID="486" duration="0.059999999999999998">
      <Effects />
      <Transitions />
      <BoundProperties>
        <BoundPropertyInt Name="rotateStepNinety" Value="0" />
      </BoundProperties>
    </ImageClip>
    <ImageClip extentID="492" gapBefore="0" mediaItemID="487" duration="0.059999999999999998">
      <Effects />
      <Transitions />
      <BoundProperties>
        <BoundPropertyInt Name="rotateStepNinety" Value="0" />
      </BoundProperties>
    </ImageClip>
    <ImageClip extentID="493" gapBefore="0" mediaItemID="488" duration="0.059999999999999998">
      <Effects />
      <Transitions />
      <BoundProperties>
        <BoundPropertyInt Name="rotateStepNinety" Value="0" />
      </BoundProperties>
    </ImageClip>
    <ImageClip extentID="494" gapBefore="0" mediaItemID="489" duration="0.059999999999999998">
      <Effects />
      <Transitions />
      <BoundProperties>
        <BoundPropertyInt Name="rotateStepNinety" Value="0" />
      </BoundProperties>
    </ImageClip>
    <ImageClip extentID="495" gapBefore="0" mediaItemID="490" duration="0.059999999999999998">
      <Effects />
      <Transitions />
      <BoundProperties>
        <BoundPropertyInt Name="rotateStepNinety" Value="0" />
      </BoundProperties>
    </ImageClip>
    <ImageClip extentID="496" gapBefore="0" mediaItemID="491" duration="0.059999999999999998">
      <Effects />
      <Transitions />
      <BoundProperties>
        <BoundPropertyInt Name="rotateStepNinety" Value="0" />
      </BoundProperties>
    </ImageClip>
    <ImageClip extentID="497" gapBefore="0" mediaItemID="492" duration="0.059999999999999998">
      <Effects />
      <Transitions />
      <BoundProperties>
        <BoundPropertyInt Name="rotateStepNinety" Value="0" />
      </BoundProperties>
    </ImageClip>
    <ImageClip extentID="498" gapBefore="0" mediaItemID="493" duration="0.059999999999999998">
      <Effects />
      <Transitions />
      <BoundProperties>
        <BoundPropertyInt Name="rotateStepNinety" Value="0" />
      </BoundProperties>
    </ImageClip>
    <ImageClip extentID="499" gapBefore="0" mediaItemID="494" duration="0.059999999999999998">
      <Effects />
      <Transitions />
      <BoundProperties>
        <BoundPropertyInt Name="rotateStepNinety" Value="0" />
      </BoundProperties>
    </ImageClip>
    <ImageClip extentID="500" gapBefore="0" mediaItemID="495" duration="0.059999999999999998">
      <Effects />
      <Transitions />
      <BoundProperties>
        <BoundPropertyInt Name="rotateStepNinety" Value="0" />
      </BoundProperties>
    </ImageClip>
    <ImageClip extentID="501" gapBefore="0" mediaItemID="496" duration="0.059999999999999998">
      <Effects />
      <Transitions />
      <BoundProperties>
        <BoundPropertyInt Name="rotateStepNinety" Value="0" />
      </BoundProperties>
    </ImageClip>
    <ImageClip extentID="502" gapBefore="0" mediaItemID="497" duration="0.059999999999999998">
      <Effects />
      <Transitions />
      <BoundProperties>
        <BoundPropertyInt Name="rotateStepNinety" Value="0" />
      </BoundProperties>
    </ImageClip>
    <ImageClip extentID="503" gapBefore="0" mediaItemID="498" duration="0.059999999999999998">
      <Effects />
      <Transitions />
      <BoundProperties>
        <BoundPropertyInt Name="rotateStepNinety" Value="0" />
      </BoundProperties>
    </ImageClip>
    <ImageClip extentID="504" gapBefore="0" mediaItemID="499" duration="0.059999999999999998">
      <Effects />
      <Transitions />
      <BoundProperties>
        <BoundPropertyInt Name="rotateStepNinety" Value="0" />
      </BoundProperties>
    </ImageClip>
    <ImageClip extentID="505" gapBefore="0" mediaItemID="500" duration="0.059999999999999998">
      <Effects />
      <Transitions />
      <BoundProperties>
        <BoundPropertyInt Name="rotateStepNinety" Value="0" />
      </BoundProperties>
    </ImageClip>
    <ImageClip extentID="506" gapBefore="0" mediaItemID="501" duration="0.059999999999999998">
      <Effects />
      <Transitions />
      <BoundProperties>
        <BoundPropertyInt Name="rotateStepNinety" Value="0" />
      </BoundProperties>
    </ImageClip>
    <ImageClip extentID="507" gapBefore="0" mediaItemID="502" duration="0.059999999999999998">
      <Effects />
      <Transitions />
      <BoundProperties>
        <BoundPropertyInt Name="rotateStepNinety" Value="0" />
      </BoundProperties>
    </ImageClip>
    <ImageClip extentID="508" gapBefore="0" mediaItemID="503" duration="0.059999999999999998">
      <Effects />
      <Transitions />
      <BoundProperties>
        <BoundPropertyInt Name="rotateStepNinety" Value="0" />
      </BoundProperties>
    </ImageClip>
    <ImageClip extentID="509" gapBefore="0" mediaItemID="504" duration="0.059999999999999998">
      <Effects />
      <Transitions />
      <BoundProperties>
        <BoundPropertyInt Name="rotateStepNinety" Value="0" />
      </BoundProperties>
    </ImageClip>
    <ImageClip extentID="510" gapBefore="0" mediaItemID="505" duration="0.059999999999999998">
      <Effects />
      <Transitions />
      <BoundProperties>
        <BoundPropertyInt Name="rotateStepNinety" Value="0" />
      </BoundProperties>
    </ImageClip>
    <ImageClip extentID="511" gapBefore="0" mediaItemID="506" duration="0.059999999999999998">
      <Effects />
      <Transitions />
      <BoundProperties>
        <BoundPropertyInt Name="rotateStepNinety" Value="0" />
      </BoundProperties>
    </ImageClip>
    <ImageClip extentID="512" gapBefore="0" mediaItemID="507" duration="0.059999999999999998">
      <Effects />
      <Transitions />
      <BoundProperties>
        <BoundPropertyInt Name="rotateStepNinety" Value="0" />
      </BoundProperties>
    </ImageClip>
    <ImageClip extentID="513" gapBefore="0" mediaItemID="508" duration="0.059999999999999998">
      <Effects />
      <Transitions />
      <BoundProperties>
        <BoundPropertyInt Name="rotateStepNinety" Value="0" />
      </BoundProperties>
    </ImageClip>
    <ImageClip extentID="514" gapBefore="0" mediaItemID="509" duration="0.059999999999999998">
      <Effects />
      <Transitions />
      <BoundProperties>
        <BoundPropertyInt Name="rotateStepNinety" Value="0" />
      </BoundProperties>
    </ImageClip>
    <ImageClip extentID="515" gapBefore="0" mediaItemID="510" duration="0.059999999999999998">
      <Effects />
      <Transitions />
      <BoundProperties>
        <BoundPropertyInt Name="rotateStepNinety" Value="0" />
      </BoundProperties>
    </ImageClip>
    <ImageClip extentID="516" gapBefore="0" mediaItemID="511" duration="0.059999999999999998">
      <Effects />
      <Transitions />
      <BoundProperties>
        <BoundPropertyInt Name="rotateStepNinety" Value="0" />
      </BoundProperties>
    </ImageClip>
    <ImageClip extentID="517" gapBefore="0" mediaItemID="512" duration="0.059999999999999998">
      <Effects />
      <Transitions />
      <BoundProperties>
        <BoundPropertyInt Name="rotateStepNinety" Value="0" />
      </BoundProperties>
    </ImageClip>
    <ImageClip extentID="518" gapBefore="0" mediaItemID="513" duration="0.059999999999999998">
      <Effects />
      <Transitions />
      <BoundProperties>
        <BoundPropertyInt Name="rotateStepNinety" Value="0" />
      </BoundProperties>
    </ImageClip>
    <ImageClip extentID="519" gapBefore="0" mediaItemID="514" duration="0.059999999999999998">
      <Effects />
      <Transitions />
      <BoundProperties>
        <BoundPropertyInt Name="rotateStepNinety" Value="0" />
      </BoundProperties>
    </ImageClip>
    <ImageClip extentID="520" gapBefore="0" mediaItemID="515" duration="0.059999999999999998">
      <Effects />
      <Transitions />
      <BoundProperties>
        <BoundPropertyInt Name="rotateStepNinety" Value="0" />
      </BoundProperties>
    </ImageClip>
    <ExtentSelector extentID="1" gapBefore="0" primaryTrack="true">
      <Effects />
      <Transitions />
      <BoundProperties />
      <ExtentRefs>
        <ExtentRef id="6" />
        <ExtentRef id="7" />
        <ExtentRef id="8" />
        <ExtentRef id="9" />
        <ExtentRef id="10" />
        <ExtentRef id="11" />
        <ExtentRef id="12" />
        <ExtentRef id="13" />
        <ExtentRef id="14" />
        <ExtentRef id="15" />
        <ExtentRef id="16" />
        <ExtentRef id="17" />
        <ExtentRef id="18" />
        <ExtentRef id="19" />
        <ExtentRef id="20" />
        <ExtentRef id="21" />
        <ExtentRef id="22" />
        <ExtentRef id="23" />
        <ExtentRef id="24" />
        <ExtentRef id="25" />
        <ExtentRef id="26" />
        <ExtentRef id="27" />
        <ExtentRef id="28" />
        <ExtentRef id="29" />
        <ExtentRef id="30" />
        <ExtentRef id="31" />
        <ExtentRef id="32" />
        <ExtentRef id="33" />
        <ExtentRef id="34" />
        <ExtentRef id="35" />
        <ExtentRef id="36" />
        <ExtentRef id="37" />
        <ExtentRef id="38" />
        <ExtentRef id="39" />
        <ExtentRef id="40" />
        <ExtentRef id="41" />
        <ExtentRef id="42" />
        <ExtentRef id="43" />
        <ExtentRef id="44" />
        <ExtentRef id="45" />
        <ExtentRef id="46" />
        <ExtentRef id="47" />
        <ExtentRef id="48" />
        <ExtentRef id="49" />
        <ExtentRef id="50" />
        <ExtentRef id="51" />
        <ExtentRef id="52" />
        <ExtentRef id="53" />
        <ExtentRef id="54" />
        <ExtentRef id="55" />
        <ExtentRef id="56" />
        <ExtentRef id="57" />
        <ExtentRef id="58" />
        <ExtentRef id="59" />
        <ExtentRef id="60" />
        <ExtentRef id="61" />
        <ExtentRef id="62" />
        <ExtentRef id="63" />
        <ExtentRef id="64" />
        <ExtentRef id="65" />
        <ExtentRef id="66" />
        <ExtentRef id="67" />
        <ExtentRef id="68" />
        <ExtentRef id="69" />
        <ExtentRef id="70" />
        <ExtentRef id="71" />
        <ExtentRef id="72" />
        <ExtentRef id="73" />
        <ExtentRef id="74" />
        <ExtentRef id="75" />
        <ExtentRef id="76" />
        <ExtentRef id="77" />
        <ExtentRef id="78" />
        <ExtentRef id="79" />
        <ExtentRef id="80" />
        <ExtentRef id="81" />
        <ExtentRef id="82" />
        <ExtentRef id="83" />
        <ExtentRef id="84" />
        <ExtentRef id="85" />
        <ExtentRef id="86" />
        <ExtentRef id="87" />
        <ExtentRef id="88" />
        <ExtentRef id="89" />
        <ExtentRef id="90" />
        <ExtentRef id="91" />
        <ExtentRef id="92" />
        <ExtentRef id="93" />
        <ExtentRef id="94" />
        <ExtentRef id="95" />
        <ExtentRef id="96" />
        <ExtentRef id="97" />
        <ExtentRef id="98" />
        <ExtentRef id="99" />
        <ExtentRef id="100" />
        <ExtentRef id="101" />
        <ExtentRef id="102" />
        <ExtentRef id="103" />
        <ExtentRef id="104" />
        <ExtentRef id="105" />
        <ExtentRef id="106" />
        <ExtentRef id="107" />
        <ExtentRef id="108" />
        <ExtentRef id="109" />
        <ExtentRef id="110" />
        <ExtentRef id="111" />
        <ExtentRef id="112" />
        <ExtentRef id="113" />
        <ExtentRef id="114" />
        <ExtentRef id="115" />
        <ExtentRef id="116" />
        <ExtentRef id="117" />
        <ExtentRef id="118" />
        <ExtentRef id="119" />
        <ExtentRef id="120" />
        <ExtentRef id="121" />
        <ExtentRef id="122" />
        <ExtentRef id="123" />
        <ExtentRef id="124" />
        <ExtentRef id="125" />
        <ExtentRef id="126" />
        <ExtentRef id="127" />
        <ExtentRef id="128" />
        <ExtentRef id="129" />
        <ExtentRef id="130" />
        <ExtentRef id="131" />
        <ExtentRef id="132" />
        <ExtentRef id="133" />
        <ExtentRef id="134" />
        <ExtentRef id="135" />
        <ExtentRef id="136" />
        <ExtentRef id="137" />
        <ExtentRef id="138" />
        <ExtentRef id="139" />
        <ExtentRef id="140" />
        <ExtentRef id="141" />
        <ExtentRef id="142" />
        <ExtentRef id="143" />
        <ExtentRef id="144" />
        <ExtentRef id="145" />
        <ExtentRef id="146" />
        <ExtentRef id="147" />
        <ExtentRef id="148" />
        <ExtentRef id="149" />
        <ExtentRef id="150" />
        <ExtentRef id="151" />
        <ExtentRef id="152" />
        <ExtentRef id="153" />
        <ExtentRef id="154" />
        <ExtentRef id="155" />
        <ExtentRef id="156" />
        <ExtentRef id="157" />
        <ExtentRef id="158" />
        <ExtentRef id="159" />
        <ExtentRef id="160" />
        <ExtentRef id="161" />
        <ExtentRef id="162" />
        <ExtentRef id="163" />
        <ExtentRef id="164" />
        <ExtentRef id="165" />
        <ExtentRef id="166" />
        <ExtentRef id="167" />
        <ExtentRef id="168" />
        <ExtentRef id="169" />
        <ExtentRef id="170" />
        <ExtentRef id="171" />
        <ExtentRef id="172" />
        <ExtentRef id="173" />
        <ExtentRef id="174" />
        <ExtentRef id="175" />
        <ExtentRef id="176" />
        <ExtentRef id="177" />
        <ExtentRef id="178" />
        <ExtentRef id="179" />
        <ExtentRef id="180" />
        <ExtentRef id="181" />
        <ExtentRef id="182" />
        <ExtentRef id="183" />
        <ExtentRef id="184" />
        <ExtentRef id="185" />
        <ExtentRef id="186" />
        <ExtentRef id="187" />
        <ExtentRef id="188" />
        <ExtentRef id="189" />
        <ExtentRef id="190" />
        <ExtentRef id="191" />
        <ExtentRef id="192" />
        <ExtentRef id="193" />
        <ExtentRef id="194" />
        <ExtentRef id="195" />
        <ExtentRef id="196" />
        <ExtentRef id="197" />
        <ExtentRef id="198" />
        <ExtentRef id="199" />
        <ExtentRef id="200" />
        <ExtentRef id="201" />
        <ExtentRef id="202" />
        <ExtentRef id="203" />
        <ExtentRef id="204" />
        <ExtentRef id="205" />
        <ExtentRef id="206" />
        <ExtentRef id="207" />
        <ExtentRef id="208" />
        <ExtentRef id="209" />
        <ExtentRef id="210" />
        <ExtentRef id="211" />
        <ExtentRef id="212" />
        <ExtentRef id="213" />
        <ExtentRef id="214" />
        <ExtentRef id="215" />
        <ExtentRef id="216" />
        <ExtentRef id="217" />
        <ExtentRef id="218" />
        <ExtentRef id="219" />
        <ExtentRef id="220" />
        <ExtentRef id="221" />
        <ExtentRef id="222" />
        <ExtentRef id="223" />
        <ExtentRef id="224" />
        <ExtentRef id="225" />
        <ExtentRef id="226" />
        <ExtentRef id="227" />
        <ExtentRef id="228" />
        <ExtentRef id="229" />
        <ExtentRef id="230" />
        <ExtentRef id="231" />
        <ExtentRef id="232" />
        <ExtentRef id="233" />
        <ExtentRef id="234" />
        <ExtentRef id="235" />
        <ExtentRef id="236" />
        <ExtentRef id="237" />
        <ExtentRef id="238" />
        <ExtentRef id="239" />
        <ExtentRef id="240" />
        <ExtentRef id="241" />
        <ExtentRef id="242" />
        <ExtentRef id="243" />
        <ExtentRef id="244" />
        <ExtentRef id="245" />
        <ExtentRef id="246" />
        <ExtentRef id="247" />
        <ExtentRef id="248" />
        <ExtentRef id="249" />
        <ExtentRef id="250" />
        <ExtentRef id="251" />
        <ExtentRef id="252" />
        <ExtentRef id="253" />
        <ExtentRef id="254" />
        <ExtentRef id="255" />
        <ExtentRef id="256" />
        <ExtentRef id="257" />
        <ExtentRef id="258" />
        <ExtentRef id="259" />
        <ExtentRef id="260" />
        <ExtentRef id="261" />
        <ExtentRef id="262" />
        <ExtentRef id="263" />
        <ExtentRef id="264" />
        <ExtentRef id="265" />
        <ExtentRef id="266" />
        <ExtentRef id="267" />
        <ExtentRef id="268" />
        <ExtentRef id="269" />
        <ExtentRef id="270" />
        <ExtentRef id="271" />
        <ExtentRef id="272" />
        <ExtentRef id="273" />
        <ExtentRef id="274" />
        <ExtentRef id="275" />
        <ExtentRef id="276" />
        <ExtentRef id="277" />
        <ExtentRef id="278" />
        <ExtentRef id="279" />
        <ExtentRef id="280" />
        <ExtentRef id="281" />
        <ExtentRef id="282" />
        <ExtentRef id="283" />
        <ExtentRef id="284" />
        <ExtentRef id="285" />
        <ExtentRef id="286" />
        <ExtentRef id="287" />
        <ExtentRef id="288" />
        <ExtentRef id="289" />
        <ExtentRef id="290" />
        <ExtentRef id="291" />
        <ExtentRef id="292" />
        <ExtentRef id="293" />
        <ExtentRef id="294" />
        <ExtentRef id="295" />
        <ExtentRef id="296" />
        <ExtentRef id="297" />
        <ExtentRef id="298" />
        <ExtentRef id="299" />
        <ExtentRef id="300" />
        <ExtentRef id="301" />
        <ExtentRef id="302" />
        <ExtentRef id="303" />
        <ExtentRef id="304" />
        <ExtentRef id="305" />
        <ExtentRef id="306" />
        <ExtentRef id="307" />
        <ExtentRef id="308" />
        <ExtentRef id="309" />
        <ExtentRef id="310" />
        <ExtentRef id="311" />
        <ExtentRef id="312" />
        <ExtentRef id="313" />
        <ExtentRef id="314" />
        <ExtentRef id="315" />
        <ExtentRef id="316" />
        <ExtentRef id="317" />
        <ExtentRef id="318" />
        <ExtentRef id="319" />
        <ExtentRef id="320" />
        <ExtentRef id="321" />
        <ExtentRef id="322" />
        <ExtentRef id="323" />
        <ExtentRef id="324" />
        <ExtentRef id="325" />
        <ExtentRef id="326" />
        <ExtentRef id="327" />
        <ExtentRef id="328" />
        <ExtentRef id="329" />
        <ExtentRef id="330" />
        <ExtentRef id="331" />
        <ExtentRef id="332" />
        <ExtentRef id="333" />
        <ExtentRef id="334" />
        <ExtentRef id="335" />
        <ExtentRef id="336" />
        <ExtentRef id="337" />
        <ExtentRef id="338" />
        <ExtentRef id="339" />
        <ExtentRef id="340" />
        <ExtentRef id="341" />
        <ExtentRef id="342" />
        <ExtentRef id="343" />
        <ExtentRef id="344" />
        <ExtentRef id="345" />
        <ExtentRef id="346" />
        <ExtentRef id="347" />
        <ExtentRef id="348" />
        <ExtentRef id="349" />
        <ExtentRef id="350" />
        <ExtentRef id="351" />
        <ExtentRef id="352" />
        <ExtentRef id="353" />
        <ExtentRef id="354" />
        <ExtentRef id="355" />
        <ExtentRef id="356" />
        <ExtentRef id="357" />
        <ExtentRef id="358" />
        <ExtentRef id="359" />
        <ExtentRef id="360" />
        <ExtentRef id="361" />
        <ExtentRef id="362" />
        <ExtentRef id="363" />
        <ExtentRef id="364" />
        <ExtentRef id="365" />
        <ExtentRef id="366" />
        <ExtentRef id="367" />
        <ExtentRef id="368" />
        <ExtentRef id="369" />
        <ExtentRef id="370" />
        <ExtentRef id="371" />
        <ExtentRef id="372" />
        <ExtentRef id="373" />
        <ExtentRef id="374" />
        <ExtentRef id="375" />
        <ExtentRef id="376" />
        <ExtentRef id="377" />
        <ExtentRef id="378" />
        <ExtentRef id="379" />
        <ExtentRef id="380" />
        <ExtentRef id="381" />
        <ExtentRef id="382" />
        <ExtentRef id="383" />
        <ExtentRef id="384" />
        <ExtentRef id="385" />
        <ExtentRef id="386" />
        <ExtentRef id="387" />
        <ExtentRef id="388" />
        <ExtentRef id="389" />
        <ExtentRef id="390" />
        <ExtentRef id="391" />
        <ExtentRef id="392" />
        <ExtentRef id="393" />
        <ExtentRef id="394" />
        <ExtentRef id="395" />
        <ExtentRef id="396" />
        <ExtentRef id="397" />
        <ExtentRef id="398" />
        <ExtentRef id="399" />
        <ExtentRef id="400" />
        <ExtentRef id="401" />
        <ExtentRef id="402" />
        <ExtentRef id="403" />
        <ExtentRef id="404" />
        <ExtentRef id="405" />
        <ExtentRef id="406" />
        <ExtentRef id="407" />
        <ExtentRef id="408" />
        <ExtentRef id="409" />
        <ExtentRef id="410" />
        <ExtentRef id="411" />
        <ExtentRef id="412" />
        <ExtentRef id="413" />
        <ExtentRef id="414" />
        <ExtentRef id="415" />
        <ExtentRef id="416" />
        <ExtentRef id="417" />
        <ExtentRef id="418" />
        <ExtentRef id="419" />
        <ExtentRef id="420" />
        <ExtentRef id="421" />
        <ExtentRef id="422" />
        <ExtentRef id="423" />
        <ExtentRef id="424" />
        <ExtentRef id="425" />
        <ExtentRef id="426" />
        <ExtentRef id="427" />
        <ExtentRef id="428" />
        <ExtentRef id="429" />
        <ExtentRef id="430" />
        <ExtentRef id="431" />
        <ExtentRef id="432" />
        <ExtentRef id="433" />
        <ExtentRef id="434" />
        <ExtentRef id="435" />
        <ExtentRef id="436" />
        <ExtentRef id="437" />
        <ExtentRef id="438" />
        <ExtentRef id="439" />
        <ExtentRef id="440" />
        <ExtentRef id="441" />
        <ExtentRef id="442" />
        <ExtentRef id="443" />
        <ExtentRef id="444" />
        <ExtentRef id="445" />
        <ExtentRef id="446" />
        <ExtentRef id="447" />
        <ExtentRef id="448" />
        <ExtentRef id="449" />
        <ExtentRef id="450" />
        <ExtentRef id="451" />
        <ExtentRef id="452" />
        <ExtentRef id="453" />
        <ExtentRef id="454" />
        <ExtentRef id="455" />
        <ExtentRef id="456" />
        <ExtentRef id="457" />
        <ExtentRef id="458" />
        <ExtentRef id="459" />
        <ExtentRef id="460" />
        <ExtentRef id="461" />
        <ExtentRef id="462" />
        <ExtentRef id="463" />
        <ExtentRef id="464" />
        <ExtentRef id="465" />
        <ExtentRef id="466" />
        <ExtentRef id="467" />
        <ExtentRef id="468" />
        <ExtentRef id="469" />
        <ExtentRef id="470" />
        <ExtentRef id="471" />
        <ExtentRef id="472" />
        <ExtentRef id="473" />
        <ExtentRef id="474" />
        <ExtentRef id="475" />
        <ExtentRef id="476" />
        <ExtentRef id="477" />
        <ExtentRef id="478" />
        <ExtentRef id="479" />
        <ExtentRef id="480" />
        <ExtentRef id="481" />
        <ExtentRef id="482" />
        <ExtentRef id="483" />
        <ExtentRef id="484" />
        <ExtentRef id="485" />
        <ExtentRef id="486" />
        <ExtentRef id="487" />
        <ExtentRef id="488" />
        <ExtentRef id="489" />
        <ExtentRef id="490" />
        <ExtentRef id="491" />
        <ExtentRef id="492" />
        <ExtentRef id="493" />
        <ExtentRef id="494" />
        <ExtentRef id="495" />
        <ExtentRef id="496" />
        <ExtentRef id="497" />
        <ExtentRef id="498" />
        <ExtentRef id="499" />
        <ExtentRef id="500" />
        <ExtentRef id="501" />
        <ExtentRef id="502" />
        <ExtentRef id="503" />
        <ExtentRef id="504" />
        <ExtentRef id="505" />
        <ExtentRef id="506" />
        <ExtentRef id="507" />
        <ExtentRef id="508" />
        <ExtentRef id="509" />
        <ExtentRef id="510" />
        <ExtentRef id="511" />
        <ExtentRef id="512" />
        <ExtentRef id="513" />
        <ExtentRef id="514" />
        <ExtentRef id="515" />
        <ExtentRef id="516" />
        <ExtentRef id="517" />
        <ExtentRef id="518" />
        <ExtentRef id="519" />
        <ExtentRef id="520" />
        <ExtentRef id="521" />
        <ExtentRef id="522" />
        <ExtentRef id="523" />
        <ExtentRef id="524" />
        <ExtentRef id="525" />
        <ExtentRef id="526" />
        <ExtentRef id="527" />
        <ExtentRef id="528" />
        <ExtentRef id="529" />
        <ExtentRef id="530" />
        <ExtentRef id="531" />
        <ExtentRef id="532" />
        <ExtentRef id="533" />
        <ExtentRef id="534" />
        <ExtentRef id="535" />
        <ExtentRef id="536" />
        <ExtentRef id="537" />
        <ExtentRef id="538" />
        <ExtentRef id="539" />
        <ExtentRef id="540" />
        <ExtentRef id="541" />
        <ExtentRef id="542" />
        <ExtentRef id="543" />
        <ExtentRef id="544" />
        <ExtentRef id="545" />
        <ExtentRef id="546" />
      </ExtentRefs>
    </ExtentSelector>
    <ExtentSelector extentID="2" gapBefore="0" primaryTrack="false">
      <Effects />
      <Transitions />
      <BoundProperties />
      <ExtentRefs />
    </ExtentSelector>
    <ExtentSelector extentID="3" gapBefore="0" primaryTrack="false">
      <Effects />
      <Transitions />
      <BoundProperties />
      <ExtentRefs />
    </ExtentSelector>
    <ExtentSelector extentID="4" gapBefore="0" primaryTrack="false">
      <Effects />
      <Transitions />
      <BoundProperties />
      <ExtentRefs />
    </ExtentSelector>
  </Extents>
  <BoundPlaceholders>
    <BoundPlaceholder placeholderID="SingleExtentView" extentID="0" />
    <BoundPlaceholder placeholderID="Main" extentID="1" />
    <BoundPlaceholder placeholderID="SoundTrack" extentID="2" />
    <BoundPlaceholder placeholderID="Text" extentID="4" />
    <BoundPlaceholder placeholderID="Narration" extentID="3" />
  </BoundPlaceholders>
  <BoundProperties>
    <BoundPropertyFloatSet Name="AspectRatio">
      <BoundPropertyFloatElement Value="1.7777776718139648" />
    </BoundPropertyFloatSet>
    <BoundPropertyFloat Name="SoundTrackMix" Value="0.5" />
  </BoundProperties>
  <ThemeOperationLog themeID="0">
    <MonolithicThemeOperations />
  </ThemeOperationLog>
</Project>